{
.appVersion = "1352";
DisplayStrings = (
"non.non,non:ono;non/ellipsis \012no¡no?non¿no·ch/bullet *2#45\012croc/backslash/periodcentered.loclCAT (nonon){Non}[ononononon]-­/endash/emdash/hyphentwo _/quotesinglbase Your's/nbspace/space I'mnoN/quotedblright/quoteleft/quoteright «nono»/guilsinglleft nono/guilsinglright Your\"\"'/space/leftanglebracket-math 20302/rightanglebracket-math",
"HH0H1HH2HH3H\012HH4HH5HH6HH\012HH7H8HH9HH/zero.lf \0120/Placeholder 0/space 1/Placeholder 1/space 2/Placeholder 2/space 3/Placeholder 3/space 4/Placeholder 4/space 5/Placeholder 5/space 6/Placeholder 6/space 7/Placeholder 7/space 8/Placeholder 8/space 9/Placeholder 9\0120123475647989/nbspace \012/one.lf/two.lf/three.lf/four.lf/five.lf/six.lf/seven.lf/eight.lf/nine.lf \012nn/Placeholder no/Placeholder oo\012",
"nono@nono\012nonn@onon\012Non@gmail.com",

glyphs = (
{
color = 9;
glyphname = A;
lastChange = "2021-11-23 21:02:42 +0000";
layers = (
{
anchors = (
{
name = bottom;
position = "{607, 0}";
},
{
name = ogonek;
position = "{859, 7}";
},
{
name = top;
position = "{1159, 800}";
}
);
background = {
paths = (
{
closed = 1;
nodes = (
"192 -163 OFFCURVE",
"275 -92 OFFCURVE",
"346 -18 CURVE",
"465 10 OFFCURVE",
"600 105 OFFCURVE",
"711 286 CURVE SMOOTH",
"729 316 OFFCURVE",
"744 344 OFFCURVE",
"755 372 CURVE",
"788 377 OFFCURVE",
"819 383 OFFCURVE",
"851 390 CURVE",
"777 292 OFFCURVE",
"721 188 OFFCURVE",
"720 86 CURVE SMOOTH",
"720 40 OFFCURVE",
"737 7 OFFCURVE",
"774 -3 CURVE SMOOTH",
"854 -25 OFFCURVE",
"928 69 OFFCURVE",
"987 189 CURVE SMOOTH",
"991 197 OFFCURVE",
"980 201 OFFCURVE",
"976 192 CURVE SMOOTH",
"917 68 OFFCURVE",
"832 -8 OFFCURVE",
"788 16 CURVE SMOOTH",
"720 52 OFFCURVE",
"869 315 OFFCURVE",
"904 372 CURVE SMOOTH",
"929 413 LINE",
"985 432 OFFCURVE",
"1039 458 OFFCURVE",
"1090 493 CURVE SMOOTH",
"1384 695 OFFCURVE",
"1197 881 OFFCURVE",
"980 753 CURVE SMOOTH",
"922 720 OFFCURVE",
"858 657 OFFCURVE",
"789 581 CURVE",
"768 714 OFFCURVE",
"652 793 OFFCURVE",
"507 799 CURVE SMOOTH",
"196 811 OFFCURVE",
"48 568 OFFCURVE",
"88 400 CURVE",
"9 251 OFFCURVE",
"7 66 OFFCURVE",
"174 -8 CURVE SMOOTH",
"211 -23 OFFCURVE",
"254 -30 OFFCURVE",
"301 -25 CURVE",
"240 -93 OFFCURVE",
"172 -155 OFFCURVE",
"94 -188 CURVE SMOOTH",
"-22 -237 OFFCURVE",
"-218 -216 OFFCURVE",
"-199 -71 CURVE SMOOTH",
"-198 -62 OFFCURVE",
"-211 -61 OFFCURVE",
"-212 -70 CURVE SMOOTH",
"-242 -247 OFFCURVE",
"-28 -250 OFFCURVE",
"99 -200 CURVE SMOOTH"
);
},
{
closed = 1;
nodes = (
"265 -16 OFFCURVE",
"219 -11 OFFCURVE",
"180 6 CURVE SMOOTH",
"34 68 OFFCURVE",
"33 229 OFFCURVE",
"99 366 CURVE",
"115 329 OFFCURVE",
"141 297 OFFCURVE",
"179 276 CURVE",
"154 202 OFFCURVE",
"238 130 OFFCURVE",
"366 210 CURVE SMOOTH",
"433 252 OFFCURVE",
"476 299 OFFCURVE",
"502 346 CURVE",
"536 348 OFFCURVE",
"571 351 OFFCURVE",
"605 354 CURVE",
"531 259 OFFCURVE",
"457 161 OFFCURVE",
"385 74 CURVE SMOOTH",
"363 47 OFFCURVE",
"340 19 OFFCURVE",
"316 -9 CURVE"
);
},
{
closed = 1;
nodes = (
"245 153 OFFCURVE",
"191 201 OFFCURVE",
"228 256 CURVE",
"254 248 OFFCURVE",
"285 245 OFFCURVE",
"318 246 CURVE SMOOTH",
"332 246 OFFCURVE",
"330 256 OFFCURVE",
"317 256 CURVE SMOOTH",
"286 255 OFFCURVE",
"259 258 OFFCURVE",
"235 265 CURVE",
"263 297 OFFCURVE",
"322 329 OFFCURVE",
"419 338 CURVE SMOOTH",
"487 344 LINE",
"462 303 OFFCURVE",
"421 260 OFFCURVE",
"358 222 CURVE SMOOTH"
);
},
{
closed = 1;
nodes = (
"381 20 OFFCURVE",
"396 38 OFFCURVE",
"411 55 CURVE SMOOTH",
"491 149 OFFCURVE",
"574 257 OFFCURVE",
"655 359 CURVE",
"732 368 LINE",
"720 343 OFFCURVE",
"706 316 OFFCURVE",
"689 288 CURVE SMOOTH",
"590 124 OFFCURVE",
"471 35 OFFCURVE",
"365 3 CURVE"
);
},
{
closed = 1;
nodes = (
"147 313 OFFCURVE",
"124 350 OFFCURVE",
"113 393 CURVE",
"281 693 OFFCURVE",
"590 617 OFFCURVE",
"509 391 CURVE",
"462 389 OFFCURVE",
"416 386 OFFCURVE",
"372 382 CURVE SMOOTH",
"265 371 OFFCURVE",
"206 331 OFFCURVE",
"185 288 CURVE"
);
},
{
closed = 1;
nodes = (
"604 630 OFFCURVE",
"282 713 OFFCURVE",
"107 433 CURVE",
"96 590 OFFCURVE",
"238 792 OFFCURVE",
"505 778 CURVE SMOOTH",
"645 770 OFFCURVE",
"757 693 OFFCURVE",
"770 558 CURVE",
"727 508 OFFCURVE",
"683 453 OFFCURVE",
"638 396 CURVE",
"522 391 LINE"
);
},
{
closed = 1;
nodes = (
"715 434 OFFCURVE",
"742 468 OFFCURVE",
"769 500 CURVE",
"766 470 OFFCURVE",
"759 438 OFFCURVE",
"746 404 CURVE",
"687 399 LINE"
);
},
{
closed = 1;
nodes = (
"784 450 OFFCURVE",
"792 490 OFFCURVE",
"793 527 CURVE",
"865 610 OFFCURVE",
"934 678 OFFCURVE",
"996 715 CURVE SMOOTH",
"1212 841 OFFCURVE",
"1352 675 OFFCURVE",
"1078 503 CURVE SMOOTH",
"1038 478 OFFCURVE",
"994 459 OFFCURVE",
"949 444 CURVE",
"1015 545 OFFCURVE",
"1088 640 OFFCURVE",
"1143 694 CURVE",
"1152 700 OFFCURVE",
"1146 715 OFFCURVE",
"1134 703 CURVE SMOOTH",
"1064 626 OFFCURVE",
"962 530 OFFCURVE",
"877 425 CURVE",
"842 417 OFFCURVE",
"806 411 OFFCURVE",
"769 407 CURVE"
);
}
);
};
layerId = "32B14CDE-4F96-422E-BD5E-1145416534B1";
paths = (
{
closed = 1;
nodes = (
"3 -228 OFFCURVE",
"56 -217 OFFCURVE",
"99 -200 CURVE SMOOTH",
"192 -163 OFFCURVE",
"275 -92 OFFCURVE",
"346 -18 CURVE",
"465 10 OFFCURVE",
"600 105 OFFCURVE",
"711 286 CURVE SMOOTH",
"729 316 OFFCURVE",
"744 344 OFFCURVE",
"755 372 CURVE",
"788 377 OFFCURVE",
"819 383 OFFCURVE",
"851 390 CURVE",
"777 292 OFFCURVE",
"721 188 OFFCURVE",
"720 86 CURVE SMOOTH",
"720 31 OFFCURVE",
"744 -6 OFFCURVE",
"797 -6 CURVE SMOOTH",
"868 -6 OFFCURVE",
"934 81 OFFCURVE",
"987 189 CURVE SMOOTH",
"989 194 OFFCURVE",
"986 197 OFFCURVE",
"983 197 CURVE SMOOTH",
"980 197 OFFCURVE",
"978 196 OFFCURVE",
"976 192 CURVE SMOOTH",
"924 83 OFFCURVE",
"853 12 OFFCURVE",
"806 12 CURVE SMOOTH",
"800 12 OFFCURVE",
"793 13 OFFCURVE",
"788 16 CURVE SMOOTH",
"776 23 OFFCURVE",
"770 37 OFFCURVE",
"770 56 CURVE SMOOTH",
"770 141 OFFCURVE",
"875 325 OFFCURVE",
"904 372 CURVE SMOOTH",
"929 413 LINE",
"985 432 OFFCURVE",
"1039 458 OFFCURVE",
"1090 493 CURVE SMOOTH",
"1199 568 OFFCURVE",
"1242 640 OFFCURVE",
"1242 695 CURVE SMOOTH",
"1242 755 OFFCURVE",
"1191 795 OFFCURVE",
"1119 795 CURVE SMOOTH",
"1078 795 OFFCURVE",
"1030 782 OFFCURVE",
"980 753 CURVE SMOOTH",
"922 720 OFFCURVE",
"858 657 OFFCURVE",
"789 581 CURVE",
"767 721 OFFCURVE",
"640 799 OFFCURVE",
"484 799 CURVE SMOOTH",
"221 799 OFFCURVE",
"82 613 OFFCURVE",
"82 456 CURVE SMOOTH",
"82 437 OFFCURVE",
"84 418 OFFCURVE",
"88 400 CURVE",
"55 339 OFFCURVE",
"36 271 OFFCURVE",
"36 208 CURVE SMOOTH",
"36 117 OFFCURVE",
"76 36 OFFCURVE",
"174 -8 CURVE SMOOTH",
"203 -20 OFFCURVE",
"236 -27 OFFCURVE",
"271 -27 CURVE SMOOTH",
"281 -27 OFFCURVE",
"291 -26 OFFCURVE",
"301 -25 CURVE",
"240 -93 OFFCURVE",
"172 -155 OFFCURVE",
"94 -188 CURVE SMOOTH",
"58 -203 OFFCURVE",
"14 -212 OFFCURVE",
"-29 -212 CURVE SMOOTH",
"-117 -212 OFFCURVE",
"-200 -176 OFFCURVE",
"-200 -90 CURVE SMOOTH",
"-200 -84 OFFCURVE",
"-199 -77 OFFCURVE",
"-199 -69 CURVE SMOOTH",
"-199 -66 OFFCURVE",
"-202 -64 OFFCURVE",
"-205 -64 CURVE SMOOTH",
"-208 -64 OFFCURVE",
"-212 -66 OFFCURVE",
"-212 -70 CURVE",
"-214 -81 OFFCURVE",
"-215 -92 OFFCURVE",
"-215 -102 CURVE SMOOTH",
"-215 -195 OFFCURVE",
"-136 -228 OFFCURVE",
"-48 -228 CURVE SMOOTH"
);
},
{
closed = 1;
nodes = (
"239 -12 OFFCURVE",
"208 -6 OFFCURVE",
"180 6 CURVE SMOOTH",
"92 43 OFFCURVE",
"57 116 OFFCURVE",
"57 198 CURVE SMOOTH",
"57 253 OFFCURVE",
"73 311 OFFCURVE",
"99 366 CURVE",
"115 329 OFFCURVE",
"141 297 OFFCURVE",
"179 276 CURVE",
"176 267 OFFCURVE",
"175 258 OFFCURVE",
"175 250 CURVE SMOOTH",
"175 209 OFFCURVE",
"207 175 OFFCURVE",
"261 175 CURVE SMOOTH",
"291 175 OFFCURVE",
"326 185 OFFCURVE",
"366 210 CURVE SMOOTH",
"433 252 OFFCURVE",
"476 299 OFFCURVE",
"502 346 CURVE",
"536 348 OFFCURVE",
"571 351 OFFCURVE",
"605 354 CURVE",
"531 259 OFFCURVE",
"457 161 OFFCURVE",
"385 74 CURVE SMOOTH",
"363 47 OFFCURVE",
"340 19 OFFCURVE",
"316 -9 CURVE",
"301 -11 OFFCURVE",
"287 -12 OFFCURVE",
"273 -12 CURVE SMOOTH"
);
},
{
closed = 1;
nodes = (
"232 188 OFFCURVE",
"216 203 OFFCURVE",
"216 223 CURVE SMOOTH",
"216 233 OFFCURVE",
"220 244 OFFCURVE",
"228 256 CURVE",
"254 248 OFFCURVE",
"285 245 OFFCURVE",
"318 246 CURVE SMOOTH",
"325 246 OFFCURVE",
"328 248 OFFCURVE",
"328 251 CURVE SMOOTH",
"328 253 OFFCURVE",
"324 256 OFFCURVE",
"317 256 CURVE SMOOTH",
"286 255 OFFCURVE",
"259 258 OFFCURVE",
"235 265 CURVE",
"263 297 OFFCURVE",
"322 329 OFFCURVE",
"419 338 CURVE SMOOTH",
"487 344 LINE",
"462 303 OFFCURVE",
"421 260 OFFCURVE",
"358 222 CURVE SMOOTH",
"318 198 OFFCURVE",
"285 188 OFFCURVE",
"261 188 CURVE SMOOTH"
);
},
{
closed = 1;
nodes = (
"381 20 OFFCURVE",
"396 38 OFFCURVE",
"411 55 CURVE SMOOTH",
"491 149 OFFCURVE",
"574 257 OFFCURVE",
"655 359 CURVE",
"732 368 LINE",
"720 343 OFFCURVE",
"706 316 OFFCURVE",
"689 288 CURVE SMOOTH",
"590 124 OFFCURVE",
"471 35 OFFCURVE",
"365 3 CURVE"
);
},
{
closed = 1;
nodes = (
"147 313 OFFCURVE",
"124 350 OFFCURVE",
"113 393 CURVE",
"191 532 OFFCURVE",
"299 590 OFFCURVE",
"384 590 CURVE SMOOTH",
"463 590 OFFCURVE",
"522 541 OFFCURVE",
"522 461 CURVE SMOOTH",
"522 440 OFFCURVE",
"518 416 OFFCURVE",
"509 391 CURVE",
"462 389 OFFCURVE",
"416 386 OFFCURVE",
"372 382 CURVE SMOOTH",
"265 371 OFFCURVE",
"206 331 OFFCURVE",
"185 288 CURVE"
);
},
{
closed = 1;
nodes = (
"531 417 OFFCURVE",
"535 442 OFFCURVE",
"535 464 CURVE SMOOTH",
"535 555 OFFCURVE",
"465 609 OFFCURVE",
"377 609 CURVE SMOOTH",
"290 609 OFFCURVE",
"184 557 OFFCURVE",
"107 433 CURVE",
"96 585 OFFCURVE",
"229 779 OFFCURVE",
"479 779 CURVE SMOOTH",
"631 779 OFFCURVE",
"756 701 OFFCURVE",
"770 558 CURVE",
"727 508 OFFCURVE",
"683 453 OFFCURVE",
"638 396 CURVE",
"522 391 LINE"
);
},
{
closed = 1;
nodes = (
"715 434 OFFCURVE",
"742 468 OFFCURVE",
"769 500 CURVE",
"766 470 OFFCURVE",
"759 438 OFFCURVE",
"746 404 CURVE",
"687 399 LINE"
);
},
{
closed = 1;
nodes = (
"784 450 OFFCURVE",
"792 490 OFFCURVE",
"793 527 CURVE",
"865 610 OFFCURVE",
"934 678 OFFCURVE",
"996 715 CURVE SMOOTH",
"1049 746 OFFCURVE",
"1098 759 OFFCURVE",
"1137 759 CURVE SMOOTH",
"1194 759 OFFCURVE",
"1230 731 OFFCURVE",
"1230 686 CURVE SMOOTH",
"1230 638 OFFCURVE",
"1186 571 OFFCURVE",
"1078 503 CURVE SMOOTH",
"1038 478 OFFCURVE",
"994 459 OFFCURVE",
"949 444 CURVE",
"1015 545 OFFCURVE",
"1088 640 OFFCURVE",
"1143 694 CURVE",
"1146 696 OFFCURVE",
"1147 699 OFFCURVE",
"1147 701 CURVE SMOOTH",
"1147 705 OFFCURVE",
"1145 708 OFFCURVE",
"1142 708 CURVE SMOOTH",
"1140 708 OFFCURVE",
"1137 706 OFFCURVE",
"1134 703 CURVE SMOOTH",
"1064 626 OFFCURVE",
"962 530 OFFCURVE",
"877 425 CURVE",
"842 417 OFFCURVE",
"806 411 OFFCURVE",
"769 407 CURVE"
);
}
);
width = 917;
}
);
leftKerningGroup = A;
note = A;
rightKerningGroup = A;
unicode = 0041;
},
{
color = 4;
glyphname = AE;
lastChange = "2021-11-23 21:02:52 +0000";
layers = (
{
anchors = (
{
name = bottom;
position = "{824, 0}";
},
{
name = ogonek;
position = "{859, 7}";
},
{
name = top;
position = "{1370, 732}";
}
);
background = {
anchors = (
{
name = bottom;
position = "{943, -114}";
},
{
name = ogonek;
position = "{1377, -12}";
},
{
name = top;
position = "{1370, 800}";
},
{
name = topleft;
position = "{809, 800}";
}
);
paths = (
{
closed = 1;
nodes = (
"1222 -303 OFFCURVE",
"1261 -289 OFFCURVE",
"1301 -258 CURVE SMOOTH",
"1307 -253 OFFCURVE",
"1303 -244 OFFCURVE",
"1297 -244 CURVE SMOOTH",
"1295 -244 OFFCURVE",
"1294 -245 OFFCURVE",
"1292 -246 CURVE",
"1256 -273 OFFCURVE",
"1219 -286 OFFCURVE",
"1187 -286 CURVE SMOOTH",
"1129 -286 OFFCURVE",
"1085 -245 OFFCURVE",
"1085 -168 CURVE SMOOTH",
"1085 -161 OFFCURVE",
"1085 -154 OFFCURVE",
"1086 -147 CURVE SMOOTH",
"1089 -124 LINE",
"1193 -107 OFFCURVE",
"1290 -56 OFFCURVE",
"1366 17 CURVE SMOOTH",
"1408 58 OFFCURVE",
"1463 127 OFFCURVE",
"1490 195 CURVE SMOOTH",
"1503 228 OFFCURVE",
"1508 254 OFFCURVE",
"1508 275 CURVE SMOOTH",
"1508 320 OFFCURVE",
"1483 338 OFFCURVE",
"1447 338 CURVE SMOOTH",
"1428 338 OFFCURVE",
"1406 332 OFFCURVE",
"1383 323 CURVE",
"1384 333 OFFCURVE",
"1384 343 OFFCURVE",
"1384 353 CURVE SMOOTH",
"1384 408 OFFCURVE",
"1371 463 OFFCURVE",
"1349 514 CURVE",
"1455 531 OFFCURVE",
"1566 570 OFFCURVE",
"1615 650 CURVE SMOOTH",
"1625 667 OFFCURVE",
"1630 683 OFFCURVE",
"1630 699 CURVE SMOOTH",
"1630 757 OFFCURVE",
"1564 804 OFFCURVE",
"1458 804 CURVE SMOOTH",
"1365 804 OFFCURVE",
"1259 779 OFFCURVE",
"1168 734 CURVE",
"1087 795 OFFCURVE",
"1014 819 OFFCURVE",
"957 819 CURVE SMOOTH",
"872 819 OFFCURVE",
"819 767 OFFCURVE",
"819 706 CURVE SMOOTH",
"819 649 OFFCURVE",
"866 582 OFFCURVE",
"977 542 CURVE",
"975 537 LINE SMOOTH",
"968 519 OFFCURVE",
"966 502 OFFCURVE",
"966 487 CURVE SMOOTH",
"966 456 OFFCURVE",
"977 429 OFFCURVE",
"995 408 CURVE",
"863 351 OFFCURVE",
"747 243 OFFCURVE",
"737 105 CURVE SMOOTH",
"729 -8 OFFCURVE",
"841 -127 OFFCURVE",
"1004 -130 CURVE SMOOTH",
"1027 -131 OFFCURVE",
"1050 -130 OFFCURVE",
"1073 -127 CURVE",
"1071 -139 OFFCURVE",
"1070 -151 OFFCURVE",
"1070 -162 CURVE SMOOTH",
"1070 -248 OFFCURVE",
"1120 -303 OFFCURVE",
"1187 -303 CURVE SMOOTH"
);
},
{
closed = 1;
nodes = (
"905 -109 OFFCURVE",
"830 1 OFFCURVE",
"830 123 CURVE SMOOTH",
"830 227 OFFCURVE",
"885 339 OFFCURVE",
"1005 397 CURVE",
"1034 369 OFFCURVE",
"1078 351 OFFCURVE",
"1128 346 CURVE SMOOTH",
"1138 345 OFFCURVE",
"1149 344 OFFCURVE",
"1158 344 CURVE SMOOTH",
"1232 344 OFFCURVE",
"1278 379 OFFCURVE",
"1278 409 CURVE SMOOTH",
"1278 431 OFFCURVE",
"1251 451 OFFCURVE",
"1190 451 CURVE SMOOTH",
"1146 451 OFFCURVE",
"1099 444 OFFCURVE",
"1052 429 CURVE",
"1044 446 OFFCURVE",
"1041 467 OFFCURVE",
"1043 492 CURVE SMOOTH",
"1044 502 OFFCURVE",
"1046 512 OFFCURVE",
"1048 522 CURVE",
"1098 511 OFFCURVE",
"1158 505 OFFCURVE",
"1228 505 CURVE SMOOTH",
"1260 505 OFFCURVE",
"1296 507 OFFCURVE",
"1334 512 CURVE",
"1356 461 OFFCURVE",
"1370 405 OFFCURVE",
"1370 350 CURVE SMOOTH",
"1370 338 OFFCURVE",
"1369 327 OFFCURVE",
"1368 315 CURVE",
"1356 309 OFFCURVE",
"1344 302 OFFCURVE",
"1332 294 CURVE SMOOTH",
"1256 242 OFFCURVE",
"1183 154 OFFCURVE",
"1134 56 CURVE",
"1124 55 OFFCURVE",
"1114 54 OFFCURVE",
"1104 54 CURVE SMOOTH",
"1035 54 OFFCURVE",
"982 90 OFFCURVE",
"982 143 CURVE SMOOTH",
"982 155 OFFCURVE",
"984 168 OFFCURVE",
"990 182 CURVE SMOOTH",
"993 188 OFFCURVE",
"988 192 OFFCURVE",
"983 192 CURVE SMOOTH",
"980 192 OFFCURVE",
"977 191 OFFCURVE",
"976 188 CURVE SMOOTH",
"969 172 OFFCURVE",
"966 157 OFFCURVE",
"966 143 CURVE SMOOTH",
"966 80 OFFCURVE",
"1027 39 OFFCURVE",
"1105 39 CURVE SMOOTH",
"1112 39 OFFCURVE",
"1119 39 OFFCURVE",
"1126 40 CURVE",
"1103 -8 OFFCURVE",
"1085 -58 OFFCURVE",
"1077 -107 CURVE",
"1064 -108 OFFCURVE",
"1052 -109 OFFCURVE",
"1040 -109 CURVE SMOOTH"
);
},
{
closed = 1;
nodes = (
"1102 -58 OFFCURVE",
"1120 -7 OFFCURVE",
"1145 43 CURVE",
"1213 55 OFFCURVE",
"1288 99 OFFCURVE",
"1340 187 CURVE SMOOTH",
"1363 225 OFFCURVE",
"1376 265 OFFCURVE",
"1382 307 CURVE",
"1402 317 OFFCURVE",
"1421 323 OFFCURVE",
"1436 323 CURVE SMOOTH",
"1457 323 OFFCURVE",
"1470 311 OFFCURVE",
"1470 283 CURVE SMOOTH",
"1470 263 OFFCURVE",
"1463 235 OFFCURVE",
"1448 197 CURVE SMOOTH",
"1391 56 OFFCURVE",
"1245 -78 OFFCURVE",
"1092 -104 CURVE"
);
},
{
closed = 1;
nodes = (
"1200 149 OFFCURVE",
"1264 237 OFFCURVE",
"1342 284 CURVE SMOOTH",
"1365 298 LINE",
"1359 262 OFFCURVE",
"1347 228 OFFCURVE",
"1328 195 CURVE SMOOTH",
"1281 116 OFFCURVE",
"1215 75 OFFCURVE",
"1153 60 CURVE"
);
},
{
closed = 1;
nodes = (
"1130 362 OFFCURVE",
"1082 378 OFFCURVE",
"1058 417 CURVE",
"1097 430 OFFCURVE",
"1141 436 OFFCURVE",
"1192 436 CURVE SMOOTH",
"1214 436 OFFCURVE",
"1263 432 OFFCURVE",
"1263 409 CURVE SMOOTH",
"1263 381 OFFCURVE",
"1220 362 OFFCURVE",
"1173 362 CURVE SMOOTH"
);
},
{
closed = 1;
nodes = (
"887 589 OFFCURVE",
"847 642 OFFCURVE",
"847 689 CURVE SMOOTH",
"847 743 OFFCURVE",
"898 788 OFFCURVE",
"977 788 CURVE SMOOTH",
"1026 788 OFFCURVE",
"1087 771 OFFCURVE",
"1152 726 CURVE",
"1075 684 OFFCURVE",
"1011 626 OFFCURVE",
"982 555 CURVE"
);
},
{
closed = 1;
nodes = (
"1158 520 OFFCURVE",
"1100 526 OFFCURVE",
"1051 536 CURVE",
"1070 606 OFFCURVE",
"1119 663 OFFCURVE",
"1181 705 CURVE",
"1183 703 LINE SMOOTH",
"1199 687 OFFCURVE",
"1218 673 OFFCURVE",
"1237 655 CURVE SMOOTH",
"1272 619 OFFCURVE",
"1303 576 OFFCURVE",
"1327 528 CURVE",
"1296 523 OFFCURVE",
"1263 520 OFFCURVE",
"1228 520 CURVE SMOOTH"
);
},
{
closed = 1;
nodes = (
"1318 581 OFFCURVE",
"1285 628 OFFCURVE",
"1247 665 CURVE SMOOTH",
"1230 683 OFFCURVE",
"1212 699 OFFCURVE",
"1195 713 CURVE",
"1274 762 OFFCURVE",
"1373 789 OFFCURVE",
"1463 789 CURVE SMOOTH",
"1537 789 OFFCURVE",
"1572 756 OFFCURVE",
"1572 713 CURVE SMOOTH",
"1572 648 OFFCURVE",
"1492 561 OFFCURVE",
"1342 531 CURVE"
);
}
);
};
layerId = "32B14CDE-4F96-422E-BD5E-1145416534B1";
paths = (
{
closed = 1;
nodes = (
"3 -228 OFFCURVE",
"56 -217 OFFCURVE",
"99 -200 CURVE SMOOTH",
"192 -163 OFFCURVE",
"275 -92 OFFCURVE",
"346 -18 CURVE",
"465 10 OFFCURVE",
"600 105 OFFCURVE",
"711 286 CURVE SMOOTH",
"729 316 OFFCURVE",
"744 344 OFFCURVE",
"755 372 CURVE",
"788 377 OFFCURVE",
"819 383 OFFCURVE",
"851 390 CURVE",
"777 292 OFFCURVE",
"737 184 OFFCURVE",
"737 105 CURVE SMOOTH",
"737 66 OFFCURVE",
"754 48 OFFCURVE",
"764 48 CURVE SMOOTH",
"767 48 OFFCURVE",
"770 51 OFFCURVE",
"770 56 CURVE SMOOTH",
"770 141 OFFCURVE",
"875 325 OFFCURVE",
"904 372 CURVE SMOOTH",
"1010 537 OFFCURVE",
"1074 627 OFFCURVE",
"1143 694 CURVE",
"1146 696 OFFCURVE",
"1147 699 OFFCURVE",
"1147 701 CURVE SMOOTH",
"1147 705 OFFCURVE",
"1145 708 OFFCURVE",
"1142 708 CURVE SMOOTH",
"1140 708 OFFCURVE",
"1137 706 OFFCURVE",
"1134 703 CURVE SMOOTH",
"1064 626 OFFCURVE",
"962 530 OFFCURVE",
"877 425 CURVE",
"842 417 OFFCURVE",
"806 411 OFFCURVE",
"769 407 CURVE",
"784 450 OFFCURVE",
"792 490 OFFCURVE",
"793 527 CURVE",
"865 610 OFFCURVE",
"934 678 OFFCURVE",
"996 715 CURVE SMOOTH",
"1085 767 OFFCURVE",
"1166 784 OFFCURVE",
"1221 784 CURVE SMOOTH",
"1256 784 OFFCURVE",
"1280 777 OFFCURVE",
"1288 769 CURVE",
"1294 773 LINE",
"1280 796 OFFCURVE",
"1239 811 OFFCURVE",
"1184 811 CURVE SMOOTH",
"1126 811 OFFCURVE",
"1052 794 OFFCURVE",
"980 753 CURVE SMOOTH",
"922 720 OFFCURVE",
"858 657 OFFCURVE",
"789 581 CURVE",
"767 721 OFFCURVE",
"640 799 OFFCURVE",
"484 799 CURVE SMOOTH",
"221 799 OFFCURVE",
"82 613 OFFCURVE",
"82 456 CURVE SMOOTH",
"82 437 OFFCURVE",
"84 418 OFFCURVE",
"88 400 CURVE",
"55 339 OFFCURVE",
"36 271 OFFCURVE",
"36 208 CURVE SMOOTH",
"36 117 OFFCURVE",
"76 36 OFFCURVE",
"174 -8 CURVE SMOOTH",
"203 -20 OFFCURVE",
"236 -27 OFFCURVE",
"271 -27 CURVE SMOOTH",
"281 -27 OFFCURVE",
"291 -26 OFFCURVE",
"301 -25 CURVE",
"240 -93 OFFCURVE",
"172 -155 OFFCURVE",
"94 -188 CURVE SMOOTH",
"58 -203 OFFCURVE",
"14 -212 OFFCURVE",
"-29 -212 CURVE SMOOTH",
"-117 -212 OFFCURVE",
"-200 -176 OFFCURVE",
"-200 -90 CURVE SMOOTH",
"-200 -84 OFFCURVE",
"-199 -77 OFFCURVE",
"-199 -69 CURVE SMOOTH",
"-199 -66 OFFCURVE",
"-202 -64 OFFCURVE",
"-205 -64 CURVE SMOOTH",
"-208 -64 OFFCURVE",
"-212 -66 OFFCURVE",
"-212 -70 CURVE",
"-214 -81 OFFCURVE",
"-215 -92 OFFCURVE",
"-215 -102 CURVE SMOOTH",
"-215 -195 OFFCURVE",
"-136 -228 OFFCURVE",
"-48 -228 CURVE SMOOTH"
);
},
{
closed = 1;
nodes = (
"239 -12 OFFCURVE",
"208 -6 OFFCURVE",
"180 6 CURVE SMOOTH",
"92 43 OFFCURVE",
"57 116 OFFCURVE",
"57 198 CURVE SMOOTH",
"57 253 OFFCURVE",
"73 311 OFFCURVE",
"99 366 CURVE",
"115 329 OFFCURVE",
"141 297 OFFCURVE",
"179 276 CURVE",
"176 267 OFFCURVE",
"175 258 OFFCURVE",
"175 250 CURVE SMOOTH",
"175 209 OFFCURVE",
"207 175 OFFCURVE",
"261 175 CURVE SMOOTH",
"291 175 OFFCURVE",
"326 185 OFFCURVE",
"366 210 CURVE SMOOTH",
"433 252 OFFCURVE",
"476 299 OFFCURVE",
"502 346 CURVE",
"536 348 OFFCURVE",
"571 351 OFFCURVE",
"605 354 CURVE",
"531 259 OFFCURVE",
"457 161 OFFCURVE",
"385 74 CURVE SMOOTH",
"363 47 OFFCURVE",
"340 19 OFFCURVE",
"316 -9 CURVE",
"301 -11 OFFCURVE",
"287 -12 OFFCURVE",
"273 -12 CURVE SMOOTH"
);
},
{
closed = 1;
nodes = (
"232 188 OFFCURVE",
"216 203 OFFCURVE",
"216 223 CURVE SMOOTH",
"216 233 OFFCURVE",
"220 244 OFFCURVE",
"228 256 CURVE",
"254 248 OFFCURVE",
"285 245 OFFCURVE",
"318 246 CURVE SMOOTH",
"325 246 OFFCURVE",
"328 248 OFFCURVE",
"328 251 CURVE SMOOTH",
"328 253 OFFCURVE",
"324 256 OFFCURVE",
"317 256 CURVE SMOOTH",
"286 255 OFFCURVE",
"259 258 OFFCURVE",
"235 265 CURVE",
"263 297 OFFCURVE",
"322 329 OFFCURVE",
"419 338 CURVE SMOOTH",
"487 344 LINE",
"462 303 OFFCURVE",
"421 260 OFFCURVE",
"358 222 CURVE SMOOTH",
"318 198 OFFCURVE",
"285 188 OFFCURVE",
"261 188 CURVE SMOOTH"
);
},
{
closed = 1;
nodes = (
"381 20 OFFCURVE",
"396 38 OFFCURVE",
"411 55 CURVE SMOOTH",
"491 149 OFFCURVE",
"574 257 OFFCURVE",
"655 359 CURVE",
"732 368 LINE",
"720 343 OFFCURVE",
"706 316 OFFCURVE",
"689 288 CURVE SMOOTH",
"590 124 OFFCURVE",
"471 35 OFFCURVE",
"365 3 CURVE"
);
},
{
closed = 1;
nodes = (
"147 313 OFFCURVE",
"124 350 OFFCURVE",
"113 393 CURVE",
"191 532 OFFCURVE",
"299 590 OFFCURVE",
"384 590 CURVE SMOOTH",
"463 590 OFFCURVE",
"522 541 OFFCURVE",
"522 461 CURVE SMOOTH",
"522 440 OFFCURVE",
"518 416 OFFCURVE",
"509 391 CURVE",
"462 389 OFFCURVE",
"416 386 OFFCURVE",
"372 382 CURVE SMOOTH",
"265 371 OFFCURVE",
"206 331 OFFCURVE",
"185 288 CURVE"
);
},
{
closed = 1;
nodes = (
"531 417 OFFCURVE",
"535 442 OFFCURVE",
"535 464 CURVE SMOOTH",
"535 555 OFFCURVE",
"465 609 OFFCURVE",
"377 609 CURVE SMOOTH",
"290 609 OFFCURVE",
"184 557 OFFCURVE",
"107 433 CURVE",
"96 585 OFFCURVE",
"229 779 OFFCURVE",
"479 779 CURVE SMOOTH",
"631 779 OFFCURVE",
"756 701 OFFCURVE",
"770 558 CURVE",
"727 508 OFFCURVE",
"683 453 OFFCURVE",
"638 396 CURVE",
"522 391 LINE"
);
},
{
closed = 1;
nodes = (
"715 434 OFFCURVE",
"742 468 OFFCURVE",
"769 500 CURVE",
"766 470 OFFCURVE",
"759 438 OFFCURVE",
"746 404 CURVE",
"687 399 LINE"
);
},
{
closed = 1;
nodes = (
"1222 -303 OFFCURVE",
"1261 -289 OFFCURVE",
"1301 -258 CURVE SMOOTH",
"1307 -253 OFFCURVE",
"1303 -244 OFFCURVE",
"1297 -244 CURVE SMOOTH",
"1295 -244 OFFCURVE",
"1294 -245 OFFCURVE",
"1292 -246 CURVE",
"1256 -273 OFFCURVE",
"1219 -286 OFFCURVE",
"1187 -286 CURVE SMOOTH",
"1129 -286 OFFCURVE",
"1085 -245 OFFCURVE",
"1085 -168 CURVE SMOOTH",
"1085 -161 OFFCURVE",
"1085 -154 OFFCURVE",
"1086 -147 CURVE SMOOTH",
"1089 -124 LINE",
"1193 -107 OFFCURVE",
"1290 -56 OFFCURVE",
"1366 17 CURVE SMOOTH",
"1408 58 OFFCURVE",
"1463 127 OFFCURVE",
"1490 195 CURVE SMOOTH",
"1503 228 OFFCURVE",
"1508 254 OFFCURVE",
"1508 275 CURVE SMOOTH",
"1508 320 OFFCURVE",
"1483 338 OFFCURVE",
"1447 338 CURVE SMOOTH",
"1428 338 OFFCURVE",
"1406 332 OFFCURVE",
"1383 323 CURVE",
"1384 333 OFFCURVE",
"1384 343 OFFCURVE",
"1384 353 CURVE SMOOTH",
"1384 408 OFFCURVE",
"1371 463 OFFCURVE",
"1349 514 CURVE",
"1455 531 OFFCURVE",
"1566 570 OFFCURVE",
"1615 650 CURVE SMOOTH",
"1625 667 OFFCURVE",
"1630 683 OFFCURVE",
"1630 699 CURVE SMOOTH",
"1630 757 OFFCURVE",
"1564 804 OFFCURVE",
"1458 804 CURVE SMOOTH",
"1365 804 OFFCURVE",
"1259 779 OFFCURVE",
"1168 734 CURVE",
"1087 795 OFFCURVE",
"1014 819 OFFCURVE",
"957 819 CURVE SMOOTH",
"872 819 OFFCURVE",
"819 767 OFFCURVE",
"819 706 CURVE SMOOTH",
"819 649 OFFCURVE",
"866 582 OFFCURVE",
"977 542 CURVE",
"975 537 LINE SMOOTH",
"968 519 OFFCURVE",
"966 502 OFFCURVE",
"966 487 CURVE SMOOTH",
"966 456 OFFCURVE",
"977 429 OFFCURVE",
"995 408 CURVE",
"863 351 OFFCURVE",
"747 243 OFFCURVE",
"737 105 CURVE SMOOTH",
"729 -8 OFFCURVE",
"841 -127 OFFCURVE",
"1004 -130 CURVE SMOOTH",
"1027 -131 OFFCURVE",
"1050 -130 OFFCURVE",
"1073 -127 CURVE",
"1071 -139 OFFCURVE",
"1070 -151 OFFCURVE",
"1070 -162 CURVE SMOOTH",
"1070 -248 OFFCURVE",
"1120 -303 OFFCURVE",
"1187 -303 CURVE SMOOTH"
);
},
{
closed = 1;
nodes = (
"905 -109 OFFCURVE",
"830 1 OFFCURVE",
"830 123 CURVE SMOOTH",
"830 227 OFFCURVE",
"885 339 OFFCURVE",
"1005 397 CURVE",
"1034 369 OFFCURVE",
"1078 351 OFFCURVE",
"1128 346 CURVE SMOOTH",
"1138 345 OFFCURVE",
"1149 344 OFFCURVE",
"1158 344 CURVE SMOOTH",
"1232 344 OFFCURVE",
"1278 379 OFFCURVE",
"1278 409 CURVE SMOOTH",
"1278 431 OFFCURVE",
"1251 451 OFFCURVE",
"1190 451 CURVE SMOOTH",
"1146 451 OFFCURVE",
"1099 444 OFFCURVE",
"1052 429 CURVE",
"1044 446 OFFCURVE",
"1041 467 OFFCURVE",
"1043 492 CURVE SMOOTH",
"1044 502 OFFCURVE",
"1046 512 OFFCURVE",
"1048 522 CURVE",
"1098 511 OFFCURVE",
"1158 505 OFFCURVE",
"1228 505 CURVE SMOOTH",
"1260 505 OFFCURVE",
"1296 507 OFFCURVE",
"1334 512 CURVE",
"1356 461 OFFCURVE",
"1370 405 OFFCURVE",
"1370 350 CURVE SMOOTH",
"1370 338 OFFCURVE",
"1369 327 OFFCURVE",
"1368 315 CURVE",
"1356 309 OFFCURVE",
"1344 302 OFFCURVE",
"1332 294 CURVE SMOOTH",
"1256 242 OFFCURVE",
"1183 154 OFFCURVE",
"1134 56 CURVE",
"1124 55 OFFCURVE",
"1114 54 OFFCURVE",
"1104 54 CURVE SMOOTH",
"1035 54 OFFCURVE",
"982 90 OFFCURVE",
"982 143 CURVE SMOOTH",
"982 155 OFFCURVE",
"984 168 OFFCURVE",
"990 182 CURVE SMOOTH",
"993 188 OFFCURVE",
"988 192 OFFCURVE",
"983 192 CURVE SMOOTH",
"980 192 OFFCURVE",
"977 191 OFFCURVE",
"976 188 CURVE SMOOTH",
"969 172 OFFCURVE",
"966 157 OFFCURVE",
"966 143 CURVE SMOOTH",
"966 80 OFFCURVE",
"1027 39 OFFCURVE",
"1105 39 CURVE SMOOTH",
"1112 39 OFFCURVE",
"1119 39 OFFCURVE",
"1126 40 CURVE",
"1103 -8 OFFCURVE",
"1085 -58 OFFCURVE",
"1077 -107 CURVE",
"1064 -108 OFFCURVE",
"1052 -109 OFFCURVE",
"1040 -109 CURVE SMOOTH"
);
},
{
closed = 1;
nodes = (
"1102 -58 OFFCURVE",
"1120 -7 OFFCURVE",
"1145 43 CURVE",
"1213 55 OFFCURVE",
"1288 99 OFFCURVE",
"1340 187 CURVE SMOOTH",
"1363 225 OFFCURVE",
"1376 265 OFFCURVE",
"1382 307 CURVE",
"1402 317 OFFCURVE",
"1421 323 OFFCURVE",
"1436 323 CURVE SMOOTH",
"1457 323 OFFCURVE",
"1470 311 OFFCURVE",
"1470 283 CURVE SMOOTH",
"1470 263 OFFCURVE",
"1463 235 OFFCURVE",
"1448 197 CURVE SMOOTH",
"1391 56 OFFCURVE",
"1245 -78 OFFCURVE",
"1092 -104 CURVE"
);
},
{
closed = 1;
nodes = (
"1200 149 OFFCURVE",
"1264 237 OFFCURVE",
"1342 284 CURVE SMOOTH",
"1365 298 LINE",
"1359 262 OFFCURVE",
"1347 228 OFFCURVE",
"1328 195 CURVE SMOOTH",
"1281 116 OFFCURVE",
"1215 75 OFFCURVE",
"1153 60 CURVE"
);
},
{
closed = 1;
nodes = (
"1130 362 OFFCURVE",
"1082 378 OFFCURVE",
"1058 417 CURVE",
"1097 430 OFFCURVE",
"1141 436 OFFCURVE",
"1192 436 CURVE SMOOTH",
"1214 436 OFFCURVE",
"1263 432 OFFCURVE",
"1263 409 CURVE SMOOTH",
"1263 381 OFFCURVE",
"1220 362 OFFCURVE",
"1173 362 CURVE SMOOTH"
);
},
{
closed = 1;
nodes = (
"887 589 OFFCURVE",
"847 642 OFFCURVE",
"847 689 CURVE SMOOTH",
"847 743 OFFCURVE",
"898 788 OFFCURVE",
"977 788 CURVE SMOOTH",
"1026 788 OFFCURVE",
"1087 771 OFFCURVE",
"1152 726 CURVE",
"1075 684 OFFCURVE",
"1011 626 OFFCURVE",
"982 555 CURVE"
);
},
{
closed = 1;
nodes = (
"1158 520 OFFCURVE",
"1100 526 OFFCURVE",
"1051 536 CURVE",
"1070 606 OFFCURVE",
"1119 663 OFFCURVE",
"1181 705 CURVE",
"1183 703 LINE SMOOTH",
"1199 687 OFFCURVE",
"1218 673 OFFCURVE",
"1237 655 CURVE SMOOTH",
"1272 619 OFFCURVE",
"1303 576 OFFCURVE",
"1327 528 CURVE",
"1296 523 OFFCURVE",
"1263 520 OFFCURVE",
"1228 520 CURVE SMOOTH"
);
},
{
closed = 1;
nodes = (
"1318 581 OFFCURVE",
"1285 628 OFFCURVE",
"1247 665 CURVE SMOOTH",
"1230 683 OFFCURVE",
"1212 699 OFFCURVE",
"1195 713 CURVE",
"1274 762 OFFCURVE",
"1373 789 OFFCURVE",
"1463 789 CURVE SMOOTH",
"1537 789 OFFCURVE",
"1572 756 OFFCURVE",
"1572 713 CURVE SMOOTH",
"1572 648 OFFCURVE",
"1492 561 OFFCURVE",
"1342 531 CURVE"
);
}
);
width = 1539;
}
);
leftKerningGroup = A;
note = AE;
rightKerningGroup = E;
unicode = 00C6;
},
{
color = 9;
glyphname = B;
lastChange = "2021-11-19 15:58:07 +0000";
layers = (
{
background = {
paths = (
{
closed = 1;
nodes = (
"34 -263 OFFCURVE",
"128 -211 OFFCURVE",
"208 -138 CURVE",
"275 -180 OFFCURVE",
"360 -202 OFFCURVE",
"465 -196 CURVE SMOOTH",
"471 -196 OFFCURVE",
"471 -186 OFFCURVE",
"464 -186 CURVE SMOOTH",
"364 -192 OFFCURVE",
"283 -169 OFFCURVE",
"221 -127 CURVE",
"259 -91 OFFCURVE",
"295 -50 OFFCURVE",
"327 -6 CURVE",
"367 -38 OFFCURVE",
"424 -59 OFFCURVE",
"502 -61 CURVE SMOOTH",
"880 -72 OFFCURVE",
"1004 279 OFFCURVE",
"800 401 CURVE",
"999 525 OFFCURVE",
"1043 812 OFFCURVE",
"658 812 CURVE SMOOTH",
"48 812 OFFCURVE",
"-123 137 OFFCURVE",
"168 -109 CURVE",
"106 -179 OFFCURVE",
"35 -236 OFFCURVE",
"-45 -261 CURVE SMOOTH",
"-161 -297 OFFCURVE",
"-325 -266 OFFCURVE",
"-307 -133 CURVE SMOOTH",
"-306 -124 OFFCURVE",
"-319 -123 OFFCURVE",
"-320 -132 CURVE SMOOTH",
"-345 -282 OFFCURVE",
"-197 -301 OFFCURVE",
"-72 -280 CURVE SMOOTH"
);
},
{
closed = 1;
nodes = (
"427 -49 OFFCURVE",
"371 -28 OFFCURVE",
"333 3 CURVE",
"387 77 OFFCURVE",
"432 160 OFFCURVE",
"469 244 CURVE SMOOTH",
"488 288 OFFCURVE",
"508 330 OFFCURVE",
"528 370 CURVE",
"537 356 OFFCURVE",
"561 346 OFFCURVE",
"606 346 CURVE SMOOTH",
"665 346 OFFCURVE",
"721 360 OFFCURVE",
"769 384 CURVE",
"904 260 OFFCURVE",
"795 -59 OFFCURVE",
"502 -51 CURVE SMOOTH"
);
},
{
closed = 1;
nodes = (
"-82 152 OFFCURVE",
"86 802 OFFCURVE",
"658 802 CURVE SMOOTH",
"966 802 OFFCURVE",
"914 542 OFFCURVE",
"765 419 CURVE",
"727 434 OFFCURVE",
"681 443 OFFCURVE",
"626 443 CURVE SMOOTH",
"599 443 OFFCURVE",
"575 436 OFFCURVE",
"557 426 CURVE",
"650 599 OFFCURVE",
"750 717 OFFCURVE",
"826 695 CURVE SMOOTH",
"832 693 OFFCURVE",
"835 703 OFFCURVE",
"829 705 CURVE SMOOTH",
"713 737 OFFCURVE",
"573 569 OFFCURVE",
"419 291 CURVE SMOOTH",
"383 225 OFFCURVE",
"339 141 OFFCURVE",
"288 58 CURVE",
"234 156 OFFCURVE",
"277 291 OFFCURVE",
"360 335 CURVE SMOOTH",
"366 338 OFFCURVE",
"361 347 OFFCURVE",
"355 343 CURVE",
"267 297 OFFCURVE",
"221 151 OFFCURVE",
"281 47 CURVE",
"250 -2 OFFCURVE",
"217 -50 OFFCURVE",
"180 -94 CURVE"
);
},
{
closed = 1;
nodes = (
"556 356 OFFCURVE",
"535 368 OFFCURVE",
"534 383 CURVE",
"546 406 LINE",
"562 421 OFFCURVE",
"592 433 OFFCURVE",
"626 433 CURVE SMOOTH",
"674 433 OFFCURVE",
"713 422 OFFCURVE",
"744 403 CURVE",
"702 374 OFFCURVE",
"655 356 OFFCURVE",
"606 356 CURVE SMOOTH"
);
}
);
};
layerId = "32B14CDE-4F96-422E-BD5E-1145416534B1";
paths = (
{
closed = 1;
nodes = (
"-126 -287 OFFCURVE",
"-98 -284 OFFCURVE",
"-72 -280 CURVE SMOOTH",
"34 -263 OFFCURVE",
"128 -211 OFFCURVE",
"208 -138 CURVE",
"268 -175 OFFCURVE",
"342 -197 OFFCURVE",
"431 -197 CURVE SMOOTH",
"442 -197 OFFCURVE",
"454 -197 OFFCURVE",
"465 -196 CURVE SMOOTH",
"471 -196 OFFCURVE",
"471 -186 OFFCURVE",
"464 -186 CURVE SMOOTH",
"453 -187 OFFCURVE",
"443 -187 OFFCURVE",
"433 -187 CURVE SMOOTH",
"347 -187 OFFCURVE",
"276 -165 OFFCURVE",
"221 -127 CURVE",
"259 -91 OFFCURVE",
"295 -50 OFFCURVE",
"327 -6 CURVE",
"370 -40 OFFCURVE",
"432 -61 OFFCURVE",
"518 -61 CURVE SMOOTH",
"764 -61 OFFCURVE",
"898 93 OFFCURVE",
"898 231 CURVE SMOOTH",
"898 298 OFFCURVE",
"866 362 OFFCURVE",
"800 401 CURVE",
"891 458 OFFCURVE",
"950 548 OFFCURVE",
"950 630 CURVE SMOOTH",
"950 727 OFFCURVE",
"867 812 OFFCURVE",
"658 812 CURVE SMOOTH",
"242 812 OFFCURVE",
"30 498 OFFCURVE",
"30 220 CURVE SMOOTH",
"30 90 OFFCURVE",
"76 -31 OFFCURVE",
"168 -109 CURVE",
"106 -179 OFFCURVE",
"35 -236 OFFCURVE",
"-45 -261 CURVE SMOOTH",
"-74 -270 OFFCURVE",
"-106 -275 OFFCURVE",
"-138 -275 CURVE SMOOTH",
"-225 -275 OFFCURVE",
"-308 -238 OFFCURVE",
"-308 -153 CURVE SMOOTH",
"-308 -145 OFFCURVE",
"-307 -139 OFFCURVE",
"-307 -131 CURVE SMOOTH",
"-307 -128 OFFCURVE",
"-310 -126 OFFCURVE",
"-313 -126 CURVE SMOOTH",
"-316 -126 OFFCURVE",
"-320 -128 OFFCURVE",
"-320 -132 CURVE",
"-322 -143 OFFCURVE",
"-323 -154 OFFCURVE",
"-323 -164 CURVE SMOOTH",
"-323 -257 OFFCURVE",
"-242 -287 OFFCURVE",
"-153 -287 CURVE SMOOTH"
);
},
{
closed = 1;
nodes = (
"432 -51 OFFCURVE",
"373 -29 OFFCURVE",
"333 3 CURVE",
"387 77 OFFCURVE",
"432 160 OFFCURVE",
"469 244 CURVE SMOOTH",
"488 288 OFFCURVE",
"508 330 OFFCURVE",
"528 370 CURVE",
"537 356 OFFCURVE",
"561 346 OFFCURVE",
"606 346 CURVE SMOOTH",
"665 346 OFFCURVE",
"721 360 OFFCURVE",
"769 384 CURVE",
"808 348 OFFCURVE",
"826 297 OFFCURVE",
"826 242 CURVE SMOOTH",
"826 107 OFFCURVE",
"715 -51 OFFCURVE",
"513 -51 CURVE SMOOTH"
);
},
{
closed = 1;
nodes = (
"99 -18 OFFCURVE",
"60 95 OFFCURVE",
"60 217 CURVE SMOOTH",
"60 490 OFFCURVE",
"262 802 OFFCURVE",
"658 802 CURVE SMOOTH",
"821 802 OFFCURVE",
"884 729 OFFCURVE",
"884 642 CURVE SMOOTH",
"884 565 OFFCURVE",
"835 477 OFFCURVE",
"765 419 CURVE",
"727 434 OFFCURVE",
"681 443 OFFCURVE",
"626 443 CURVE SMOOTH",
"599 443 OFFCURVE",
"575 436 OFFCURVE",
"557 426 CURVE",
"643 585 OFFCURVE",
"734 698 OFFCURVE",
"807 698 CURVE SMOOTH",
"814 698 OFFCURVE",
"820 697 OFFCURVE",
"826 695 CURVE SMOOTH",
"830 694 OFFCURVE",
"832 697 OFFCURVE",
"832 700 CURVE SMOOTH",
"832 702 OFFCURVE",
"831 704 OFFCURVE",
"829 705 CURVE SMOOTH",
"820 708 OFFCURVE",
"810 709 OFFCURVE",
"800 709 CURVE SMOOTH",
"690 709 OFFCURVE",
"560 546 OFFCURVE",
"419 291 CURVE SMOOTH",
"383 225 OFFCURVE",
"339 141 OFFCURVE",
"288 58 CURVE",
"271 88 OFFCURVE",
"264 121 OFFCURVE",
"264 155 CURVE SMOOTH",
"264 230 OFFCURVE",
"302 304 OFFCURVE",
"360 335 CURVE SMOOTH",
"365 337 OFFCURVE",
"362 344 OFFCURVE",
"358 344 CURVE SMOOTH",
"357 344 OFFCURVE",
"356 344 OFFCURVE",
"355 343 CURVE",
"295 311 OFFCURVE",
"254 232 OFFCURVE",
"254 152 CURVE SMOOTH",
"254 116 OFFCURVE",
"262 80 OFFCURVE",
"281 47 CURVE",
"250 -2 OFFCURVE",
"217 -50 OFFCURVE",
"180 -94 CURVE"
);
},
{
closed = 1;
nodes = (
"556 356 OFFCURVE",
"535 368 OFFCURVE",
"534 383 CURVE",
"546 406 LINE",
"562 421 OFFCURVE",
"592 433 OFFCURVE",
"626 433 CURVE SMOOTH",
"674 433 OFFCURVE",
"713 422 OFFCURVE",
"744 403 CURVE",
"702 374 OFFCURVE",
"655 356 OFFCURVE",
"606 356 CURVE SMOOTH"
);
}
);
width = 907;
}
);
note = B;
unicode = 0042;
},
{
color = 9;
glyphname = C;
lastChange = "2021-11-23 21:03:55 +0000";
layers = (
{
anchors = (
{
name = bottom;
position = "{251, -67}";
},
{
name = top;
position = "{789, 762}";
}
);
background = {
paths = (
{
closed = 1;
nodes = (
"570 39 OFFCURVE",
"651 120 OFFCURVE",
"695 197 CURVE SMOOTH",
"700 205 OFFCURVE",
"687 212 OFFCURVE",
"683 204 CURVE SMOOTH",
"644 137 OFFCURVE",
"560 56 OFFCURVE",
"467 2 CURVE SMOOTH",
"277 -108 OFFCURVE",
"139 -52 OFFCURVE",
"142 120 CURVE",
"351 9 OFFCURVE",
"651 127 OFFCURVE",
"622 357 CURVE SMOOTH",
"621 370 OFFCURVE",
"618 383 OFFCURVE",
"615 395 CURVE",
"639 404 OFFCURVE",
"661 414 OFFCURVE",
"682 425 CURVE SMOOTH",
"967 577 OFFCURVE",
"961 862 OFFCURVE",
"590 723 CURVE SMOOTH",
"541 705 OFFCURVE",
"491 680 OFFCURVE",
"442 651 CURVE",
"427 663 OFFCURVE",
"412 673 OFFCURVE",
"397 683 CURVE SMOOTH",
"140 846 OFFCURVE",
"-52 693 OFFCURVE",
"37 545 CURVE SMOOTH",
"46 530 LINE",
"45 528 LINE",
"-28 436 OFFCURVE",
"-49 281 OFFCURVE",
"69 172 CURVE",
"46 -54 OFFCURVE",
"263 -139 OFFCURVE",
"478 -14 CURVE SMOOTH"
);
},
{
closed = 1;
nodes = (
"-13 307 OFFCURVE",
"-8 434 OFFCURVE",
"52 509 CURVE SMOOTH",
"56 514 LINE",
"86 471 OFFCURVE",
"125 438 OFFCURVE",
"170 413 CURVE",
"138 372 OFFCURVE",
"113 329 OFFCURVE",
"97 288 CURVE SMOOTH",
"87 261 OFFCURVE",
"80 236 OFFCURVE",
"75 212 CURVE"
);
},
{
closed = 1;
nodes = (
"156 149 OFFCURVE",
"150 152 OFFCURVE",
"145 156 CURVE",
"148 186 OFFCURVE",
"156 220 OFFCURVE",
"167 257 CURVE SMOOTH",
"182 301 OFFCURVE",
"203 345 OFFCURVE",
"229 386 CURVE",
"345 345 OFFCURVE",
"484 351 OFFCURVE",
"601 390 CURVE",
"605 369 LINE SMOOTH",
"647 146 OFFCURVE",
"372 32 OFFCURVE",
"161 146 CURVE SMOOTH"
);
},
{
closed = 1;
nodes = (
"140 455 OFFCURVE",
"103 489 OFFCURVE",
"74 532 CURVE SMOOTH",
"72 535 LINE",
"116 583 OFFCURVE",
"177 605 OFFCURVE",
"231 585 CURVE SMOOTH",
"240 581 OFFCURVE",
"247 590 OFFCURVE",
"238 594 CURVE SMOOTH",
"180 620 OFFCURVE",
"113 599 OFFCURVE",
"64 550 CURVE",
"-16 699 OFFCURVE",
"188 795 OFFCURVE",
"389 659 CURVE SMOOTH",
"420 638 LINE",
"330 580 OFFCURVE",
"245 507 OFFCURVE",
"183 430 CURVE"
);
},
{
closed = 1;
nodes = (
"295 484 OFFCURVE",
"370 557 OFFCURVE",
"450 615 CURVE",
"516 560 OFFCURVE",
"573 487 OFFCURVE",
"597 405 CURVE",
"486 367 OFFCURVE",
"352 361 OFFCURVE",
"240 403 CURVE"
);
},
{
closed = 1;
nodes = (
"587 492 OFFCURVE",
"533 570 OFFCURVE",
"469 628 CURVE",
"510 657 OFFCURVE",
"553 681 OFFCURVE",
"596 699 CURVE SMOOTH",
"933 847 OFFCURVE",
"936 584 OFFCURVE",
"672 439 CURVE SMOOTH",
"653 428 OFFCURVE",
"633 419 OFFCURVE",
"611 410 CURVE"
);
}
);
};
layerId = "32B14CDE-4F96-422E-BD5E-1145416534B1";
paths = (
{
closed = 1;
nodes = (
"343 -72 OFFCURVE",
"411 -53 OFFCURVE",
"478 -14 CURVE SMOOTH",
"570 39 OFFCURVE",
"651 120 OFFCURVE",
"695 197 CURVE SMOOTH",
"698 203 OFFCURVE",
"693 208 OFFCURVE",
"689 208 CURVE SMOOTH",
"686 208 OFFCURVE",
"684 206 OFFCURVE",
"683 204 CURVE SMOOTH",
"644 137 OFFCURVE",
"560 56 OFFCURVE",
"467 2 CURVE SMOOTH",
"401 -36 OFFCURVE",
"340 -55 OFFCURVE",
"291 -55 CURVE SMOOTH",
"198 -55 OFFCURVE",
"140 8 OFFCURVE",
"142 120 CURVE",
"196 91 OFFCURVE",
"257 78 OFFCURVE",
"316 78 CURVE SMOOTH",
"474 78 OFFCURVE",
"624 174 OFFCURVE",
"624 326 CURVE SMOOTH",
"624 336 OFFCURVE",
"623 347 OFFCURVE",
"622 357 CURVE SMOOTH",
"621 370 OFFCURVE",
"618 383 OFFCURVE",
"615 395 CURVE",
"639 404 OFFCURVE",
"661 414 OFFCURVE",
"682 425 CURVE SMOOTH",
"814 495 OFFCURVE",
"883 594 OFFCURVE",
"883 666 CURVE SMOOTH",
"883 721 OFFCURVE",
"843 760 OFFCURVE",
"760 760 CURVE SMOOTH",
"716 760 OFFCURVE",
"659 749 OFFCURVE",
"590 723 CURVE SMOOTH",
"541 705 OFFCURVE",
"491 680 OFFCURVE",
"442 651 CURVE",
"427 663 OFFCURVE",
"412 673 OFFCURVE",
"397 683 CURVE SMOOTH",
"319 733 OFFCURVE",
"246 753 OFFCURVE",
"186 753 CURVE SMOOTH",
"83 753 OFFCURVE",
"15 693 OFFCURVE",
"15 619 CURVE SMOOTH",
"15 595 OFFCURVE",
"22 570 OFFCURVE",
"37 545 CURVE SMOOTH",
"46 530 LINE",
"45 528 LINE",
"9 482 OFFCURVE",
"-15 421 OFFCURVE",
"-15 358 CURVE SMOOTH",
"-15 294 OFFCURVE",
"10 227 OFFCURVE",
"69 172 CURVE",
"68 161 OFFCURVE",
"67 150 OFFCURVE",
"67 139 CURVE SMOOTH",
"67 5 OFFCURVE",
"160 -72 OFFCURVE",
"282 -72 CURVE SMOOTH"
);
},
{
closed = 1;
nodes = (
"28 262 OFFCURVE",
"8 322 OFFCURVE",
"8 378 CURVE SMOOTH",
"8 427 OFFCURVE",
"24 474 OFFCURVE",
"52 509 CURVE SMOOTH",
"56 514 LINE",
"86 471 OFFCURVE",
"125 438 OFFCURVE",
"170 413 CURVE",
"138 372 OFFCURVE",
"113 329 OFFCURVE",
"97 288 CURVE SMOOTH",
"87 261 OFFCURVE",
"80 236 OFFCURVE",
"75 212 CURVE"
);
},
{
closed = 1;
nodes = (
"279 101 OFFCURVE",
"218 115 OFFCURVE",
"161 146 CURVE SMOOTH",
"156 149 OFFCURVE",
"150 152 OFFCURVE",
"145 156 CURVE",
"148 186 OFFCURVE",
"156 220 OFFCURVE",
"167 257 CURVE SMOOTH",
"182 301 OFFCURVE",
"203 345 OFFCURVE",
"229 386 CURVE",
"283 367 OFFCURVE",
"343 358 OFFCURVE",
"403 358 CURVE SMOOTH",
"471 358 OFFCURVE",
"539 369 OFFCURVE",
"601 390 CURVE",
"605 369 LINE SMOOTH",
"608 353 OFFCURVE",
"609 338 OFFCURVE",
"609 324 CURVE SMOOTH",
"609 187 OFFCURVE",
"482 101 OFFCURVE",
"338 101 CURVE SMOOTH"
);
},
{
closed = 1;
nodes = (
"140 455 OFFCURVE",
"103 489 OFFCURVE",
"74 532 CURVE SMOOTH",
"72 535 LINE",
"105 571 OFFCURVE",
"148 592 OFFCURVE",
"190 592 CURVE SMOOTH",
"204 592 OFFCURVE",
"218 590 OFFCURVE",
"231 585 CURVE SMOOTH",
"237 582 OFFCURVE",
"242 585 OFFCURVE",
"242 589 CURVE SMOOTH",
"242 591 OFFCURVE",
"241 593 OFFCURVE",
"238 594 CURVE SMOOTH",
"221 602 OFFCURVE",
"203 605 OFFCURVE",
"185 605 CURVE SMOOTH",
"142 605 OFFCURVE",
"99 585 OFFCURVE",
"64 550 CURVE",
"52 573 OFFCURVE",
"46 594 OFFCURVE",
"46 614 CURVE SMOOTH",
"46 680 OFFCURVE",
"109 724 OFFCURVE",
"196 724 CURVE SMOOTH",
"253 724 OFFCURVE",
"321 705 OFFCURVE",
"389 659 CURVE SMOOTH",
"420 638 LINE",
"330 580 OFFCURVE",
"245 507 OFFCURVE",
"183 430 CURVE"
);
},
{
closed = 1;
nodes = (
"351 374 OFFCURVE",
"293 383 OFFCURVE",
"240 403 CURVE",
"295 484 OFFCURVE",
"370 557 OFFCURVE",
"450 615 CURVE",
"516 560 OFFCURVE",
"573 487 OFFCURVE",
"597 405 CURVE",
"539 385 OFFCURVE",
"474 374 OFFCURVE",
"410 374 CURVE SMOOTH"
);
},
{
closed = 1;
nodes = (
"587 492 OFFCURVE",
"533 570 OFFCURVE",
"469 628 CURVE",
"510 657 OFFCURVE",
"553 681 OFFCURVE",
"596 699 CURVE SMOOTH",
"666 730 OFFCURVE",
"722 743 OFFCURVE",
"763 743 CURVE SMOOTH",
"829 743 OFFCURVE",
"860 711 OFFCURVE",
"860 665 CURVE SMOOTH",
"860 600 OFFCURVE",
"795 507 OFFCURVE",
"672 439 CURVE SMOOTH",
"653 428 OFFCURVE",
"633 419 OFFCURVE",
"611 410 CURVE"
);
}
);
width = 710;
}
);
leftKerningGroup = C;
note = C;
rightKerningGroup = C;
unicode = 0043;
},
{
color = 9;
glyphname = D;
lastChange = "2021-11-23 21:04:04 +0000";
layers = (
{
anchors = (
{
name = bottom;
position = "{495, 0}";
},
{
name = center;
position = "{495, 400}";
},
{
name = top;
position = "{926, 740}";
}
);
background = {
paths = (
{
closed = 1;
nodes = (
"96 -313 OFFCURVE",
"449 -325 OFFCURVE",
"539 -69 CURVE",
"789 -36 OFFCURVE",
"1025 181 OFFCURVE",
"1040 444 CURVE SMOOTH",
"1054 690 OFFCURVE",
"833 825 OFFCURVE",
"590 821 CURVE SMOOTH",
"132 813 OFFCURVE",
"-42 453 OFFCURVE",
"78 308 CURVE",
"73 290 OFFCURVE",
"69 270 OFFCURVE",
"69 248 CURVE SMOOTH",
"67 129 OFFCURVE",
"146 36 OFFCURVE",
"250 -18 CURVE",
"220 -51 OFFCURVE",
"185 -78 OFFCURVE",
"141 -92 CURVE SMOOTH",
"112 -101 OFFCURVE",
"79 -105 OFFCURVE",
"47 -103 CURVE",
"44 -89 OFFCURVE",
"41 -74 OFFCURVE",
"41 -58 CURVE SMOOTH",
"41 -44 OFFCURVE",
"45 -28 OFFCURVE",
"60 -23 CURVE SMOOTH",
"89 -13 OFFCURVE",
"26 13 OFFCURVE",
"26 -58 CURVE SMOOTH",
"26 -73 OFFCURVE",
"28 -88 OFFCURVE",
"31 -101 CURVE",
"-35 -93 OFFCURVE",
"-89 -57 OFFCURVE",
"-80 16 CURVE SMOOTH",
"-79 23 OFFCURVE",
"-94 24 OFFCURVE",
"-95 17 CURVE SMOOTH",
"-111 -74 OFFCURVE",
"-43 -111 OFFCURVE",
"35 -119 CURVE"
);
},
{
closed = 1;
nodes = (
"79 -121 OFFCURVE",
"104 -119 OFFCURVE",
"128 -115 CURVE SMOOTH",
"198 -104 OFFCURVE",
"253 -76 OFFCURVE",
"297 -39 CURVE",
"351 -61 OFFCURVE",
"409 -72 OFFCURVE",
"464 -74 CURVE SMOOTH",
"483 -74 OFFCURVE",
"503 -73 OFFCURVE",
"522 -71 CURVE",
"437 -294 OFFCURVE",
"119 -281 OFFCURVE",
"53 -120 CURVE"
);
},
{
closed = 1;
nodes = (
"165 49 OFFCURVE",
"92 136 OFFCURVE",
"100 246 CURVE SMOOTH",
"101 259 OFFCURVE",
"103 271 OFFCURVE",
"106 282 CURVE",
"137 260 OFFCURVE",
"180 247 OFFCURVE",
"235 248 CURVE SMOOTH",
"300 250 OFFCURVE",
"365 289 OFFCURVE",
"388 365 CURVE",
"407 353 OFFCURVE",
"425 339 OFFCURVE",
"441 321 CURVE",
"402 243 OFFCURVE",
"365 164 OFFCURVE",
"321 86 CURVE SMOOTH",
"304 55 OFFCURVE",
"285 24 OFFCURVE",
"262 -4 CURVE"
);
},
{
closed = 1;
nodes = (
"412 -56 OFFCURVE",
"360 -45 OFFCURVE",
"312 -26 CURVE",
"392 48 OFFCURVE",
"434 153 OFFCURVE",
"469 234 CURVE SMOOTH",
"482 264 LINE",
"521 197 OFFCURVE",
"543 118 OFFCURVE",
"543 50 CURVE SMOOTH",
"543 11 OFFCURVE",
"537 -23 OFFCURVE",
"528 -54 CURVE",
"506 -57 OFFCURVE",
"483 -59 OFFCURVE",
"461 -58 CURVE SMOOTH"
);
},
{
closed = 1;
nodes = (
"179 267 OFFCURVE",
"142 287 OFFCURVE",
"119 317 CURVE",
"166 406 OFFCURVE",
"284 422 OFFCURVE",
"378 370 CURVE",
"356 300 OFFCURVE",
"288 265 OFFCURVE",
"231 266 CURVE SMOOTH"
);
},
{
closed = 1;
nodes = (
"554 -18 OFFCURVE",
"558 16 OFFCURVE",
"558 50 CURVE SMOOTH",
"558 125 OFFCURVE",
"533 210 OFFCURVE",
"490 281 CURVE",
"601 524 OFFCURVE",
"731 722 OFFCURVE",
"826 695 CURVE SMOOTH",
"832 693 OFFCURVE",
"835 703 OFFCURVE",
"829 705 CURVE SMOOTH",
"752 726 OFFCURVE",
"663 661 OFFCURVE",
"567 531 CURVE SMOOTH",
"521 468 OFFCURVE",
"483 402 OFFCURVE",
"449 335 CURVE",
"431 354 OFFCURVE",
"412 370 OFFCURVE",
"392 383 CURVE",
"394 391 OFFCURVE",
"395 400 OFFCURVE",
"395 409 CURVE SMOOTH",
"396 421 OFFCURVE",
"386 422 OFFCURVE",
"386 410 CURVE",
"383 389 LINE",
"280 451 OFFCURVE",
"158 436 OFFCURVE",
"101 354 CURVE",
"52 504 OFFCURVE",
"228 795 OFFCURVE",
"587 802 CURVE SMOOTH",
"789 806 OFFCURVE",
"965 688 OFFCURVE",
"965 440 CURVE SMOOTH",
"965 210 OFFCURVE",
"763 -10 OFFCURVE",
"544 -51 CURVE"
);
}
);
};
layerId = "32B14CDE-4F96-422E-BD5E-1145416534B1";
paths = (
{
closed = 1;
nodes = (
"374 -263 OFFCURVE",
"492 -202 OFFCURVE",
"539 -69 CURVE",
"789 -36 OFFCURVE",
"1025 181 OFFCURVE",
"1040 444 CURVE SMOOTH",
"1054 690 OFFCURVE",
"833 825 OFFCURVE",
"590 821 CURVE SMOOTH",
"226 815 OFFCURVE",
"41 586 OFFCURVE",
"41 419 CURVE SMOOTH",
"41 376 OFFCURVE",
"53 338 OFFCURVE",
"78 308 CURVE",
"73 289 OFFCURVE",
"69 267 OFFCURVE",
"69 244 CURVE SMOOTH",
"69 127 OFFCURVE",
"147 35 OFFCURVE",
"250 -18 CURVE",
"220 -51 OFFCURVE",
"185 -78 OFFCURVE",
"141 -92 CURVE SMOOTH",
"112 -101 OFFCURVE",
"79 -105 OFFCURVE",
"47 -103 CURVE",
"44 -89 OFFCURVE",
"41 -74 OFFCURVE",
"41 -58 CURVE SMOOTH",
"41 -44 OFFCURVE",
"45 -28 OFFCURVE",
"60 -23 CURVE SMOOTH",
"66 -21 OFFCURVE",
"68 -19 OFFCURVE",
"68 -16 CURVE SMOOTH",
"68 -13 OFFCURVE",
"63 -10 OFFCURVE",
"56 -10 CURVE SMOOTH",
"44 -10 OFFCURVE",
"26 -20 OFFCURVE",
"26 -58 CURVE SMOOTH",
"26 -73 OFFCURVE",
"28 -88 OFFCURVE",
"31 -101 CURVE",
"-30 -94 OFFCURVE",
"-81 -62 OFFCURVE",
"-81 0 CURVE SMOOTH",
"-80 17 LINE SMOOTH",
"-80 20 OFFCURVE",
"-84 22 OFFCURVE",
"-88 22 CURVE SMOOTH",
"-91 22 OFFCURVE",
"-95 20 OFFCURVE",
"-95 17 CURVE",
"-97 8 OFFCURVE",
"-97 -1 OFFCURVE",
"-97 -9 CURVE SMOOTH",
"-97 -81 OFFCURVE",
"-35 -112 OFFCURVE",
"35 -119 CURVE",
"64 -212 OFFCURVE",
"160 -263 OFFCURVE",
"263 -263 CURVE SMOOTH"
);
},
{
closed = 1;
nodes = (
"173 -240 OFFCURVE",
"84 -197 OFFCURVE",
"53 -120 CURVE",
"79 -121 OFFCURVE",
"104 -119 OFFCURVE",
"128 -115 CURVE SMOOTH",
"198 -104 OFFCURVE",
"253 -76 OFFCURVE",
"297 -39 CURVE",
"351 -61 OFFCURVE",
"409 -72 OFFCURVE",
"464 -74 CURVE SMOOTH",
"483 -74 OFFCURVE",
"503 -73 OFFCURVE",
"522 -71 CURVE",
"477 -188 OFFCURVE",
"369 -240 OFFCURVE",
"266 -240 CURVE SMOOTH"
);
},
{
closed = 1;
nodes = (
"165 49 OFFCURVE",
"92 136 OFFCURVE",
"100 246 CURVE SMOOTH",
"101 259 OFFCURVE",
"103 271 OFFCURVE",
"106 282 CURVE",
"136 261 OFFCURVE",
"177 248 OFFCURVE",
"229 248 CURVE SMOOTH",
"296 248 OFFCURVE",
"364 287 OFFCURVE",
"388 365 CURVE",
"407 353 OFFCURVE",
"425 339 OFFCURVE",
"441 321 CURVE",
"402 243 OFFCURVE",
"365 164 OFFCURVE",
"321 86 CURVE SMOOTH",
"304 55 OFFCURVE",
"285 24 OFFCURVE",
"262 -4 CURVE"
);
},
{
closed = 1;
nodes = (
"421 -58 OFFCURVE",
"364 -47 OFFCURVE",
"312 -26 CURVE",
"392 48 OFFCURVE",
"434 153 OFFCURVE",
"469 234 CURVE SMOOTH",
"482 264 LINE",
"521 197 OFFCURVE",
"543 118 OFFCURVE",
"543 50 CURVE SMOOTH",
"543 11 OFFCURVE",
"537 -23 OFFCURVE",
"528 -54 CURVE",
"510 -56 OFFCURVE",
"491 -58 OFFCURVE",
"473 -58 CURVE SMOOTH"
);
},
{
closed = 1;
nodes = (
"180 266 OFFCURVE",
"142 286 OFFCURVE",
"119 317 CURVE",
"148 372 OFFCURVE",
"205 400 OFFCURVE",
"267 400 CURVE SMOOTH",
"304 400 OFFCURVE",
"343 390 OFFCURVE",
"378 370 CURVE",
"356 301 OFFCURVE",
"290 266 OFFCURVE",
"233 266 CURVE SMOOTH"
);
},
{
closed = 1;
nodes = (
"554 -18 OFFCURVE",
"558 16 OFFCURVE",
"558 50 CURVE SMOOTH",
"558 125 OFFCURVE",
"533 210 OFFCURVE",
"490 281 CURVE",
"594 509 OFFCURVE",
"715 697 OFFCURVE",
"808 697 CURVE SMOOTH",
"814 697 OFFCURVE",
"820 697 OFFCURVE",
"826 695 CURVE SMOOTH",
"830 694 OFFCURVE",
"832 697 OFFCURVE",
"832 700 CURVE SMOOTH",
"832 702 OFFCURVE",
"831 704 OFFCURVE",
"829 705 CURVE SMOOTH",
"819 708 OFFCURVE",
"810 709 OFFCURVE",
"800 709 CURVE SMOOTH",
"730 709 OFFCURVE",
"651 645 OFFCURVE",
"567 531 CURVE SMOOTH",
"521 468 OFFCURVE",
"483 402 OFFCURVE",
"449 335 CURVE",
"431 354 OFFCURVE",
"412 370 OFFCURVE",
"392 383 CURVE",
"394 392 OFFCURVE",
"395 402 OFFCURVE",
"395 411 CURVE SMOOTH",
"395 416 OFFCURVE",
"393 419 OFFCURVE",
"391 419 CURVE SMOOTH",
"388 419 OFFCURVE",
"386 416 OFFCURVE",
"386 410 CURVE",
"383 389 LINE",
"340 415 OFFCURVE",
"295 427 OFFCURVE",
"251 427 CURVE SMOOTH",
"190 427 OFFCURVE",
"134 402 OFFCURVE",
"101 354 CURVE",
"96 371 OFFCURVE",
"93 389 OFFCURVE",
"93 408 CURVE SMOOTH",
"93 567 OFFCURVE",
"271 802 OFFCURVE",
"597 802 CURVE SMOOTH",
"795 802 OFFCURVE",
"965 684 OFFCURVE",
"965 440 CURVE SMOOTH",
"965 210 OFFCURVE",
"763 -10 OFFCURVE",
"544 -51 CURVE"
);
}
);
width = 989;
}
);
leftKerningGroup = D;
note = D;
rightKerningGroup = D;
unicode = 0044;
},
{
glyphname = Eth;
lastChange = "2021-11-23 21:04:09 +0000";
layers = (
{
anchors = (
{
name = bottom;
position = "{495, 0}";
},
{
name = center;
position = "{495, 400}";
},
{
name = top;
position = "{926, 740}";
}
);
background = {
components = (
{
name = D;
},
{
name = hyphen;
transform = "{1.52155, 0, 0, 1, 84, -66}";
}
);
};
layerId = "32B14CDE-4F96-422E-BD5E-1145416534B1";
paths = (
{
closed = 1;
nodes = (
"374 -263 OFFCURVE",
"492 -202 OFFCURVE",
"539 -69 CURVE",
"789 -36 OFFCURVE",
"1025 181 OFFCURVE",
"1040 444 CURVE SMOOTH",
"1054 690 OFFCURVE",
"833 825 OFFCURVE",
"590 821 CURVE SMOOTH",
"226 815 OFFCURVE",
"41 586 OFFCURVE",
"41 419 CURVE SMOOTH",
"41 376 OFFCURVE",
"53 338 OFFCURVE",
"78 308 CURVE",
"73 289 OFFCURVE",
"69 267 OFFCURVE",
"69 244 CURVE SMOOTH",
"69 127 OFFCURVE",
"147 35 OFFCURVE",
"250 -18 CURVE",
"220 -51 OFFCURVE",
"185 -78 OFFCURVE",
"141 -92 CURVE SMOOTH",
"112 -101 OFFCURVE",
"79 -105 OFFCURVE",
"47 -103 CURVE",
"44 -89 OFFCURVE",
"41 -74 OFFCURVE",
"41 -58 CURVE SMOOTH",
"41 -44 OFFCURVE",
"45 -28 OFFCURVE",
"60 -23 CURVE SMOOTH",
"66 -21 OFFCURVE",
"68 -19 OFFCURVE",
"68 -16 CURVE SMOOTH",
"68 -13 OFFCURVE",
"63 -10 OFFCURVE",
"56 -10 CURVE SMOOTH",
"44 -10 OFFCURVE",
"26 -20 OFFCURVE",
"26 -58 CURVE SMOOTH",
"26 -73 OFFCURVE",
"28 -88 OFFCURVE",
"31 -101 CURVE",
"-30 -94 OFFCURVE",
"-81 -62 OFFCURVE",
"-81 0 CURVE SMOOTH",
"-80 17 LINE SMOOTH",
"-80 20 OFFCURVE",
"-84 22 OFFCURVE",
"-88 22 CURVE SMOOTH",
"-91 22 OFFCURVE",
"-95 20 OFFCURVE",
"-95 17 CURVE",
"-97 8 OFFCURVE",
"-97 -1 OFFCURVE",
"-97 -9 CURVE SMOOTH",
"-97 -81 OFFCURVE",
"-35 -112 OFFCURVE",
"35 -119 CURVE",
"64 -212 OFFCURVE",
"160 -263 OFFCURVE",
"263 -263 CURVE SMOOTH"
);
},
{
closed = 1;
nodes = (
"173 -240 OFFCURVE",
"84 -197 OFFCURVE",
"53 -120 CURVE",
"79 -121 OFFCURVE",
"104 -119 OFFCURVE",
"128 -115 CURVE SMOOTH",
"198 -104 OFFCURVE",
"253 -76 OFFCURVE",
"297 -39 CURVE",
"351 -61 OFFCURVE",
"409 -72 OFFCURVE",
"464 -74 CURVE SMOOTH",
"483 -74 OFFCURVE",
"503 -73 OFFCURVE",
"522 -71 CURVE",
"477 -188 OFFCURVE",
"369 -240 OFFCURVE",
"266 -240 CURVE SMOOTH"
);
},
{
closed = 1;
nodes = (
"165 49 OFFCURVE",
"92 136 OFFCURVE",
"100 246 CURVE SMOOTH",
"101 259 OFFCURVE",
"103 271 OFFCURVE",
"106 282 CURVE",
"136 261 OFFCURVE",
"177 248 OFFCURVE",
"229 248 CURVE SMOOTH",
"296 248 OFFCURVE",
"364 287 OFFCURVE",
"388 365 CURVE",
"407 353 OFFCURVE",
"425 339 OFFCURVE",
"441 321 CURVE",
"402 243 OFFCURVE",
"365 164 OFFCURVE",
"321 86 CURVE SMOOTH",
"304 55 OFFCURVE",
"285 24 OFFCURVE",
"262 -4 CURVE"
);
},
{
closed = 1;
nodes = (
"421 -58 OFFCURVE",
"364 -47 OFFCURVE",
"312 -26 CURVE",
"392 48 OFFCURVE",
"434 153 OFFCURVE",
"469 234 CURVE SMOOTH",
"482 264 LINE",
"521 197 OFFCURVE",
"543 118 OFFCURVE",
"543 50 CURVE SMOOTH",
"543 11 OFFCURVE",
"537 -23 OFFCURVE",
"528 -54 CURVE",
"510 -56 OFFCURVE",
"491 -58 OFFCURVE",
"473 -58 CURVE SMOOTH"
);
},
{
closed = 1;
nodes = (
"180 266 OFFCURVE",
"142 286 OFFCURVE",
"119 317 CURVE",
"148 372 OFFCURVE",
"205 400 OFFCURVE",
"267 400 CURVE SMOOTH",
"304 400 OFFCURVE",
"343 390 OFFCURVE",
"378 370 CURVE",
"356 301 OFFCURVE",
"290 266 OFFCURVE",
"233 266 CURVE SMOOTH"
);
},
{
closed = 1;
nodes = (
"554 -18 OFFCURVE",
"558 16 OFFCURVE",
"558 50 CURVE SMOOTH",
"558 125 OFFCURVE",
"533 210 OFFCURVE",
"490 281 CURVE",
"594 509 OFFCURVE",
"715 697 OFFCURVE",
"808 697 CURVE SMOOTH",
"814 697 OFFCURVE",
"820 697 OFFCURVE",
"826 695 CURVE SMOOTH",
"830 694 OFFCURVE",
"832 697 OFFCURVE",
"832 700 CURVE SMOOTH",
"832 702 OFFCURVE",
"831 704 OFFCURVE",
"829 705 CURVE SMOOTH",
"819 708 OFFCURVE",
"810 709 OFFCURVE",
"800 709 CURVE SMOOTH",
"730 709 OFFCURVE",
"651 645 OFFCURVE",
"567 531 CURVE SMOOTH",
"521 468 OFFCURVE",
"483 402 OFFCURVE",
"449 335 CURVE",
"431 354 OFFCURVE",
"412 370 OFFCURVE",
"392 383 CURVE",
"394 392 OFFCURVE",
"395 402 OFFCURVE",
"395 411 CURVE SMOOTH",
"395 416 OFFCURVE",
"393 419 OFFCURVE",
"391 419 CURVE SMOOTH",
"388 419 OFFCURVE",
"386 416 OFFCURVE",
"386 410 CURVE",
"383 389 LINE",
"340 415 OFFCURVE",
"295 427 OFFCURVE",
"251 427 CURVE SMOOTH",
"190 427 OFFCURVE",
"134 402 OFFCURVE",
"101 354 CURVE",
"96 371 OFFCURVE",
"93 389 OFFCURVE",
"93 408 CURVE SMOOTH",
"93 567 OFFCURVE",
"271 802 OFFCURVE",
"597 802 CURVE SMOOTH",
"795 802 OFFCURVE",
"965 684 OFFCURVE",
"965 440 CURVE SMOOTH",
"965 210 OFFCURVE",
"763 -10 OFFCURVE",
"544 -51 CURVE"
);
},
{
closed = 1;
nodes = (
"623 192 LINE",
"623 218 LINE",
"275 218 LINE",
"273 192 LINE"
);
}
);
width = 989;
}
);
leftKerningGroup = D;
note = Eth;
rightKerningGroup = D;
unicode = 00D0;
},
{
color = 9;
glyphname = E;
lastChange = "2021-11-23 21:04:39 +0000";
layers = (
{
anchors = (
{
name = bottom;
position = "{154, -114}";
},
{
name = ogonek;
position = "{588, -12}";
},
{
name = top;
position = "{591, 800}";
},
{
name = topleft;
position = "{20, 800}";
}
);
background = {
paths = (
{
closed = 1;
nodes = (
"520 -252 OFFCURVE",
"511 -240 OFFCURVE",
"503 -246 CURVE SMOOTH",
"397 -326 OFFCURVE",
"284 -284 OFFCURVE",
"297 -147 CURVE SMOOTH",
"300 -124 LINE",
"404 -107 OFFCURVE",
"501 -56 OFFCURVE",
"577 17 CURVE SMOOTH",
"619 58 OFFCURVE",
"674 127 OFFCURVE",
"701 195 CURVE SMOOTH",
"756 335 OFFCURVE",
"680 358 OFFCURVE",
"594 323 CURVE",
"600 387 OFFCURVE",
"586 454 OFFCURVE",
"560 514 CURVE",
"666 531 OFFCURVE",
"777 570 OFFCURVE",
"826 650 CURVE SMOOTH",
"873 729 OFFCURVE",
"804 804 OFFCURVE",
"669 804 CURVE SMOOTH",
"576 804 OFFCURVE",
"470 779 OFFCURVE",
"379 734 CURVE",
"67 969 OFFCURVE",
"-121 654 OFFCURVE",
"188 542 CURVE",
"186 537 LINE SMOOTH",
"168 484 OFFCURVE",
"179 440 OFFCURVE",
"206 408 CURVE",
"74 351 OFFCURVE",
"-42 243 OFFCURVE",
"-52 105 CURVE SMOOTH",
"-60 -8 OFFCURVE",
"52 -127 OFFCURVE",
"215 -130 CURVE SMOOTH",
"238 -131 OFFCURVE",
"261 -130 OFFCURVE",
"284 -127 CURVE",
"263 -281 OFFCURVE",
"382 -357 OFFCURVE",
"512 -258 CURVE SMOOTH"
);
},
{
closed = 1;
nodes = (
"1 -109 OFFCURVE",
"-44 271 OFFCURVE",
"216 397 CURVE",
"245 369 OFFCURVE",
"289 351 OFFCURVE",
"339 346 CURVE SMOOTH",
"493 328 OFFCURVE",
"556 455 OFFCURVE",
"394 451 CURVE SMOOTH",
"352 450 OFFCURVE",
"307 443 OFFCURVE",
"263 429 CURVE",
"255 446 OFFCURVE",
"252 467 OFFCURVE",
"254 492 CURVE SMOOTH",
"255 502 OFFCURVE",
"257 512 OFFCURVE",
"259 522 CURVE",
"309 511 OFFCURVE",
"369 505 OFFCURVE",
"439 505 CURVE SMOOTH",
"471 505 OFFCURVE",
"507 507 OFFCURVE",
"545 512 CURVE",
"572 450 OFFCURVE",
"586 382 OFFCURVE",
"579 315 CURVE",
"567 309 OFFCURVE",
"555 302 OFFCURVE",
"543 294 CURVE SMOOTH",
"467 242 OFFCURVE",
"394 154 OFFCURVE",
"345 56 CURVE",
"246 42 OFFCURVE",
"166 98 OFFCURVE",
"201 182 CURVE SMOOTH",
"205 191 OFFCURVE",
"191 197 OFFCURVE",
"187 188 CURVE SMOOTH",
"148 94 OFFCURVE",
"232 30 OFFCURVE",
"337 40 CURVE",
"314 -8 OFFCURVE",
"296 -58 OFFCURVE",
"288 -107 CURVE",
"275 -108 OFFCURVE",
"263 -109 OFFCURVE",
"251 -109 CURVE SMOOTH"
);
},
{
closed = 1;
nodes = (
"313 -58 OFFCURVE",
"331 -7 OFFCURVE",
"356 43 CURVE",
"424 55 OFFCURVE",
"499 99 OFFCURVE",
"551 187 CURVE SMOOTH",
"574 225 OFFCURVE",
"587 265 OFFCURVE",
"593 307 CURVE",
"663 341 OFFCURVE",
"711 326 OFFCURVE",
"659 197 CURVE SMOOTH",
"602 56 OFFCURVE",
"456 -78 OFFCURVE",
"303 -104 CURVE"
);
},
{
closed = 1;
nodes = (
"411 149 OFFCURVE",
"477 234 OFFCURVE",
"553 284 CURVE SMOOTH",
"576 298 LINE",
"570 262 OFFCURVE",
"558 228 OFFCURVE",
"539 195 CURVE SMOOTH",
"492 116 OFFCURVE",
"426 75 OFFCURVE",
"364 60 CURVE"
);
},
{
closed = 1;
nodes = (
"469 355 OFFCURVE",
"319 337 OFFCURVE",
"269 417 CURVE",
"306 429 OFFCURVE",
"347 435 OFFCURVE",
"394 436 CURVE SMOOTH",
"409 437 OFFCURVE",
"477 436 OFFCURVE",
"474 407 CURVE SMOOTH"
);
},
{
closed = 1;
nodes = (
"-77 652 OFFCURVE",
"101 905 OFFCURVE",
"363 726 CURVE",
"286 684 OFFCURVE",
"222 626 OFFCURVE",
"193 555 CURVE"
);
},
{
closed = 1;
nodes = (
"369 520 OFFCURVE",
"311 526 OFFCURVE",
"262 536 CURVE",
"281 606 OFFCURVE",
"330 663 OFFCURVE",
"392 705 CURVE",
"394 703 LINE SMOOTH",
"411 689 OFFCURVE",
"429 673 OFFCURVE",
"448 655 CURVE SMOOTH",
"483 619 OFFCURVE",
"514 576 OFFCURVE",
"538 528 CURVE",
"507 523 OFFCURVE",
"474 520 OFFCURVE",
"439 520 CURVE SMOOTH"
);
},
{
closed = 1;
nodes = (
"529 581 OFFCURVE",
"496 628 OFFCURVE",
"458 665 CURVE SMOOTH",
"441 683 OFFCURVE",
"423 699 OFFCURVE",
"406 713 CURVE",
"485 762 OFFCURVE",
"584 789 OFFCURVE",
"674 789 CURVE SMOOTH",
"859 789 OFFCURVE",
"802 581 OFFCURVE",
"553 531 CURVE"
);
}
);
};
layerId = "32B14CDE-4F96-422E-BD5E-1145416534B1";
paths = (
{
closed = 1;
nodes = (
"433 -303 OFFCURVE",
"472 -289 OFFCURVE",
"512 -258 CURVE SMOOTH",
"518 -253 OFFCURVE",
"514 -244 OFFCURVE",
"508 -244 CURVE SMOOTH",
"506 -244 OFFCURVE",
"505 -245 OFFCURVE",
"503 -246 CURVE",
"467 -273 OFFCURVE",
"430 -286 OFFCURVE",
"398 -286 CURVE SMOOTH",
"340 -286 OFFCURVE",
"296 -245 OFFCURVE",
"296 -168 CURVE SMOOTH",
"296 -161 OFFCURVE",
"296 -154 OFFCURVE",
"297 -147 CURVE SMOOTH",
"300 -124 LINE",
"404 -107 OFFCURVE",
"501 -56 OFFCURVE",
"577 17 CURVE SMOOTH",
"619 58 OFFCURVE",
"674 127 OFFCURVE",
"701 195 CURVE SMOOTH",
"714 228 OFFCURVE",
"719 254 OFFCURVE",
"719 275 CURVE SMOOTH",
"719 320 OFFCURVE",
"694 338 OFFCURVE",
"658 338 CURVE SMOOTH",
"639 338 OFFCURVE",
"617 332 OFFCURVE",
"594 323 CURVE",
"595 333 OFFCURVE",
"595 343 OFFCURVE",
"595 353 CURVE SMOOTH",
"595 408 OFFCURVE",
"582 463 OFFCURVE",
"560 514 CURVE",
"666 531 OFFCURVE",
"777 570 OFFCURVE",
"826 650 CURVE SMOOTH",
"836 667 OFFCURVE",
"841 683 OFFCURVE",
"841 699 CURVE SMOOTH",
"841 757 OFFCURVE",
"775 804 OFFCURVE",
"669 804 CURVE SMOOTH",
"576 804 OFFCURVE",
"470 779 OFFCURVE",
"379 734 CURVE",
"298 795 OFFCURVE",
"225 819 OFFCURVE",
"168 819 CURVE SMOOTH",
"83 819 OFFCURVE",
"30 767 OFFCURVE",
"30 706 CURVE SMOOTH",
"30 649 OFFCURVE",
"77 582 OFFCURVE",
"188 542 CURVE",
"186 537 LINE SMOOTH",
"179 519 OFFCURVE",
"177 502 OFFCURVE",
"177 487 CURVE SMOOTH",
"177 456 OFFCURVE",
"188 429 OFFCURVE",
"206 408 CURVE",
"74 351 OFFCURVE",
"-42 243 OFFCURVE",
"-52 105 CURVE SMOOTH",
"-60 -8 OFFCURVE",
"52 -127 OFFCURVE",
"215 -130 CURVE SMOOTH",
"238 -131 OFFCURVE",
"261 -130 OFFCURVE",
"284 -127 CURVE",
"282 -139 OFFCURVE",
"281 -151 OFFCURVE",
"281 -162 CURVE SMOOTH",
"281 -248 OFFCURVE",
"331 -303 OFFCURVE",
"398 -303 CURVE SMOOTH"
);
},
{
closed = 1;
nodes = (
"116 -109 OFFCURVE",
"41 1 OFFCURVE",
"41 123 CURVE SMOOTH",
"41 227 OFFCURVE",
"96 339 OFFCURVE",
"216 397 CURVE",
"245 369 OFFCURVE",
"289 351 OFFCURVE",
"339 346 CURVE SMOOTH",
"349 345 OFFCURVE",
"360 344 OFFCURVE",
"369 344 CURVE SMOOTH",
"443 344 OFFCURVE",
"489 379 OFFCURVE",
"489 409 CURVE SMOOTH",
"489 431 OFFCURVE",
"462 451 OFFCURVE",
"401 451 CURVE SMOOTH",
"357 451 OFFCURVE",
"310 444 OFFCURVE",
"263 429 CURVE",
"255 446 OFFCURVE",
"252 467 OFFCURVE",
"254 492 CURVE SMOOTH",
"255 502 OFFCURVE",
"257 512 OFFCURVE",
"259 522 CURVE",
"309 511 OFFCURVE",
"369 505 OFFCURVE",
"439 505 CURVE SMOOTH",
"471 505 OFFCURVE",
"507 507 OFFCURVE",
"545 512 CURVE",
"567 461 OFFCURVE",
"581 405 OFFCURVE",
"581 350 CURVE SMOOTH",
"581 338 OFFCURVE",
"580 327 OFFCURVE",
"579 315 CURVE",
"567 309 OFFCURVE",
"555 302 OFFCURVE",
"543 294 CURVE SMOOTH",
"467 242 OFFCURVE",
"394 154 OFFCURVE",
"345 56 CURVE",
"335 55 OFFCURVE",
"325 54 OFFCURVE",
"315 54 CURVE SMOOTH",
"246 54 OFFCURVE",
"193 90 OFFCURVE",
"193 143 CURVE SMOOTH",
"193 155 OFFCURVE",
"195 168 OFFCURVE",
"201 182 CURVE SMOOTH",
"204 188 OFFCURVE",
"199 192 OFFCURVE",
"194 192 CURVE SMOOTH",
"191 192 OFFCURVE",
"188 191 OFFCURVE",
"187 188 CURVE SMOOTH",
"180 172 OFFCURVE",
"177 157 OFFCURVE",
"177 143 CURVE SMOOTH",
"177 80 OFFCURVE",
"238 39 OFFCURVE",
"316 39 CURVE SMOOTH",
"323 39 OFFCURVE",
"330 39 OFFCURVE",
"337 40 CURVE",
"314 -8 OFFCURVE",
"296 -58 OFFCURVE",
"288 -107 CURVE",
"275 -108 OFFCURVE",
"263 -109 OFFCURVE",
"251 -109 CURVE SMOOTH"
);
},
{
closed = 1;
nodes = (
"313 -58 OFFCURVE",
"331 -7 OFFCURVE",
"356 43 CURVE",
"424 55 OFFCURVE",
"499 99 OFFCURVE",
"551 187 CURVE SMOOTH",
"574 225 OFFCURVE",
"587 265 OFFCURVE",
"593 307 CURVE",
"613 317 OFFCURVE",
"632 323 OFFCURVE",
"647 323 CURVE SMOOTH",
"668 323 OFFCURVE",
"681 311 OFFCURVE",
"681 283 CURVE SMOOTH",
"681 263 OFFCURVE",
"674 235 OFFCURVE",
"659 197 CURVE SMOOTH",
"602 56 OFFCURVE",
"456 -78 OFFCURVE",
"303 -104 CURVE"
);
},
{
closed = 1;
nodes = (
"411 149 OFFCURVE",
"475 237 OFFCURVE",
"553 284 CURVE SMOOTH",
"576 298 LINE",
"570 262 OFFCURVE",
"558 228 OFFCURVE",
"539 195 CURVE SMOOTH",
"492 116 OFFCURVE",
"426 75 OFFCURVE",
"364 60 CURVE"
);
},
{
closed = 1;
nodes = (
"341 362 OFFCURVE",
"293 378 OFFCURVE",
"269 417 CURVE",
"308 430 OFFCURVE",
"352 436 OFFCURVE",
"403 436 CURVE SMOOTH",
"425 436 OFFCURVE",
"474 432 OFFCURVE",
"474 409 CURVE SMOOTH",
"474 381 OFFCURVE",
"431 362 OFFCURVE",
"384 362 CURVE SMOOTH"
);
},
{
closed = 1;
nodes = (
"98 589 OFFCURVE",
"58 642 OFFCURVE",
"58 689 CURVE SMOOTH",
"58 743 OFFCURVE",
"109 788 OFFCURVE",
"188 788 CURVE SMOOTH",
"237 788 OFFCURVE",
"298 771 OFFCURVE",
"363 726 CURVE",
"286 684 OFFCURVE",
"222 626 OFFCURVE",
"193 555 CURVE"
);
},
{
closed = 1;
nodes = (
"369 520 OFFCURVE",
"311 526 OFFCURVE",
"262 536 CURVE",
"281 606 OFFCURVE",
"330 663 OFFCURVE",
"392 705 CURVE",
"394 703 LINE SMOOTH",
"410 687 OFFCURVE",
"429 673 OFFCURVE",
"448 655 CURVE SMOOTH",
"483 619 OFFCURVE",
"514 576 OFFCURVE",
"538 528 CURVE",
"507 523 OFFCURVE",
"474 520 OFFCURVE",
"439 520 CURVE SMOOTH"
);
},
{
closed = 1;
nodes = (
"529 581 OFFCURVE",
"496 628 OFFCURVE",
"458 665 CURVE SMOOTH",
"441 683 OFFCURVE",
"423 699 OFFCURVE",
"406 713 CURVE",
"485 762 OFFCURVE",
"584 789 OFFCURVE",
"674 789 CURVE SMOOTH",
"748 789 OFFCURVE",
"783 756 OFFCURVE",
"783 713 CURVE SMOOTH",
"783 648 OFFCURVE",
"703 561 OFFCURVE",
"553 531 CURVE"
);
}
);
width = 731;
}
);
leftKerningGroup = E;
note = E;
rightKerningGroup = E;
unicode = 0045;
},
{
color = 9;
glyphname = F;
lastChange = "2021-11-23 21:04:56 +0000";
layers = (
{
background = {
paths = (
{
closed = 1;
nodes = (
"249 -220 OFFCURVE",
"325 -199 OFFCURVE",
"393 -161 CURVE",
"586 -168 OFFCURVE",
"785 -53 OFFCURVE",
"785 147 CURVE SMOOTH",
"785 157 OFFCURVE",
"770 157 OFFCURVE",
"770 147 CURVE SMOOTH",
"770 -38 OFFCURVE",
"593 -147 OFFCURVE",
"418 -147 CURVE",
"576 -50 OFFCURVE",
"694 130 OFFCURVE",
"772 309 CURVE SMOOTH",
"781 331 OFFCURVE",
"791 353 OFFCURVE",
"801 375 CURVE",
"855 359 OFFCURVE",
"909 344 OFFCURVE",
"966 349 CURVE",
"940 303 OFFCURVE",
"926 254 OFFCURVE",
"927 235 CURVE SMOOTH",
"928 225 OFFCURVE",
"943 226 OFFCURVE",
"942 236 CURVE SMOOTH",
"940 263 OFFCURVE",
"962 313 OFFCURVE",
"987 352 CURVE",
"1013 359 OFFCURVE",
"1038 378 OFFCURVE",
"1051 408 CURVE SMOOTH",
"1057 421 OFFCURVE",
"1040 430 OFFCURVE",
"1031 424 CURVE SMOOTH",
"1010 410 OFFCURVE",
"992 388 OFFCURVE",
"976 365 CURVE",
"970 364 OFFCURVE",
"964 363 OFFCURVE",
"957 363 CURVE SMOOTH",
"903 363 OFFCURVE",
"855 378 OFFCURVE",
"811 396 CURVE",
"858 493 OFFCURVE",
"907 579 OFFCURVE",
"955 644 CURVE",
"1044 627 OFFCURVE",
"1132 614 OFFCURVE",
"1218 614 CURVE SMOOTH",
"1307 614 OFFCURVE",
"1414 659 OFFCURVE",
"1410 746 CURVE SMOOTH",
"1409 756 OFFCURVE",
"1394 756 OFFCURVE",
"1395 746 CURVE SMOOTH",
"1398 673 OFFCURVE",
"1307 629 OFFCURVE",
"1218 629 CURVE SMOOTH",
"1139 629 OFFCURVE",
"1057 646 OFFCURVE",
"975 669 CURVE",
"1030 737 OFFCURVE",
"1084 773 OFFCURVE",
"1128 760 CURVE SMOOTH",
"1134 758 OFFCURVE",
"1138 768 OFFCURVE",
"1132 770 CURVE SMOOTH",
"1074 786 OFFCURVE",
"1010 752 OFFCURVE",
"941 679 CURVE",
"771 729 OFFCURVE",
"595 799 OFFCURVE",
"424 799 CURVE SMOOTH",
"205 799 OFFCURVE",
"14 644 OFFCURVE",
"14 471 CURVE SMOOTH",
"14 408 OFFCURVE",
"32 355 OFFCURVE",
"62 313 CURVE",
"47 278 OFFCURVE",
"39 242 OFFCURVE",
"39 206 CURVE SMOOTH",
"39 -19 OFFCURVE",
"182 -132 OFFCURVE",
"342 -156 CURVE",
"289 -190 OFFCURVE",
"231 -210 OFFCURVE",
"168 -210 CURVE SMOOTH",
"162 -210 OFFCURVE",
"159 -220 OFFCURVE",
"166 -220 CURVE SMOOTH"
);
},
{
closed = 1;
nodes = (
"210 -122 OFFCURVE",
"74 -13 OFFCURVE",
"74 206 CURVE SMOOTH",
"74 232 OFFCURVE",
"78 258 OFFCURVE",
"86 284 CURVE",
"150 217 OFFCURVE",
"251 182 OFFCURVE",
"355 182 CURVE SMOOTH",
"545 182 OFFCURVE",
"653 308 OFFCURVE",
"636 412 CURVE",
"672 411 OFFCURVE",
"707 402 OFFCURVE",
"743 392 CURVE",
"722 356 LINE SMOOTH",
"641 209 OFFCURVE",
"524 -27 OFFCURVE",
"363 -143 CURVE"
);
},
{
closed = 1;
nodes = (
"245 197 OFFCURVE",
"149 232 OFFCURVE",
"92 303 CURVE",
"139 429 OFFCURVE",
"268 536 OFFCURVE",
"392 536 CURVE SMOOTH",
"500 536 OFFCURVE",
"564 500 OFFCURVE",
"590 451 CURVE",
"506 437 OFFCURVE",
"489 375 OFFCURVE",
"489 340 CURVE SMOOTH",
"489 330 OFFCURVE",
"504 330 OFFCURVE",
"504 340 CURVE SMOOTH",
"504 371 OFFCURVE",
"514 407 OFFCURVE",
"604 412 CURVE",
"620 315 OFFCURVE",
"522 197 OFFCURVE",
"355 197 CURVE SMOOTH"
);
},
{
closed = 1;
nodes = (
"49 373 OFFCURVE",
"37 420 OFFCURVE",
"37 477 CURVE SMOOTH",
"37 640 OFFCURVE",
"235 727 OFFCURVE",
"419 727 CURVE SMOOTH",
"584 727 OFFCURVE",
"752 684 OFFCURVE",
"916 651 CURVE",
"866 592 OFFCURVE",
"813 513 OFFCURVE",
"758 419 CURVE",
"717 436 OFFCURVE",
"674 454 OFFCURVE",
"630 454 CURVE SMOOTH",
"622 454 LINE",
"591 509 OFFCURVE",
"517 551 OFFCURVE",
"392 551 CURVE SMOOTH",
"270 551 OFFCURVE",
"133 453 OFFCURVE",
"72 333 CURVE"
);
}
);
};
layerId = "32B14CDE-4F96-422E-BD5E-1145416534B1";
paths = (
{
closed = 1;
nodes = (
"249 -220 OFFCURVE",
"325 -199 OFFCURVE",
"393 -161 CURVE",
"586 -168 OFFCURVE",
"785 -53 OFFCURVE",
"785 147 CURVE SMOOTH",
"785 152 OFFCURVE",
"781 155 OFFCURVE",
"778 155 CURVE SMOOTH",
"774 155 OFFCURVE",
"770 152 OFFCURVE",
"770 147 CURVE SMOOTH",
"770 -38 OFFCURVE",
"593 -147 OFFCURVE",
"418 -147 CURVE",
"576 -50 OFFCURVE",
"694 130 OFFCURVE",
"772 309 CURVE SMOOTH",
"781 331 OFFCURVE",
"791 353 OFFCURVE",
"801 375 CURVE",
"848 361 OFFCURVE",
"895 348 OFFCURVE",
"943 348 CURVE SMOOTH",
"951 348 OFFCURVE",
"958 348 OFFCURVE",
"966 349 CURVE",
"941 305 OFFCURVE",
"927 257 OFFCURVE",
"927 237 CURVE SMOOTH",
"927 231 OFFCURVE",
"931 228 OFFCURVE",
"935 228 CURVE SMOOTH",
"938 228 OFFCURVE",
"942 230 OFFCURVE",
"942 235 CURVE SMOOTH",
"942 236 LINE SMOOTH",
"940 263 OFFCURVE",
"962 313 OFFCURVE",
"987 352 CURVE",
"1013 359 OFFCURVE",
"1038 378 OFFCURVE",
"1051 408 CURVE SMOOTH",
"1056 418 OFFCURVE",
"1046 426 OFFCURVE",
"1038 426 CURVE SMOOTH",
"1035 426 OFFCURVE",
"1033 425 OFFCURVE",
"1031 424 CURVE SMOOTH",
"1010 410 OFFCURVE",
"992 388 OFFCURVE",
"976 365 CURVE",
"970 364 OFFCURVE",
"964 363 OFFCURVE",
"957 363 CURVE SMOOTH",
"903 363 OFFCURVE",
"855 378 OFFCURVE",
"811 396 CURVE",
"858 493 OFFCURVE",
"907 579 OFFCURVE",
"955 644 CURVE",
"1044 627 OFFCURVE",
"1132 614 OFFCURVE",
"1218 614 CURVE SMOOTH",
"1305 614 OFFCURVE",
"1410 657 OFFCURVE",
"1410 741 CURVE SMOOTH",
"1410 749 OFFCURVE",
"1407 754 OFFCURVE",
"1402 754 CURVE SMOOTH",
"1398 754 OFFCURVE",
"1395 751 OFFCURVE",
"1395 747 CURVE SMOOTH",
"1395 746 LINE SMOOTH",
"1398 673 OFFCURVE",
"1307 629 OFFCURVE",
"1218 629 CURVE SMOOTH",
"1139 629 OFFCURVE",
"1057 646 OFFCURVE",
"975 669 CURVE",
"1023 728 OFFCURVE",
"1069 763 OFFCURVE",
"1110 763 CURVE SMOOTH",
"1116 763 OFFCURVE",
"1122 762 OFFCURVE",
"1128 760 CURVE SMOOTH",
"1132 759 OFFCURVE",
"1135 762 OFFCURVE",
"1135 766 CURVE SMOOTH",
"1135 768 OFFCURVE",
"1134 769 OFFCURVE",
"1132 770 CURVE SMOOTH",
"1123 773 OFFCURVE",
"1113 774 OFFCURVE",
"1103 774 CURVE SMOOTH",
"1053 774 OFFCURVE",
"999 740 OFFCURVE",
"941 679 CURVE",
"771 729 OFFCURVE",
"595 799 OFFCURVE",
"424 799 CURVE SMOOTH",
"205 799 OFFCURVE",
"14 644 OFFCURVE",
"14 471 CURVE SMOOTH",
"14 408 OFFCURVE",
"32 355 OFFCURVE",
"62 313 CURVE",
"47 278 OFFCURVE",
"39 242 OFFCURVE",
"39 206 CURVE SMOOTH",
"39 -19 OFFCURVE",
"182 -132 OFFCURVE",
"342 -156 CURVE",
"289 -190 OFFCURVE",
"231 -210 OFFCURVE",
"168 -210 CURVE SMOOTH",
"164 -210 OFFCURVE",
"162 -214 OFFCURVE",
"162 -216 CURVE SMOOTH",
"162 -218 OFFCURVE",
"163 -220 OFFCURVE",
"166 -220 CURVE SMOOTH"
);
},
{
closed = 1;
nodes = (
"210 -122 OFFCURVE",
"74 -13 OFFCURVE",
"74 206 CURVE SMOOTH",
"74 232 OFFCURVE",
"78 258 OFFCURVE",
"86 284 CURVE",
"150 217 OFFCURVE",
"251 182 OFFCURVE",
"355 182 CURVE SMOOTH",
"532 182 OFFCURVE",
"638 291 OFFCURVE",
"638 390 CURVE SMOOTH",
"638 398 OFFCURVE",
"637 405 OFFCURVE",
"636 412 CURVE",
"672 411 OFFCURVE",
"707 402 OFFCURVE",
"743 392 CURVE",
"722 356 LINE SMOOTH",
"641 209 OFFCURVE",
"524 -27 OFFCURVE",
"363 -143 CURVE"
);
},
{
closed = 1;
nodes = (
"245 197 OFFCURVE",
"149 232 OFFCURVE",
"92 303 CURVE",
"139 429 OFFCURVE",
"268 536 OFFCURVE",
"392 536 CURVE SMOOTH",
"500 536 OFFCURVE",
"564 500 OFFCURVE",
"590 451 CURVE",
"506 437 OFFCURVE",
"489 375 OFFCURVE",
"489 340 CURVE SMOOTH",
"489 335 OFFCURVE",
"493 333 OFFCURVE",
"497 333 CURVE SMOOTH",
"500 333 OFFCURVE",
"504 335 OFFCURVE",
"504 340 CURVE SMOOTH",
"504 371 OFFCURVE",
"514 407 OFFCURVE",
"604 412 CURVE",
"605 405 OFFCURVE",
"606 398 OFFCURVE",
"606 391 CURVE SMOOTH",
"606 299 OFFCURVE",
"510 197 OFFCURVE",
"355 197 CURVE SMOOTH"
);
},
{
closed = 1;
nodes = (
"49 373 OFFCURVE",
"37 420 OFFCURVE",
"37 477 CURVE SMOOTH",
"37 640 OFFCURVE",
"235 727 OFFCURVE",
"419 727 CURVE SMOOTH",
"584 727 OFFCURVE",
"752 684 OFFCURVE",
"916 651 CURVE",
"866 592 OFFCURVE",
"813 513 OFFCURVE",
"758 419 CURVE",
"717 436 OFFCURVE",
"674 454 OFFCURVE",
"630 454 CURVE SMOOTH",
"622 454 LINE",
"591 509 OFFCURVE",
"517 551 OFFCURVE",
"392 551 CURVE SMOOTH",
"270 551 OFFCURVE",
"133 453 OFFCURVE",
"72 333 CURVE"
);
}
);
width = 918;
}
);
note = F;
unicode = 0046;
},
{
color = 9;
glyphname = G;
lastChange = "2021-11-23 21:05:02 +0000";
layers = (
{
anchors = (
{
name = bottom;
position = "{236, -370}";
},
{
name = top;
position = "{935, 780}";
}
);
background = {
paths = (
{
closed = 1;
nodes = (
"581 -375 OFFCURVE",
"776 -108 OFFCURVE",
"891 156 CURVE SMOOTH",
"1006 420 OFFCURVE",
"1148 636 OFFCURVE",
"1248 607 CURVE SMOOTH",
"1254 605 OFFCURVE",
"1258 615 OFFCURVE",
"1252 617 CURVE SMOOTH",
"1172 639 OFFCURVE",
"1082 567 OFFCURVE",
"983 431 CURVE",
"986 438 LINE SMOOTH",
"991 450 OFFCURVE",
"981 457 OFFCURVE",
"976 442 CURVE SMOOTH",
"967 420 OFFCURVE",
"957 398 OFFCURVE",
"945 375 CURVE",
"928 349 OFFCURVE",
"912 320 OFFCURVE",
"892 291 CURVE SMOOTH",
"849 227 OFFCURVE",
"792 170 OFFCURVE",
"732 122 CURVE",
"747 184 OFFCURVE",
"740 244 OFFCURVE",
"708 290 CURVE",
"787 318 OFFCURVE",
"862 362 OFFCURVE",
"929 429 CURVE SMOOTH",
"1161 661 OFFCURVE",
"991 902 OFFCURVE",
"635 729 CURVE SMOOTH",
"553 690 OFFCURVE",
"484 643 OFFCURVE",
"427 593 CURVE",
"386 611 OFFCURVE",
"341 626 OFFCURVE",
"297 638 CURVE SMOOTH",
"-107 744 OFFCURVE",
"-147 379 OFFCURVE",
"205 279 CURVE",
"85 188 OFFCURVE",
"10 50 OFFCURVE",
"-2 -76 CURVE",
"-32 -38 OFFCURVE",
"-42 13 OFFCURVE",
"-21 75 CURVE SMOOTH",
"-18 84 OFFCURVE",
"-32 89 OFFCURVE",
"-35 80 CURVE SMOOTH",
"-62 1 OFFCURVE",
"-45 -59 OFFCURVE",
"-3 -103 CURVE",
"-6 -250 OFFCURVE",
"82 -375 OFFCURVE",
"292 -375 CURVE SMOOTH"
);
},
{
closed = 1;
nodes = (
"110 -363 OFFCURVE",
"28 -257 OFFCURVE",
"24 -126 CURVE",
"126 -198 OFFCURVE",
"317 -204 OFFCURVE",
"460 -154 CURVE SMOOTH",
"597 -106 OFFCURVE",
"689 -5 OFFCURVE",
"724 96 CURVE",
"768 130 OFFCURVE",
"811 171 OFFCURVE",
"849 216 CURVE",
"842 203 LINE SMOOTH",
"730 3 OFFCURVE",
"560 -363 OFFCURVE",
"293 -363 CURVE SMOOTH"
);
},
{
closed = 1;
nodes = (
"306 -192 OFFCURVE",
"117 -180 OFFCURVE",
"24 -103 CURVE",
"28 26 OFFCURVE",
"103 173 OFFCURVE",
"225 267 CURVE",
"220 243 OFFCURVE",
"217 219 OFFCURVE",
"217 196 CURVE SMOOTH",
"215 -35 OFFCURVE",
"414 -69 OFFCURVE",
"608 24 CURVE SMOOTH",
"635 37 OFFCURVE",
"661 52 OFFCURVE",
"686 69 CURVE",
"648 -18 OFFCURVE",
"567 -100 OFFCURVE",
"455 -140 CURVE SMOOTH"
);
},
{
closed = 1;
nodes = (
"449 -28 OFFCURVE",
"297 0 OFFCURVE",
"297 190 CURVE SMOOTH",
"297 212 OFFCURVE",
"300 235 OFFCURVE",
"305 259 CURVE",
"429 244 OFFCURVE",
"561 244 OFFCURVE",
"684 282 CURVE",
"717 232 OFFCURVE",
"720 164 OFFCURVE",
"697 96 CURVE",
"665 74 OFFCURVE",
"633 55 OFFCURVE",
"600 40 CURVE SMOOTH"
);
},
{
closed = 1;
nodes = (
"-95 397 OFFCURVE",
"-100 723 OFFCURVE",
"293 620 CURVE SMOOTH",
"333 610 OFFCURVE",
"374 596 OFFCURVE",
"413 580 CURVE",
"318 491 OFFCURVE",
"258 392 OFFCURVE",
"232 300 CURVE"
);
},
{
closed = 1;
nodes = (
"313 296 OFFCURVE",
"318 311 OFFCURVE",
"323 326 CURVE",
"376 349 OFFCURVE",
"435 363 OFFCURVE",
"499 363 CURVE SMOOTH",
"581 363 OFFCURVE",
"638 337 OFFCURVE",
"672 298 CURVE",
"553 263 OFFCURVE",
"426 263 OFFCURVE",
"310 282 CURVE"
);
},
{
closed = 1;
nodes = (
"657 349 OFFCURVE",
"593 378 OFFCURVE",
"499 378 CURVE SMOOTH",
"439 378 OFFCURVE",
"382 367 OFFCURVE",
"331 348 CURVE",
"359 418 OFFCURVE",
"404 491 OFFCURVE",
"463 557 CURVE",
"544 517 OFFCURVE",
"609 470 OFFCURVE",
"629 429 CURVE SMOOTH",
"635 416 OFFCURVE",
"653 419 OFFCURVE",
"644 438 CURVE SMOOTH",
"624 479 OFFCURVE",
"558 529 OFFCURVE",
"475 570 CURVE",
"521 619 OFFCURVE",
"574 663 OFFCURVE",
"633 698 CURVE SMOOTH",
"977 903 OFFCURVE",
"1121 643 OFFCURVE",
"925 447 CURVE SMOOTH",
"856 379 OFFCURVE",
"778 334 OFFCURVE",
"696 306 CURVE"
);
}
);
};
layerId = "32B14CDE-4F96-422E-BD5E-1145416534B1";
paths = (
{
closed = 1;
nodes = (
"581 -375 OFFCURVE",
"776 -108 OFFCURVE",
"891 156 CURVE SMOOTH",
"999 404 OFFCURVE",
"1131 610 OFFCURVE",
"1229 610 CURVE SMOOTH",
"1236 610 OFFCURVE",
"1242 609 OFFCURVE",
"1248 607 CURVE SMOOTH",
"1252 606 OFFCURVE",
"1255 609 OFFCURVE",
"1255 613 CURVE SMOOTH",
"1255 615 OFFCURVE",
"1254 616 OFFCURVE",
"1252 617 CURVE SMOOTH",
"1242 620 OFFCURVE",
"1233 621 OFFCURVE",
"1223 621 CURVE SMOOTH",
"1150 621 OFFCURVE",
"1070 551 OFFCURVE",
"983 431 CURVE",
"986 438 LINE SMOOTH",
"989 445 OFFCURVE",
"987 451 OFFCURVE",
"983 451 CURVE SMOOTH",
"981 451 OFFCURVE",
"978 448 OFFCURVE",
"976 442 CURVE SMOOTH",
"967 420 OFFCURVE",
"957 398 OFFCURVE",
"945 375 CURVE",
"928 349 OFFCURVE",
"912 320 OFFCURVE",
"892 291 CURVE SMOOTH",
"849 227 OFFCURVE",
"792 170 OFFCURVE",
"732 122 CURVE",
"737 143 OFFCURVE",
"740 163 OFFCURVE",
"740 183 CURVE SMOOTH",
"740 222 OFFCURVE",
"729 259 OFFCURVE",
"708 290 CURVE",
"787 318 OFFCURVE",
"862 362 OFFCURVE",
"929 429 CURVE SMOOTH",
"1002 502 OFFCURVE",
"1035 576 OFFCURVE",
"1035 638 CURVE SMOOTH",
"1035 725 OFFCURVE",
"969 788 OFFCURVE",
"855 788 CURVE SMOOTH",
"794 788 OFFCURVE",
"720 770 OFFCURVE",
"635 729 CURVE SMOOTH",
"553 690 OFFCURVE",
"484 643 OFFCURVE",
"427 593 CURVE",
"386 611 OFFCURVE",
"341 626 OFFCURVE",
"297 638 CURVE SMOOTH",
"246 651 OFFCURVE",
"202 657 OFFCURVE",
"163 657 CURVE SMOOTH",
"31 657 OFFCURVE",
"-35 591 OFFCURVE",
"-35 512 CURVE SMOOTH",
"-35 425 OFFCURVE",
"44 325 OFFCURVE",
"205 279 CURVE",
"85 188 OFFCURVE",
"10 50 OFFCURVE",
"-2 -76 CURVE",
"-21 -52 OFFCURVE",
"-32 -22 OFFCURVE",
"-32 12 CURVE SMOOTH",
"-32 32 OFFCURVE",
"-29 53 OFFCURVE",
"-21 75 CURVE SMOOTH",
"-19 81 OFFCURVE",
"-24 85 OFFCURVE",
"-29 85 CURVE SMOOTH",
"-31 85 OFFCURVE",
"-34 83 OFFCURVE",
"-35 80 CURVE SMOOTH",
"-44 54 OFFCURVE",
"-48 30 OFFCURVE",
"-48 8 CURVE SMOOTH",
"-48 -37 OFFCURVE",
"-31 -74 OFFCURVE",
"-3 -103 CURVE",
"-6 -250 OFFCURVE",
"82 -375 OFFCURVE",
"292 -375 CURVE SMOOTH"
);
},
{
closed = 1;
nodes = (
"110 -363 OFFCURVE",
"28 -257 OFFCURVE",
"24 -126 CURVE",
"82 -167 OFFCURVE",
"169 -187 OFFCURVE",
"260 -187 CURVE SMOOTH",
"328 -187 OFFCURVE",
"399 -175 OFFCURVE",
"460 -154 CURVE SMOOTH",
"597 -106 OFFCURVE",
"689 -5 OFFCURVE",
"724 96 CURVE",
"768 130 OFFCURVE",
"811 171 OFFCURVE",
"849 216 CURVE",
"842 203 LINE SMOOTH",
"733 1 OFFCURVE",
"560 -363 OFFCURVE",
"293 -363 CURVE SMOOTH"
);
},
{
closed = 1;
nodes = (
"169 -172 OFFCURVE",
"79 -149 OFFCURVE",
"24 -103 CURVE",
"28 26 OFFCURVE",
"103 173 OFFCURVE",
"225 267 CURVE",
"220 242 OFFCURVE",
"217 217 OFFCURVE",
"217 193 CURVE SMOOTH",
"217 41 OFFCURVE",
"304 -24 OFFCURVE",
"419 -24 CURVE SMOOTH",
"477 -24 OFFCURVE",
"543 -7 OFFCURVE",
"608 24 CURVE SMOOTH",
"635 37 OFFCURVE",
"661 52 OFFCURVE",
"686 69 CURVE",
"648 -18 OFFCURVE",
"567 -100 OFFCURVE",
"455 -140 CURVE SMOOTH",
"395 -161 OFFCURVE",
"328 -172 OFFCURVE",
"263 -172 CURVE SMOOTH"
);
},
{
closed = 1;
nodes = (
"367 6 OFFCURVE",
"297 61 OFFCURVE",
"297 190 CURVE SMOOTH",
"297 212 OFFCURVE",
"300 235 OFFCURVE",
"305 259 CURVE",
"353 253 OFFCURVE",
"402 250 OFFCURVE",
"451 250 CURVE SMOOTH",
"530 250 OFFCURVE",
"608 259 OFFCURVE",
"684 282 CURVE",
"703 253 OFFCURVE",
"712 219 OFFCURVE",
"712 182 CURVE SMOOTH",
"712 154 OFFCURVE",
"707 125 OFFCURVE",
"697 96 CURVE",
"665 74 OFFCURVE",
"633 55 OFFCURVE",
"600 40 CURVE SMOOTH",
"552 18 OFFCURVE",
"504 6 OFFCURVE",
"460 6 CURVE SMOOTH"
);
},
{
closed = 1;
nodes = (
"75 347 OFFCURVE",
"-8 446 OFFCURVE",
"-8 526 CURVE SMOOTH",
"-8 589 OFFCURVE",
"45 640 OFFCURVE",
"156 640 CURVE SMOOTH",
"195 640 OFFCURVE",
"240 634 OFFCURVE",
"293 620 CURVE SMOOTH",
"333 610 OFFCURVE",
"374 596 OFFCURVE",
"413 580 CURVE",
"318 491 OFFCURVE",
"258 392 OFFCURVE",
"232 300 CURVE"
);
},
{
closed = 1;
nodes = (
"410 269 OFFCURVE",
"359 274 OFFCURVE",
"310 282 CURVE",
"313 296 OFFCURVE",
"318 311 OFFCURVE",
"323 326 CURVE",
"376 349 OFFCURVE",
"435 363 OFFCURVE",
"499 363 CURVE SMOOTH",
"581 363 OFFCURVE",
"638 337 OFFCURVE",
"672 298 CURVE",
"603 278 OFFCURVE",
"532 269 OFFCURVE",
"462 269 CURVE SMOOTH"
);
},
{
closed = 1;
nodes = (
"657 349 OFFCURVE",
"593 378 OFFCURVE",
"499 378 CURVE SMOOTH",
"439 378 OFFCURVE",
"382 367 OFFCURVE",
"331 348 CURVE",
"359 418 OFFCURVE",
"404 491 OFFCURVE",
"463 557 CURVE",
"544 517 OFFCURVE",
"609 470 OFFCURVE",
"629 429 CURVE SMOOTH",
"632 424 OFFCURVE",
"636 421 OFFCURVE",
"640 421 CURVE SMOOTH",
"643 421 OFFCURVE",
"646 424 OFFCURVE",
"646 429 CURVE SMOOTH",
"646 431 OFFCURVE",
"646 434 OFFCURVE",
"644 438 CURVE SMOOTH",
"624 479 OFFCURVE",
"558 529 OFFCURVE",
"475 570 CURVE",
"521 619 OFFCURVE",
"574 663 OFFCURVE",
"633 698 CURVE SMOOTH",
"722 751 OFFCURVE",
"797 773 OFFCURVE",
"857 773 CURVE SMOOTH",
"957 773 OFFCURVE",
"1013 711 OFFCURVE",
"1013 631 CURVE SMOOTH",
"1013 574 OFFCURVE",
"985 507 OFFCURVE",
"925 447 CURVE SMOOTH",
"856 379 OFFCURVE",
"778 334 OFFCURVE",
"696 306 CURVE"
);
}
);
width = 975;
}
);
leftKerningGroup = G;
note = G;
rightKerningGroup = G;
unicode = 0047;
},
{
color = 9;
glyphname = H;
lastChange = "2021-11-23 21:05:24 +0000";
layers = (
{
anchors = (
{
name = bottom;
position = "{540, 0}";
},
{
name = center;
position = "{540, 400}";
},
{
name = top;
position = "{1074, 712}";
},
{
name = topleft;
position = "{20, 800}";
}
);
background = {
paths = (
{
closed = 1;
nodes = (
"300 -127 OFFCURVE",
"408 -45 OFFCURVE",
"493 61 CURVE",
"721 96 OFFCURVE",
"802 235 OFFCURVE",
"755 340 CURVE",
"859 340 LINE SMOOTH",
"869 340 OFFCURVE",
"892 341 OFFCURVE",
"920 343 CURVE",
"874 263 OFFCURVE",
"732 -54 OFFCURVE",
"908 -54 CURVE SMOOTH",
"1006 -54 OFFCURVE",
"1090 69 OFFCURVE",
"1149 189 CURVE SMOOTH",
"1153 197 OFFCURVE",
"1142 201 OFFCURVE",
"1138 192 CURVE SMOOTH",
"1079 68 OFFCURVE",
"987 -30 OFFCURVE",
"925 -30 CURVE SMOOTH",
"829 -30 OFFCURVE",
"867 135 OFFCURVE",
"995 351 CURVE",
"1074 362 OFFCURVE",
"1158 380 OFFCURVE",
"1170 406 CURVE SMOOTH",
"1174 414 OFFCURVE",
"1162 419 OFFCURVE",
"1159 411 CURVE SMOOTH",
"1149 391 OFFCURVE",
"1077 379 OFFCURVE",
"1006 371 CURVE",
"1098 536 OFFCURVE",
"1220 712 OFFCURVE",
"1301 801 CURVE",
"1311 808 OFFCURVE",
"1303 826 OFFCURVE",
"1290 810 CURVE SMOOTH",
"1212 717 OFFCURVE",
"1044 540 OFFCURVE",
"933 365 CURVE",
"898 363 OFFCURVE",
"869 362 OFFCURVE",
"859 362 CURVE SMOOTH",
"818 362 OFFCURVE",
"779 361 OFFCURVE",
"743 361 CURVE",
"730 381 OFFCURVE",
"712 399 OFFCURVE",
"688 414 CURVE",
"732 502 OFFCURVE",
"779 577 OFFCURVE",
"823 628 CURVE",
"848 628 OFFCURVE",
"875 630 OFFCURVE",
"899 633 CURVE SMOOTH",
"965 644 OFFCURVE",
"980 690 OFFCURVE",
"950 705 CURVE SMOOTH",
"947 706 OFFCURVE",
"944 706 OFFCURVE",
"943 705 CURVE",
"899 714 OFFCURVE",
"853 691 OFFCURVE",
"803 644 CURVE",
"771 647 LINE",
"574 683 OFFCURVE",
"401 753 OFFCURVE",
"205 661 CURVE SMOOTH",
"4 566 OFFCURVE",
"-42 331 OFFCURVE",
"74 182 CURVE",
"2 129 OFFCURVE",
"-54 59 OFFCURVE",
"-54 -18 CURVE SMOOTH",
"-54 -154 OFFCURVE",
"56 -167 OFFCURVE",
"170 -148 CURVE SMOOTH"
);
},
{
closed = 1;
nodes = (
"-22 -198 OFFCURVE",
"-130 7 OFFCURVE",
"87 167 CURVE",
"150 98 OFFCURVE",
"250 51 OFFCURVE",
"391 53 CURVE SMOOTH",
"401 53 OFFCURVE",
"411 54 OFFCURVE",
"420 54 CURVE",
"357 -31 OFFCURVE",
"282 -104 OFFCURVE",
"194 -131 CURVE SMOOTH"
);
},
{
closed = 1;
nodes = (
"252 66 OFFCURVE",
"157 111 OFFCURVE",
"102 177 CURVE",
"113 185 OFFCURVE",
"124 192 OFFCURVE",
"137 199 CURVE SMOOTH",
"182 226 OFFCURVE",
"226 247 OFFCURVE",
"270 265 CURVE",
"279 231 OFFCURVE",
"307 198 OFFCURVE",
"356 173 CURVE SMOOTH",
"365 169 OFFCURVE",
"372 182 OFFCURVE",
"363 187 CURVE SMOOTH",
"316 210 OFFCURVE",
"292 240 OFFCURVE",
"284 270 CURVE",
"376 306 OFFCURVE",
"470 324 OFFCURVE",
"587 333 CURVE",
"546 257 OFFCURVE",
"495 158 OFFCURVE",
"432 70 CURVE",
"419 69 OFFCURVE",
"405 68 OFFCURVE",
"391 68 CURVE SMOOTH"
);
},
{
closed = 1;
nodes = (
"281 310 OFFCURVE",
"286 329 OFFCURVE",
"297 347 CURVE SMOOTH",
"329 402 OFFCURVE",
"407 447 OFFCURVE",
"504 447 CURVE SMOOTH",
"557 447 OFFCURVE",
"602 436 OFFCURVE",
"637 419 CURVE",
"624 398 OFFCURVE",
"612 376 OFFCURVE",
"599 353 CURVE",
"475 343 OFFCURVE",
"377 326 OFFCURVE",
"281 291 CURVE"
);
},
{
closed = 1;
nodes = (
"560 149 OFFCURVE",
"603 227 OFFCURVE",
"638 305 CURVE SMOOTH",
"642 316 OFFCURVE",
"647 326 OFFCURVE",
"651 336 CURVE",
"718 339 LINE",
"760 246 OFFCURVE",
"695 120 OFFCURVE",
"508 80 CURVE"
);
},
{
closed = 1;
nodes = (
"-7 331 OFFCURVE",
"54 543 OFFCURVE",
"241 631 CURVE SMOOTH",
"432 721 OFFCURVE",
"575 661 OFFCURVE",
"768 633 CURVE SMOOTH",
"789 630 LINE",
"744 583 OFFCURVE",
"696 517 OFFCURVE",
"647 436 CURVE",
"608 452 OFFCURVE",
"560 462 OFFCURVE",
"504 462 CURVE SMOOTH",
"403 462 OFFCURVE",
"320 415 OFFCURVE",
"284 355 CURVE SMOOTH",
"271 333 OFFCURVE",
"265 309 OFFCURVE",
"266 285 CURVE",
"222 268 OFFCURVE",
"177 246 OFFCURVE",
"130 219 CURVE SMOOTH",
"116 211 OFFCURVE",
"103 202 OFFCURVE",
"90 193 CURVE"
);
},
{
closed = 1;
nodes = (
"667 369 OFFCURVE",
"672 381 OFFCURVE",
"678 392 CURVE",
"689 382 OFFCURVE",
"699 371 OFFCURVE",
"707 359 CURVE",
"691 359 OFFCURVE",
"676 358 OFFCURVE",
"661 357 CURVE"
);
},
{
closed = 1;
nodes = (
"876 684 OFFCURVE",
"913 704 OFFCURVE",
"946 695 CURVE",
"961 688 OFFCURVE",
"952 672 OFFCURVE",
"942 665 CURVE SMOOTH",
"920 649 OFFCURVE",
"876 643 OFFCURVE",
"837 643 CURVE"
);
}
);
};
layerId = "32B14CDE-4F96-422E-BD5E-1145416534B1";
paths = (
{
closed = 1;
nodes = (
"119 -155 OFFCURVE",
"144 -152 OFFCURVE",
"170 -148 CURVE SMOOTH",
"300 -127 OFFCURVE",
"408 -45 OFFCURVE",
"493 61 CURVE",
"680 90 OFFCURVE",
"768 188 OFFCURVE",
"768 280 CURVE SMOOTH",
"768 301 OFFCURVE",
"764 321 OFFCURVE",
"755 340 CURVE",
"859 340 LINE SMOOTH",
"869 340 OFFCURVE",
"892 341 OFFCURVE",
"920 343 CURVE",
"891 292 OFFCURVE",
"822 144 OFFCURVE",
"822 44 CURVE SMOOTH",
"822 -12 OFFCURVE",
"844 -54 OFFCURVE",
"908 -54 CURVE SMOOTH",
"1006 -54 OFFCURVE",
"1090 69 OFFCURVE",
"1149 189 CURVE SMOOTH",
"1151 194 OFFCURVE",
"1148 197 OFFCURVE",
"1145 197 CURVE SMOOTH",
"1142 197 OFFCURVE",
"1140 196 OFFCURVE",
"1138 192 CURVE SMOOTH",
"1079 68 OFFCURVE",
"987 -30 OFFCURVE",
"925 -30 CURVE SMOOTH",
"888 -30 OFFCURVE",
"871 -6 OFFCURVE",
"871 36 CURVE SMOOTH",
"871 104 OFFCURVE",
"916 218 OFFCURVE",
"995 351 CURVE",
"1074 362 OFFCURVE",
"1158 380 OFFCURVE",
"1170 406 CURVE SMOOTH",
"1173 411 OFFCURVE",
"1169 415 OFFCURVE",
"1165 415 CURVE SMOOTH",
"1162 415 OFFCURVE",
"1160 414 OFFCURVE",
"1159 411 CURVE SMOOTH",
"1149 391 OFFCURVE",
"1077 379 OFFCURVE",
"1006 371 CURVE",
"1098 536 OFFCURVE",
"1220 712 OFFCURVE",
"1301 801 CURVE",
"1304 803 OFFCURVE",
"1305 806 OFFCURVE",
"1305 809 CURVE SMOOTH",
"1305 813 OFFCURVE",
"1303 816 OFFCURVE",
"1300 816 CURVE SMOOTH",
"1297 816 OFFCURVE",
"1294 815 OFFCURVE",
"1290 810 CURVE SMOOTH",
"1212 717 OFFCURVE",
"1044 540 OFFCURVE",
"933 365 CURVE",
"898 363 OFFCURVE",
"869 362 OFFCURVE",
"859 362 CURVE SMOOTH",
"818 362 OFFCURVE",
"779 361 OFFCURVE",
"743 361 CURVE",
"730 381 OFFCURVE",
"712 399 OFFCURVE",
"688 414 CURVE",
"732 502 OFFCURVE",
"779 577 OFFCURVE",
"823 628 CURVE",
"848 628 OFFCURVE",
"875 630 OFFCURVE",
"899 633 CURVE SMOOTH",
"943 640 OFFCURVE",
"965 664 OFFCURVE",
"965 683 CURVE SMOOTH",
"965 692 OFFCURVE",
"960 700 OFFCURVE",
"950 705 CURVE SMOOTH",
"947 706 OFFCURVE",
"944 706 OFFCURVE",
"943 705 CURVE",
"937 706 OFFCURVE",
"930 707 OFFCURVE",
"924 707 CURVE SMOOTH",
"886 707 OFFCURVE",
"846 684 OFFCURVE",
"803 644 CURVE",
"771 647 LINE",
"646 670 OFFCURVE",
"530 707 OFFCURVE",
"412 707 CURVE SMOOTH",
"345 707 OFFCURVE",
"276 695 OFFCURVE",
"205 661 CURVE SMOOTH",
"77 600 OFFCURVE",
"11 482 OFFCURVE",
"11 366 CURVE SMOOTH",
"11 301 OFFCURVE",
"32 236 OFFCURVE",
"74 182 CURVE",
"2 129 OFFCURVE",
"-54 59 OFFCURVE",
"-54 -18 CURVE SMOOTH",
"-54 -123 OFFCURVE",
"12 -155 OFFCURVE",
"95 -155 CURVE SMOOTH"
);
},
{
closed = 1;
nodes = (
"25 -144 OFFCURVE",
"-32 -90 OFFCURVE",
"-32 -19 CURVE SMOOTH",
"-32 38 OFFCURVE",
"4 106 OFFCURVE",
"87 167 CURVE",
"149 99 OFFCURVE",
"246 53 OFFCURVE",
"382 53 CURVE SMOOTH",
"395 53 OFFCURVE",
"408 54 OFFCURVE",
"420 54 CURVE",
"357 -31 OFFCURVE",
"282 -104 OFFCURVE",
"194 -131 CURVE SMOOTH",
"165 -140 OFFCURVE",
"138 -144 OFFCURVE",
"114 -144 CURVE SMOOTH"
);
},
{
closed = 1;
nodes = (
"248 68 OFFCURVE",
"156 112 OFFCURVE",
"102 177 CURVE",
"113 185 OFFCURVE",
"124 192 OFFCURVE",
"137 199 CURVE SMOOTH",
"182 226 OFFCURVE",
"226 247 OFFCURVE",
"270 265 CURVE",
"279 231 OFFCURVE",
"307 198 OFFCURVE",
"356 173 CURVE SMOOTH",
"362 170 OFFCURVE",
"367 175 OFFCURVE",
"367 180 CURVE SMOOTH",
"367 183 OFFCURVE",
"366 185 OFFCURVE",
"363 187 CURVE SMOOTH",
"316 210 OFFCURVE",
"292 240 OFFCURVE",
"284 270 CURVE",
"376 306 OFFCURVE",
"470 324 OFFCURVE",
"587 333 CURVE",
"546 257 OFFCURVE",
"495 158 OFFCURVE",
"432 70 CURVE",
"416 69 OFFCURVE",
"399 68 OFFCURVE",
"382 68 CURVE SMOOTH"
);
},
{
closed = 1;
nodes = (
"281 310 OFFCURVE",
"286 329 OFFCURVE",
"297 347 CURVE SMOOTH",
"329 402 OFFCURVE",
"407 447 OFFCURVE",
"504 447 CURVE SMOOTH",
"557 447 OFFCURVE",
"602 436 OFFCURVE",
"637 419 CURVE",
"624 398 OFFCURVE",
"612 376 OFFCURVE",
"599 353 CURVE",
"475 343 OFFCURVE",
"377 326 OFFCURVE",
"281 291 CURVE"
);
},
{
closed = 1;
nodes = (
"560 149 OFFCURVE",
"603 227 OFFCURVE",
"638 305 CURVE SMOOTH",
"642 316 OFFCURVE",
"647 326 OFFCURVE",
"651 336 CURVE",
"718 339 LINE",
"726 321 OFFCURVE",
"730 302 OFFCURVE",
"730 282 CURVE SMOOTH",
"730 200 OFFCURVE",
"659 112 OFFCURVE",
"508 80 CURVE"
);
},
{
closed = 1;
nodes = (
"59 237 OFFCURVE",
"44 288 OFFCURVE",
"44 340 CURVE SMOOTH",
"44 453 OFFCURVE",
"113 571 OFFCURVE",
"241 631 CURVE SMOOTH",
"316 666 OFFCURVE",
"384 679 OFFCURVE",
"451 679 CURVE SMOOTH",
"553 679 OFFCURVE",
"651 650 OFFCURVE",
"768 633 CURVE SMOOTH",
"789 630 LINE",
"744 583 OFFCURVE",
"696 517 OFFCURVE",
"647 436 CURVE",
"608 452 OFFCURVE",
"560 462 OFFCURVE",
"504 462 CURVE SMOOTH",
"403 462 OFFCURVE",
"320 415 OFFCURVE",
"284 355 CURVE SMOOTH",
"271 333 OFFCURVE",
"265 309 OFFCURVE",
"266 285 CURVE",
"222 268 OFFCURVE",
"177 246 OFFCURVE",
"130 219 CURVE SMOOTH",
"116 211 OFFCURVE",
"103 202 OFFCURVE",
"90 193 CURVE"
);
},
{
closed = 1;
nodes = (
"667 369 OFFCURVE",
"672 381 OFFCURVE",
"678 392 CURVE",
"689 382 OFFCURVE",
"699 371 OFFCURVE",
"707 359 CURVE",
"691 359 OFFCURVE",
"676 358 OFFCURVE",
"661 357 CURVE"
);
},
{
closed = 1;
nodes = (
"870 677 OFFCURVE",
"901 697 OFFCURVE",
"930 697 CURVE SMOOTH",
"935 697 OFFCURVE",
"941 696 OFFCURVE",
"946 695 CURVE",
"952 692 OFFCURVE",
"954 688 OFFCURVE",
"954 684 CURVE SMOOTH",
"954 677 OFFCURVE",
"948 669 OFFCURVE",
"942 665 CURVE SMOOTH",
"920 649 OFFCURVE",
"876 643 OFFCURVE",
"837 643 CURVE"
);
}
);
width = 1080;
}
);
leftKerningGroup = H;
note = H;
rightKerningGroup = H;
unicode = 0048;
},
{
glyphname = Hbar;
lastChange = "2021-11-23 21:05:27 +0000";
layers = (
{
background = {
components = (
{
name = H;
},
{
name = emdash;
transform = "{1.25, 0, 0, 1, 455, 313}";
}
);
};
layerId = "32B14CDE-4F96-422E-BD5E-1145416534B1";
paths = (
{
closed = 1;
nodes = (
"119 -155 OFFCURVE",
"144 -152 OFFCURVE",
"170 -148 CURVE SMOOTH",
"300 -127 OFFCURVE",
"408 -45 OFFCURVE",
"493 61 CURVE",
"680 90 OFFCURVE",
"768 188 OFFCURVE",
"768 280 CURVE SMOOTH",
"768 301 OFFCURVE",
"764 321 OFFCURVE",
"755 340 CURVE",
"859 340 LINE SMOOTH",
"869 340 OFFCURVE",
"892 341 OFFCURVE",
"920 343 CURVE",
"891 292 OFFCURVE",
"822 144 OFFCURVE",
"822 44 CURVE SMOOTH",
"822 -12 OFFCURVE",
"844 -54 OFFCURVE",
"908 -54 CURVE SMOOTH",
"1006 -54 OFFCURVE",
"1090 69 OFFCURVE",
"1149 189 CURVE SMOOTH",
"1151 194 OFFCURVE",
"1148 197 OFFCURVE",
"1145 197 CURVE SMOOTH",
"1142 197 OFFCURVE",
"1140 196 OFFCURVE",
"1138 192 CURVE SMOOTH",
"1079 68 OFFCURVE",
"987 -30 OFFCURVE",
"925 -30 CURVE SMOOTH",
"888 -30 OFFCURVE",
"871 -6 OFFCURVE",
"871 36 CURVE SMOOTH",
"871 104 OFFCURVE",
"916 218 OFFCURVE",
"995 351 CURVE",
"1074 362 OFFCURVE",
"1158 380 OFFCURVE",
"1170 406 CURVE SMOOTH",
"1173 411 OFFCURVE",
"1169 415 OFFCURVE",
"1165 415 CURVE SMOOTH",
"1162 415 OFFCURVE",
"1160 414 OFFCURVE",
"1159 411 CURVE SMOOTH",
"1149 391 OFFCURVE",
"1077 379 OFFCURVE",
"1006 371 CURVE",
"1098 536 OFFCURVE",
"1220 712 OFFCURVE",
"1301 801 CURVE",
"1304 803 OFFCURVE",
"1305 806 OFFCURVE",
"1305 809 CURVE SMOOTH",
"1305 813 OFFCURVE",
"1303 816 OFFCURVE",
"1300 816 CURVE SMOOTH",
"1297 816 OFFCURVE",
"1294 815 OFFCURVE",
"1290 810 CURVE SMOOTH",
"1212 717 OFFCURVE",
"1044 540 OFFCURVE",
"933 365 CURVE",
"898 363 OFFCURVE",
"869 362 OFFCURVE",
"859 362 CURVE SMOOTH",
"818 362 OFFCURVE",
"779 361 OFFCURVE",
"743 361 CURVE",
"730 381 OFFCURVE",
"712 399 OFFCURVE",
"688 414 CURVE",
"732 502 OFFCURVE",
"779 577 OFFCURVE",
"823 628 CURVE",
"848 628 OFFCURVE",
"875 630 OFFCURVE",
"899 633 CURVE SMOOTH",
"943 640 OFFCURVE",
"965 664 OFFCURVE",
"965 683 CURVE SMOOTH",
"965 692 OFFCURVE",
"960 700 OFFCURVE",
"950 705 CURVE SMOOTH",
"947 706 OFFCURVE",
"944 706 OFFCURVE",
"943 705 CURVE",
"937 706 OFFCURVE",
"930 707 OFFCURVE",
"924 707 CURVE SMOOTH",
"886 707 OFFCURVE",
"846 684 OFFCURVE",
"803 644 CURVE",
"771 647 LINE",
"646 670 OFFCURVE",
"530 707 OFFCURVE",
"412 707 CURVE SMOOTH",
"345 707 OFFCURVE",
"276 695 OFFCURVE",
"205 661 CURVE SMOOTH",
"77 600 OFFCURVE",
"11 482 OFFCURVE",
"11 366 CURVE SMOOTH",
"11 301 OFFCURVE",
"32 236 OFFCURVE",
"74 182 CURVE",
"2 129 OFFCURVE",
"-54 59 OFFCURVE",
"-54 -18 CURVE SMOOTH",
"-54 -123 OFFCURVE",
"12 -155 OFFCURVE",
"95 -155 CURVE SMOOTH"
);
},
{
closed = 1;
nodes = (
"25 -144 OFFCURVE",
"-32 -90 OFFCURVE",
"-32 -19 CURVE SMOOTH",
"-32 38 OFFCURVE",
"4 106 OFFCURVE",
"87 167 CURVE",
"149 99 OFFCURVE",
"246 53 OFFCURVE",
"382 53 CURVE SMOOTH",
"395 53 OFFCURVE",
"408 54 OFFCURVE",
"420 54 CURVE",
"357 -31 OFFCURVE",
"282 -104 OFFCURVE",
"194 -131 CURVE SMOOTH",
"165 -140 OFFCURVE",
"138 -144 OFFCURVE",
"114 -144 CURVE SMOOTH"
);
},
{
closed = 1;
nodes = (
"248 68 OFFCURVE",
"156 112 OFFCURVE",
"102 177 CURVE",
"113 185 OFFCURVE",
"124 192 OFFCURVE",
"137 199 CURVE SMOOTH",
"182 226 OFFCURVE",
"226 247 OFFCURVE",
"270 265 CURVE",
"279 231 OFFCURVE",
"307 198 OFFCURVE",
"356 173 CURVE SMOOTH",
"362 170 OFFCURVE",
"367 175 OFFCURVE",
"367 180 CURVE SMOOTH",
"367 183 OFFCURVE",
"366 185 OFFCURVE",
"363 187 CURVE SMOOTH",
"316 210 OFFCURVE",
"292 240 OFFCURVE",
"284 270 CURVE",
"376 306 OFFCURVE",
"470 324 OFFCURVE",
"587 333 CURVE",
"546 257 OFFCURVE",
"495 158 OFFCURVE",
"432 70 CURVE",
"416 69 OFFCURVE",
"399 68 OFFCURVE",
"382 68 CURVE SMOOTH"
);
},
{
closed = 1;
nodes = (
"281 310 OFFCURVE",
"286 329 OFFCURVE",
"297 347 CURVE SMOOTH",
"329 402 OFFCURVE",
"407 447 OFFCURVE",
"504 447 CURVE SMOOTH",
"557 447 OFFCURVE",
"602 436 OFFCURVE",
"637 419 CURVE",
"624 398 OFFCURVE",
"612 376 OFFCURVE",
"599 353 CURVE",
"475 343 OFFCURVE",
"377 326 OFFCURVE",
"281 291 CURVE"
);
},
{
closed = 1;
nodes = (
"560 149 OFFCURVE",
"603 227 OFFCURVE",
"638 305 CURVE SMOOTH",
"642 316 OFFCURVE",
"647 326 OFFCURVE",
"651 336 CURVE",
"718 339 LINE",
"726 321 OFFCURVE",
"730 302 OFFCURVE",
"730 282 CURVE SMOOTH",
"730 200 OFFCURVE",
"659 112 OFFCURVE",
"508 80 CURVE"
);
},
{
closed = 1;
nodes = (
"59 237 OFFCURVE",
"44 288 OFFCURVE",
"44 340 CURVE SMOOTH",
"44 453 OFFCURVE",
"113 571 OFFCURVE",
"241 631 CURVE SMOOTH",
"316 666 OFFCURVE",
"384 679 OFFCURVE",
"451 679 CURVE SMOOTH",
"553 679 OFFCURVE",
"651 650 OFFCURVE",
"768 633 CURVE SMOOTH",
"789 630 LINE",
"744 583 OFFCURVE",
"696 517 OFFCURVE",
"647 436 CURVE",
"608 452 OFFCURVE",
"560 462 OFFCURVE",
"504 462 CURVE SMOOTH",
"403 462 OFFCURVE",
"320 415 OFFCURVE",
"284 355 CURVE SMOOTH",
"271 333 OFFCURVE",
"265 309 OFFCURVE",
"266 285 CURVE",
"222 268 OFFCURVE",
"177 246 OFFCURVE",
"130 219 CURVE SMOOTH",
"116 211 OFFCURVE",
"103 202 OFFCURVE",
"90 193 CURVE"
);
},
{
closed = 1;
nodes = (
"667 369 OFFCURVE",
"672 381 OFFCURVE",
"678 392 CURVE",
"689 382 OFFCURVE",
"699 371 OFFCURVE",
"707 359 CURVE",
"691 359 OFFCURVE",
"676 358 OFFCURVE",
"661 357 CURVE"
);
},
{
closed = 1;
nodes = (
"1198 510 LINE",
"1198 536 LINE",
"581 536 LINE",
"580 510 LINE"
);
},
{
closed = 1;
nodes = (
"870 677 OFFCURVE",
"901 697 OFFCURVE",
"930 697 CURVE SMOOTH",
"935 697 OFFCURVE",
"941 696 OFFCURVE",
"946 695 CURVE",
"952 692 OFFCURVE",
"954 688 OFFCURVE",
"954 684 CURVE SMOOTH",
"954 677 OFFCURVE",
"948 669 OFFCURVE",
"942 665 CURVE SMOOTH",
"920 649 OFFCURVE",
"876 643 OFFCURVE",
"837 643 CURVE"
);
}
);
width = 980;
}
);
leftKerningGroup = H;
rightKerningGroup = H;
unicode = 0126;
},
{
color = 9;
glyphname = I;
lastChange = "2021-11-23 21:05:43 +0000";
layers = (
{
anchors = (
{
name = bottom;
position = "{212, -79}";
},
{
name = ogonek;
position = "{289, -68}";
},
{
name = top;
position = "{992, 800}";
},
{
name = topleft;
position = "{20, 800}";
}
);
background = {
paths = (
{
closed = 1;
nodes = (
"305 -61 OFFCURVE",
"354 -42 OFFCURVE",
"399 -16 CURVE",
"439 -46 OFFCURVE",
"490 -65 OFFCURVE",
"553 -65 CURVE SMOOTH",
"643 -65 OFFCURVE",
"732 -29 OFFCURVE",
"751 20 CURVE SMOOTH",
"755 30 OFFCURVE",
"746 35 OFFCURVE",
"742 25 CURVE SMOOTH",
"726 -14 OFFCURVE",
"642 -49 OFFCURVE",
"553 -49 CURVE SMOOTH",
"497 -49 OFFCURVE",
"451 -33 OFFCURVE",
"414 -7 CURVE",
"510 53 OFFCURVE",
"586 146 OFFCURVE",
"648 252 CURVE",
"938 277 OFFCURVE",
"995 520 OFFCURVE",
"812 582 CURVE",
"845 642 OFFCURVE",
"884 703 OFFCURVE",
"923 748 CURVE",
"949 746 OFFCURVE",
"985 747 OFFCURVE",
"1014 755 CURVE SMOOTH",
"1072 771 OFFCURVE",
"1094 827 OFFCURVE",
"1023 827 CURVE SMOOTH",
"980 827 OFFCURVE",
"939 804 OFFCURVE",
"898 763 CURVE",
"763 778 OFFCURVE",
"602 804 OFFCURVE",
"463 721 CURVE SMOOTH",
"335 644 OFFCURVE",
"301 495 OFFCURVE",
"338 392 CURVE",
"279 263 OFFCURVE",
"288 102 OFFCURVE",
"356 10 CURVE",
"328 -19 OFFCURVE",
"298 -40 OFFCURVE",
"260 -52 CURVE SMOOTH",
"19 -126 OFFCURVE",
"-92 137 OFFCURVE",
"203 307 CURVE SMOOTH",
"218 316 OFFCURVE",
"217 328 OFFCURVE",
"193 315 CURVE SMOOTH",
"92 257 OFFCURVE",
"1 167 OFFCURVE",
"1 67 CURVE SMOOTH",
"1 -76 OFFCURVE",
"132 -89 OFFCURVE",
"251 -70 CURVE SMOOTH"
);
},
{
closed = 1;
nodes = (
"303 106 OFFCURVE",
"291 253 OFFCURVE",
"356 375 CURVE",
"392 312 OFFCURVE",
"463 264 OFFCURVE",
"567 253 CURVE",
"509 162 OFFCURVE",
"448 79 OFFCURVE",
"382 21 CURVE"
);
},
{
closed = 1;
nodes = (
"463 274 OFFCURVE",
"394 326 OFFCURVE",
"366 392 CURVE",
"432 501 OFFCURVE",
"558 589 OFFCURVE",
"761 578 CURVE",
"701 481 OFFCURVE",
"639 368 OFFCURVE",
"574 264 CURVE"
);
},
{
closed = 1;
nodes = (
"333 503 OFFCURVE",
"379 621 OFFCURVE",
"493 689 CURVE SMOOTH",
"625 768 OFFCURVE",
"759 764 OFFCURVE",
"887 752 CURVE",
"848 711 OFFCURVE",
"809 655 OFFCURVE",
"770 593 CURVE",
"558 605 OFFCURVE",
"431 521 OFFCURVE",
"360 411 CURVE"
);
},
{
closed = 1;
nodes = (
"711 363 OFFCURVE",
"751 469 OFFCURVE",
"804 568 CURVE",
"943 509 OFFCURVE",
"922 297 OFFCURVE",
"656 265 CURVE"
);
},
{
closed = 1;
nodes = (
"958 785 OFFCURVE",
"982 803 OFFCURVE",
"1006 811 CURVE SMOOTH",
"1081 836 OFFCURVE",
"1079 754 OFFCURVE",
"934 760 CURVE"
);
}
);
};
layerId = "32B14CDE-4F96-422E-BD5E-1145416534B1";
paths = (
{
closed = 1;
nodes = (
"198 -77 OFFCURVE",
"225 -74 OFFCURVE",
"251 -70 CURVE SMOOTH",
"305 -61 OFFCURVE",
"354 -42 OFFCURVE",
"399 -16 CURVE",
"439 -46 OFFCURVE",
"490 -65 OFFCURVE",
"553 -65 CURVE SMOOTH",
"643 -65 OFFCURVE",
"732 -29 OFFCURVE",
"751 20 CURVE SMOOTH",
"753 26 OFFCURVE",
"751 30 OFFCURVE",
"748 30 CURVE SMOOTH",
"746 30 OFFCURVE",
"744 29 OFFCURVE",
"742 25 CURVE SMOOTH",
"726 -14 OFFCURVE",
"642 -49 OFFCURVE",
"553 -49 CURVE SMOOTH",
"497 -49 OFFCURVE",
"451 -33 OFFCURVE",
"414 -7 CURVE",
"510 53 OFFCURVE",
"586 146 OFFCURVE",
"648 252 CURVE",
"827 267 OFFCURVE",
"917 366 OFFCURVE",
"917 453 CURVE SMOOTH",
"917 508 OFFCURVE",
"882 558 OFFCURVE",
"812 582 CURVE",
"845 642 OFFCURVE",
"884 703 OFFCURVE",
"923 748 CURVE",
"949 746 OFFCURVE",
"985 747 OFFCURVE",
"1014 755 CURVE SMOOTH",
"1046 764 OFFCURVE",
"1068 785 OFFCURVE",
"1068 803 CURVE SMOOTH",
"1068 816 OFFCURVE",
"1054 827 OFFCURVE",
"1023 827 CURVE SMOOTH",
"980 827 OFFCURVE",
"939 804 OFFCURVE",
"898 763 CURVE",
"836 770 OFFCURVE",
"769 779 OFFCURVE",
"701 779 CURVE SMOOTH",
"620 779 OFFCURVE",
"538 766 OFFCURVE",
"463 721 CURVE SMOOTH",
"367 663 OFFCURVE",
"324 565 OFFCURVE",
"324 476 CURVE SMOOTH",
"324 446 OFFCURVE",
"329 418 OFFCURVE",
"338 392 CURVE",
"312 334 OFFCURVE",
"299 270 OFFCURVE",
"299 209 CURVE SMOOTH",
"299 133 OFFCURVE",
"318 61 OFFCURVE",
"356 10 CURVE",
"328 -19 OFFCURVE",
"298 -40 OFFCURVE",
"260 -52 CURVE SMOOTH",
"231 -61 OFFCURVE",
"204 -65 OFFCURVE",
"180 -65 CURVE SMOOTH",
"86 -65 OFFCURVE",
"26 -5 OFFCURVE",
"26 73 CURVE SMOOTH",
"26 146 OFFCURVE",
"78 235 OFFCURVE",
"203 307 CURVE SMOOTH",
"209 311 OFFCURVE",
"213 315 OFFCURVE",
"213 318 CURVE SMOOTH",
"213 320 OFFCURVE",
"212 321 OFFCURVE",
"209 321 CURVE SMOOTH",
"206 321 OFFCURVE",
"201 319 OFFCURVE",
"193 315 CURVE SMOOTH",
"92 257 OFFCURVE",
"1 167 OFFCURVE",
"1 67 CURVE SMOOTH",
"1 -44 OFFCURVE",
"80 -77 OFFCURVE",
"172 -77 CURVE SMOOTH"
);
},
{
closed = 1;
nodes = (
"337 69 OFFCURVE",
"314 137 OFFCURVE",
"314 209 CURVE SMOOTH",
"314 264 OFFCURVE",
"328 322 OFFCURVE",
"356 375 CURVE",
"392 312 OFFCURVE",
"463 264 OFFCURVE",
"567 253 CURVE",
"509 162 OFFCURVE",
"448 79 OFFCURVE",
"382 21 CURVE"
);
},
{
closed = 1;
nodes = (
"463 274 OFFCURVE",
"394 326 OFFCURVE",
"366 392 CURVE",
"428 495 OFFCURVE",
"544 579 OFFCURVE",
"727 579 CURVE SMOOTH",
"738 579 OFFCURVE",
"749 579 OFFCURVE",
"761 578 CURVE",
"701 481 OFFCURVE",
"639 368 OFFCURVE",
"574 264 CURVE"
);
},
{
closed = 1;
nodes = (
"711 363 OFFCURVE",
"751 469 OFFCURVE",
"804 568 CURVE",
"859 545 OFFCURVE",
"889 498 OFFCURVE",
"889 448 CURVE SMOOTH",
"889 370 OFFCURVE",
"817 284 OFFCURVE",
"656 265 CURVE"
);
},
{
closed = 1;
nodes = (
"355 428 OFFCURVE",
"352 446 OFFCURVE",
"352 465 CURVE SMOOTH",
"352 545 OFFCURVE",
"400 634 OFFCURVE",
"493 689 CURVE SMOOTH",
"584 744 OFFCURVE",
"677 759 OFFCURVE",
"768 759 CURVE SMOOTH",
"808 759 OFFCURVE",
"848 756 OFFCURVE",
"887 752 CURVE",
"848 711 OFFCURVE",
"809 655 OFFCURVE",
"770 593 CURVE",
"756 594 OFFCURVE",
"743 594 OFFCURVE",
"730 594 CURVE SMOOTH",
"542 594 OFFCURVE",
"426 514 OFFCURVE",
"360 411 CURVE"
);
},
{
closed = 1;
nodes = (
"958 785 OFFCURVE",
"982 803 OFFCURVE",
"1006 811 CURVE SMOOTH",
"1016 814 OFFCURVE",
"1024 816 OFFCURVE",
"1031 816 CURVE SMOOTH",
"1047 816 OFFCURVE",
"1055 809 OFFCURVE",
"1055 801 CURVE SMOOTH",
"1055 783 OFFCURVE",
"1019 756 OFFCURVE",
"934 760 CURVE"
);
}
);
width = 826;
}
);
leftKerningGroup = I;
note = I;
rightKerningGroup = I;
unicode = 0049;
},
{
color = 9;
glyphname = J;
lastChange = "2021-11-19 15:58:07 +0000";
layers = (
{
anchors = (
{
name = bottom;
position = "{36, -377}";
},
{
name = top;
position = "{1123, 800}";
}
);
background = {
paths = (
{
closed = 1;
nodes = (
"247 -349 OFFCURVE",
"359 -271 OFFCURVE",
"459 -167 CURVE",
"612 -198 OFFCURVE",
"809 -143 OFFCURVE",
"809 15 CURVE SMOOTH",
"809 52 OFFCURVE",
"797 85 OFFCURVE",
"772 114 CURVE",
"999 199 OFFCURVE",
"1020 410 OFFCURVE",
"864 503 CURVE",
"907 583 OFFCURVE",
"960 669 OFFCURVE",
"1014 728 CURVE",
"1045 727 OFFCURVE",
"1078 729 OFFCURVE",
"1107 734 CURVE SMOOTH",
"1135 739 OFFCURVE",
"1194 795 OFFCURVE",
"1164 810 CURVE",
"1162 812 LINE",
"1161 812 OFFCURVE",
"1159 813 OFFCURVE",
"1158 813 CURVE SMOOTH",
"1105 825 OFFCURVE",
"1047 801 OFFCURVE",
"986 747 CURVE",
"969 749 LINE SMOOTH",
"755 787 OFFCURVE",
"567 863 OFFCURVE",
"355 764 CURVE SMOOTH",
"114 650 OFFCURVE",
"78 336 OFFCURVE",
"259 175 CURVE",
"197 156 OFFCURVE",
"137 129 OFFCURVE",
"81 97 CURVE SMOOTH",
"-40 27 OFFCURVE",
"-158 -84 OFFCURVE",
"-158 -203 CURVE SMOOTH",
"-158 -375 OFFCURVE",
"-13 -392 OFFCURVE",
"130 -368 CURVE SMOOTH"
);
},
{
closed = 1;
nodes = (
"-137 -435 OFFCURVE",
"-265 -132 OFFCURVE",
"87 73 CURVE SMOOTH",
"147 108 OFFCURVE",
"212 138 OFFCURVE",
"278 160 CURVE",
"345 108 OFFCURVE",
"438 76 OFFCURVE",
"557 78 CURVE SMOOTH",
"558 78 LINE",
"512 4 OFFCURVE",
"461 -72 OFFCURVE",
"407 -139 CURVE",
"348 -118 OFFCURVE",
"305 -80 OFFCURVE",
"298 -27 CURVE SMOOTH",
"296 -16 OFFCURVE",
"282 -18 OFFCURVE",
"284 -29 CURVE SMOOTH",
"291 -85 OFFCURVE",
"337 -125 OFFCURVE",
"398 -150 CURVE",
"319 -245 OFFCURVE",
"235 -320 OFFCURVE",
"152 -346 CURVE SMOOTH"
);
},
{
closed = 1;
nodes = (
"538 -83 OFFCURVE",
"599 0 OFFCURVE",
"652 85 CURVE",
"689 90 OFFCURVE",
"722 97 OFFCURVE",
"753 107 CURVE",
"777 80 OFFCURVE",
"788 48 OFFCURVE",
"788 15 CURVE SMOOTH",
"788 -122 OFFCURVE",
"612 -176 OFFCURVE",
"471 -155 CURVE"
);
},
{
closed = 1;
nodes = (
"445 92 OFFCURVE",
"359 121 OFFCURVE",
"298 166 CURVE",
"354 182 OFFCURVE",
"411 192 OFFCURVE",
"468 192 CURVE SMOOTH",
"526 192 OFFCURVE",
"576 187 OFFCURVE",
"617 177 CURVE",
"602 150 OFFCURVE",
"585 122 OFFCURVE",
"568 94 CURVE",
"557 94 LINE SMOOTH"
);
},
{
closed = 1;
nodes = (
"673 120 OFFCURVE",
"683 136 OFFCURVE",
"692 152 CURVE",
"709 144 OFFCURVE",
"724 134 OFFCURVE",
"736 123 CURVE",
"714 115 OFFCURVE",
"690 109 OFFCURVE",
"663 104 CURVE"
);
},
{
closed = 1;
nodes = (
"111 329 OFFCURVE",
"164 624 OFFCURVE",
"394 732 CURVE SMOOTH",
"601 829 OFFCURVE",
"757 769 OFFCURVE",
"966 733 CURVE SMOOTH",
"970 732 LINE",
"919 683 OFFCURVE",
"865 614 OFFCURVE",
"811 527 CURVE",
"774 540 OFFCURVE",
"729 548 OFFCURVE",
"679 548 CURVE SMOOTH",
"570 548 OFFCURVE",
"479 497 OFFCURVE",
"441 432 CURVE SMOOTH",
"401 366 OFFCURVE",
"418 286 OFFCURVE",
"519 235 CURVE SMOOTH",
"529 230 OFFCURVE",
"536 239 OFFCURVE",
"527 244 CURVE SMOOTH",
"433 292 OFFCURVE",
"421 367 OFFCURVE",
"455 424 CURVE SMOOTH",
"490 483 OFFCURVE",
"574 531 OFFCURVE",
"679 531 CURVE SMOOTH",
"726 531 OFFCURVE",
"767 524 OFFCURVE",
"801 510 CURVE",
"775 468 OFFCURVE",
"749 422 OFFCURVE",
"723 372 CURVE SMOOTH",
"698 325 OFFCURVE",
"665 262 OFFCURVE",
"626 192 CURVE",
"581 203 OFFCURVE",
"529 208 OFFCURVE",
"468 208 CURVE SMOOTH",
"405 208 OFFCURVE",
"341 199 OFFCURVE",
"279 181 CURVE"
);
},
{
closed = 1;
nodes = (
"741 144 OFFCURVE",
"722 157 OFFCURVE",
"700 167 CURVE",
"727 217 OFFCURVE",
"751 266 OFFCURVE",
"771 312 CURVE SMOOTH",
"786 346 OFFCURVE",
"815 410 OFFCURVE",
"852 481 CURVE",
"971 392 OFFCURVE",
"947 209 OFFCURVE",
"756 131 CURVE"
);
},
{
closed = 1;
nodes = (
"1073 788 OFFCURVE",
"1118 813 OFFCURVE",
"1158 801 CURVE",
"1175 793 OFFCURVE",
"1164 775 OFFCURVE",
"1154 768 CURVE SMOOTH",
"1128 749 OFFCURVE",
"1075 744 OFFCURVE",
"1029 744 CURVE"
);
}
);
};
layerId = "32B14CDE-4F96-422E-BD5E-1145416534B1";
paths = (
{
closed = 1;
nodes = (
"66 -377 OFFCURVE",
"98 -373 OFFCURVE",
"130 -368 CURVE SMOOTH",
"247 -349 OFFCURVE",
"359 -271 OFFCURVE",
"459 -167 CURVE",
"486 -172 OFFCURVE",
"515 -175 OFFCURVE",
"543 -175 CURVE SMOOTH",
"676 -175 OFFCURVE",
"809 -115 OFFCURVE",
"809 15 CURVE SMOOTH",
"809 52 OFFCURVE",
"797 85 OFFCURVE",
"772 114 CURVE",
"902 163 OFFCURVE",
"965 253 OFFCURVE",
"965 339 CURVE SMOOTH",
"965 402 OFFCURVE",
"930 463 OFFCURVE",
"864 503 CURVE",
"907 583 OFFCURVE",
"960 669 OFFCURVE",
"1014 728 CURVE",
"1045 727 OFFCURVE",
"1078 729 OFFCURVE",
"1107 734 CURVE SMOOTH",
"1130 738 OFFCURVE",
"1172 775 OFFCURVE",
"1172 797 CURVE SMOOTH",
"1172 803 OFFCURVE",
"1170 807 OFFCURVE",
"1164 810 CURVE",
"1162 812 LINE",
"1158 813 LINE SMOOTH",
"1149 815 OFFCURVE",
"1140 816 OFFCURVE",
"1131 816 CURVE SMOOTH",
"1085 816 OFFCURVE",
"1037 792 OFFCURVE",
"986 747 CURVE",
"969 749 LINE SMOOTH",
"832 765 OFFCURVE",
"707 813 OFFCURVE",
"579 813 CURVE SMOOTH",
"506 813 OFFCURVE",
"432 800 OFFCURVE",
"355 764 CURVE SMOOTH",
"216 698 OFFCURVE",
"145 565 OFFCURVE",
"145 434 CURVE SMOOTH",
"145 338 OFFCURVE",
"183 243 OFFCURVE",
"259 175 CURVE",
"197 156 OFFCURVE",
"137 129 OFFCURVE",
"81 97 CURVE SMOOTH",
"-40 27 OFFCURVE",
"-158 -84 OFFCURVE",
"-158 -203 CURVE SMOOTH",
"-158 -337 OFFCURVE",
"-71 -377 OFFCURVE",
"36 -377 CURVE SMOOTH"
);
},
{
closed = 1;
nodes = (
"-56 -362 OFFCURVE",
"-126 -295 OFFCURVE",
"-126 -205 CURVE SMOOTH",
"-126 -120 OFFCURVE",
"-63 -15 OFFCURVE",
"87 73 CURVE SMOOTH",
"147 108 OFFCURVE",
"212 138 OFFCURVE",
"278 160 CURVE",
"345 108 OFFCURVE",
"438 78 OFFCURVE",
"557 78 CURVE SMOOTH",
"558 78 LINE",
"512 4 OFFCURVE",
"461 -72 OFFCURVE",
"407 -139 CURVE",
"348 -118 OFFCURVE",
"305 -80 OFFCURVE",
"298 -27 CURVE SMOOTH",
"297 -22 OFFCURVE",
"294 -20 OFFCURVE",
"291 -20 CURVE SMOOTH",
"287 -20 OFFCURVE",
"284 -22 OFFCURVE",
"284 -27 CURVE SMOOTH",
"284 -29 LINE SMOOTH",
"284 -85 OFFCURVE",
"337 -125 OFFCURVE",
"398 -150 CURVE",
"319 -245 OFFCURVE",
"235 -320 OFFCURVE",
"152 -346 CURVE SMOOTH",
"117 -357 OFFCURVE",
"84 -362 OFFCURVE",
"54 -362 CURVE SMOOTH"
);
},
{
closed = 1;
nodes = (
"445 94 OFFCURVE",
"359 121 OFFCURVE",
"298 166 CURVE",
"354 182 OFFCURVE",
"411 192 OFFCURVE",
"468 192 CURVE SMOOTH",
"526 192 OFFCURVE",
"576 187 OFFCURVE",
"617 177 CURVE",
"602 150 OFFCURVE",
"585 122 OFFCURVE",
"568 94 CURVE",
"557 94 LINE SMOOTH"
);
},
{
closed = 1;
nodes = (
"511 -159 OFFCURVE",
"491 -158 OFFCURVE",
"471 -155 CURVE",
"538 -83 OFFCURVE",
"599 0 OFFCURVE",
"652 85 CURVE",
"689 90 OFFCURVE",
"722 97 OFFCURVE",
"753 107 CURVE",
"777 80 OFFCURVE",
"788 48 OFFCURVE",
"788 15 CURVE SMOOTH",
"788 -103 OFFCURVE",
"658 -159 OFFCURVE",
"531 -159 CURVE SMOOTH"
);
},
{
closed = 1;
nodes = (
"673 120 OFFCURVE",
"683 136 OFFCURVE",
"692 152 CURVE",
"709 144 OFFCURVE",
"724 134 OFFCURVE",
"736 123 CURVE",
"714 115 OFFCURVE",
"690 109 OFFCURVE",
"663 104 CURVE"
);
},
{
closed = 1;
nodes = (
"213 240 OFFCURVE",
"181 321 OFFCURVE",
"181 405 CURVE SMOOTH",
"181 533 OFFCURVE",
"255 667 OFFCURVE",
"394 732 CURVE SMOOTH",
"477 771 OFFCURVE",
"552 785 OFFCURVE",
"626 785 CURVE SMOOTH",
"735 785 OFFCURVE",
"843 764 OFFCURVE",
"966 733 CURVE SMOOTH",
"970 732 LINE",
"919 683 OFFCURVE",
"865 614 OFFCURVE",
"811 527 CURVE",
"774 540 OFFCURVE",
"729 548 OFFCURVE",
"679 548 CURVE SMOOTH",
"570 548 OFFCURVE",
"479 497 OFFCURVE",
"441 432 CURVE SMOOTH",
"428 411 OFFCURVE",
"421 388 OFFCURVE",
"421 365 CURVE SMOOTH",
"421 317 OFFCURVE",
"451 269 OFFCURVE",
"519 235 CURVE SMOOTH",
"526 232 OFFCURVE",
"531 235 OFFCURVE",
"531 238 CURVE SMOOTH",
"531 240 OFFCURVE",
"530 242 OFFCURVE",
"527 244 CURVE SMOOTH",
"464 276 OFFCURVE",
"438 321 OFFCURVE",
"438 364 CURVE SMOOTH",
"438 385 OFFCURVE",
"444 405 OFFCURVE",
"455 424 CURVE SMOOTH",
"490 483 OFFCURVE",
"574 531 OFFCURVE",
"679 531 CURVE SMOOTH",
"726 531 OFFCURVE",
"767 524 OFFCURVE",
"801 510 CURVE",
"775 468 OFFCURVE",
"749 422 OFFCURVE",
"723 372 CURVE SMOOTH",
"698 325 OFFCURVE",
"665 262 OFFCURVE",
"626 192 CURVE",
"581 203 OFFCURVE",
"529 208 OFFCURVE",
"468 208 CURVE SMOOTH",
"405 208 OFFCURVE",
"341 199 OFFCURVE",
"279 181 CURVE"
);
},
{
closed = 1;
nodes = (
"741 144 OFFCURVE",
"722 157 OFFCURVE",
"700 167 CURVE",
"727 217 OFFCURVE",
"751 266 OFFCURVE",
"771 312 CURVE SMOOTH",
"786 346 OFFCURVE",
"815 410 OFFCURVE",
"852 481 CURVE",
"900 445 OFFCURVE",
"925 394 OFFCURVE",
"925 341 CURVE SMOOTH",
"925 262 OFFCURVE",
"870 178 OFFCURVE",
"756 131 CURVE"
);
},
{
closed = 1;
nodes = (
"1066 781 OFFCURVE",
"1103 804 OFFCURVE",
"1137 804 CURVE SMOOTH",
"1144 804 OFFCURVE",
"1151 803 OFFCURVE",
"1158 801 CURVE SMOOTH",
"1164 798 OFFCURVE",
"1167 794 OFFCURVE",
"1167 789 CURVE SMOOTH",
"1167 781 OFFCURVE",
"1160 772 OFFCURVE",
"1154 768 CURVE SMOOTH",
"1128 749 OFFCURVE",
"1075 744 OFFCURVE",
"1029 744 CURVE"
);
}
);
width = 926;
}
);
note = J;
unicode = 004A;
},
{
color = 9;
glyphname = K;
lastChange = "2021-11-23 21:05:57 +0000";
layers = (
{
anchors = (
{
name = bottom;
position = "{430, -114}";
},
{
name = top;
position = "{492, 800}";
}
);
background = {
paths = (
{
closed = 1;
nodes = (
"70 -220 OFFCURVE",
"230 -96 OFFCURVE",
"345 58 CURVE",
"371 55 OFFCURVE",
"397 53 OFFCURVE",
"422 53 CURVE SMOOTH",
"473 53 OFFCURVE",
"523 59 OFFCURVE",
"572 71 CURVE",
"632 -24 OFFCURVE",
"710 -121 OFFCURVE",
"832 -121 CURVE SMOOTH",
"935 -121 OFFCURVE",
"987 -47 OFFCURVE",
"987 50 CURVE SMOOTH",
"987 68 OFFCURVE",
"978 174 OFFCURVE",
"961 174 CURVE SMOOTH",
"957 174 OFFCURVE",
"954 171 OFFCURVE",
"954 167 CURVE SMOOTH",
"954 164 LINE",
"965 125 OFFCURVE",
"974 84 OFFCURVE",
"974 43 CURVE SMOOTH",
"974 -21 OFFCURVE",
"949 -84 OFFCURVE",
"875 -84 CURVE SMOOTH",
"781 -84 OFFCURVE",
"693 24 OFFCURVE",
"642 92 CURVE",
"754 133 OFFCURVE",
"859 214 OFFCURVE",
"895 331 CURVE",
"896 332 OFFCURVE",
"896 333 OFFCURVE",
"896 334 CURVE SMOOTH",
"896 338 OFFCURVE",
"892 341 OFFCURVE",
"888 341 CURVE SMOOTH",
"884 341 OFFCURVE",
"882 339 OFFCURVE",
"881 336 CURVE SMOOTH",
"874 317 OFFCURVE",
"867 298 OFFCURVE",
"857 280 CURVE SMOOTH",
"810 193 OFFCURVE",
"725 135 OFFCURVE",
"634 102 CURVE",
"590 162 OFFCURVE",
"549 225 OFFCURVE",
"504 283 CURVE",
"629 435 OFFCURVE",
"925 715 OFFCURVE",
"1116 772 CURVE SMOOTH",
"1148 782 OFFCURVE",
"1183 788 OFFCURVE",
"1217 788 CURVE SMOOTH",
"1267 788 OFFCURVE",
"1356 769 OFFCURVE",
"1356 704 CURVE SMOOTH",
"1356 643 OFFCURVE",
"1274 598 OFFCURVE",
"1227 577 CURVE SMOOTH",
"1209 570 OFFCURVE",
"1192 564 OFFCURVE",
"1174 558 CURVE SMOOTH",
"1170 556 OFFCURVE",
"1165 553 OFFCURVE",
"1165 548 CURVE SMOOTH",
"1165 544 OFFCURVE",
"1170 542 OFFCURVE",
"1174 542 CURVE SMOOTH",
"1177 542 OFFCURVE",
"1180 543 OFFCURVE",
"1183 544 CURVE SMOOTH",
"1253 571 OFFCURVE",
"1371 629 OFFCURVE",
"1371 718 CURVE SMOOTH",
"1371 803 OFFCURVE",
"1269 837 OFFCURVE",
"1200 837 CURVE SMOOTH",
"1169 837 OFFCURVE",
"1139 833 OFFCURVE",
"1109 824 CURVE SMOOTH",
"905 762 OFFCURVE",
"616 468 OFFCURVE",
"490 301 CURVE",
"486 305 LINE",
"528 402 OFFCURVE",
"687 761 OFFCURVE",
"814 761 CURVE SMOOTH",
"832 761 OFFCURVE",
"844 751 OFFCURVE",
"857 751 CURVE SMOOTH",
"865 751 OFFCURVE",
"876 756 OFFCURVE",
"876 766 CURVE SMOOTH",
"876 780 OFFCURVE",
"851 782 OFFCURVE",
"842 782 CURVE SMOOTH",
"807 782 OFFCURVE",
"771 783 OFFCURVE",
"735 783 CURVE SMOOTH",
"704 783 OFFCURVE",
"672 783 OFFCURVE",
"640 781 CURVE SMOOTH",
"550 778 OFFCURVE",
"461 769 OFFCURVE",
"373 747 CURVE SMOOTH",
"202 704 OFFCURVE",
"3 592 OFFCURVE",
"3 390 CURVE SMOOTH",
"3 232 OFFCURVE",
"130 115 OFFCURVE",
"274 73 CURVE",
"184 -61 OFFCURVE",
"58 -207 OFFCURVE",
"-118 -207 CURVE SMOOTH",
"-195 -207 OFFCURVE",
"-288 -177 OFFCURVE",
"-288 -84 CURVE SMOOTH",
"-288 -78 OFFCURVE",
"-287 -71 OFFCURVE",
"-287 -65 CURVE SMOOTH",
"-287 -61 OFFCURVE",
"-288 -58 OFFCURVE",
"-293 -58 CURVE SMOOTH",
"-304 -58 OFFCURVE",
"-302 -89 OFFCURVE",
"-302 -96 CURVE SMOOTH",
"-302 -194 OFFCURVE",
"-213 -220 OFFCURVE",
"-131 -220 CURVE SMOOTH"
);
},
{
closed = 1;
nodes = (
"413 68 OFFCURVE",
"385 71 OFFCURVE",
"358 76 CURVE",
"396 130 OFFCURVE",
"430 188 OFFCURVE",
"470 241 CURVE",
"504 190 OFFCURVE",
"532 135 OFFCURVE",
"565 82 CURVE",
"524 73 OFFCURVE",
"482 68 OFFCURVE",
"441 68 CURVE SMOOTH"
);
},
{
closed = 1;
nodes = (
"161 141 OFFCURVE",
"61 254 OFFCURVE",
"61 394 CURVE SMOOTH",
"61 583 OFFCURVE",
"234 691 OFFCURVE",
"397 734 CURVE SMOOTH",
"477 755 OFFCURVE",
"558 763 OFFCURVE",
"640 766 CURVE SMOOTH",
"667 768 OFFCURVE",
"695 768 OFFCURVE",
"722 768 CURVE SMOOTH",
"774 767 LINE",
"643 718 OFFCURVE",
"502 471 OFFCURVE",
"437 354 CURVE",
"401 386 OFFCURVE",
"352 418 OFFCURVE",
"302 418 CURVE SMOOTH",
"293 418 OFFCURVE",
"250 413 OFFCURVE",
"250 400 CURVE SMOOTH",
"250 397 OFFCURVE",
"252 396 OFFCURVE",
"254 396 CURVE SMOOTH",
"262 396 OFFCURVE",
"271 400 OFFCURVE",
"279 400 CURVE SMOOTH",
"331 400 OFFCURVE",
"383 351 OFFCURVE",
"416 315 CURVE",
"375 240 OFFCURVE",
"334 165 OFFCURVE",
"288 94 CURVE"
);
}
);
};
layerId = "32B14CDE-4F96-422E-BD5E-1145416534B1";
paths = (
{
closed = 1;
nodes = (
"70 -220 OFFCURVE",
"230 -96 OFFCURVE",
"345 58 CURVE",
"371 55 OFFCURVE",
"397 53 OFFCURVE",
"422 53 CURVE SMOOTH",
"473 53 OFFCURVE",
"523 59 OFFCURVE",
"572 71 CURVE",
"632 -24 OFFCURVE",
"710 -121 OFFCURVE",
"832 -121 CURVE SMOOTH",
"935 -121 OFFCURVE",
"987 -47 OFFCURVE",
"987 50 CURVE SMOOTH",
"987 68 OFFCURVE",
"978 174 OFFCURVE",
"961 174 CURVE SMOOTH",
"957 174 OFFCURVE",
"954 171 OFFCURVE",
"954 167 CURVE SMOOTH",
"954 164 LINE",
"965 125 OFFCURVE",
"974 84 OFFCURVE",
"974 43 CURVE SMOOTH",
"974 -21 OFFCURVE",
"949 -84 OFFCURVE",
"875 -84 CURVE SMOOTH",
"781 -84 OFFCURVE",
"693 24 OFFCURVE",
"642 92 CURVE",
"754 133 OFFCURVE",
"859 214 OFFCURVE",
"895 331 CURVE",
"896 332 OFFCURVE",
"896 333 OFFCURVE",
"896 334 CURVE SMOOTH",
"896 338 OFFCURVE",
"892 341 OFFCURVE",
"888 341 CURVE SMOOTH",
"884 341 OFFCURVE",
"882 339 OFFCURVE",
"881 336 CURVE SMOOTH",
"874 317 OFFCURVE",
"867 298 OFFCURVE",
"857 280 CURVE SMOOTH",
"810 193 OFFCURVE",
"725 135 OFFCURVE",
"634 102 CURVE",
"590 162 OFFCURVE",
"549 225 OFFCURVE",
"504 283 CURVE",
"629 435 OFFCURVE",
"925 715 OFFCURVE",
"1116 772 CURVE SMOOTH",
"1148 782 OFFCURVE",
"1183 788 OFFCURVE",
"1217 788 CURVE SMOOTH",
"1267 788 OFFCURVE",
"1356 769 OFFCURVE",
"1356 704 CURVE SMOOTH",
"1356 643 OFFCURVE",
"1274 598 OFFCURVE",
"1227 577 CURVE SMOOTH",
"1209 570 OFFCURVE",
"1192 564 OFFCURVE",
"1174 558 CURVE SMOOTH",
"1170 556 OFFCURVE",
"1165 553 OFFCURVE",
"1165 548 CURVE SMOOTH",
"1165 544 OFFCURVE",
"1170 542 OFFCURVE",
"1174 542 CURVE SMOOTH",
"1177 542 OFFCURVE",
"1180 543 OFFCURVE",
"1183 544 CURVE SMOOTH",
"1253 571 OFFCURVE",
"1371 629 OFFCURVE",
"1371 718 CURVE SMOOTH",
"1371 803 OFFCURVE",
"1269 837 OFFCURVE",
"1200 837 CURVE SMOOTH",
"1169 837 OFFCURVE",
"1139 833 OFFCURVE",
"1109 824 CURVE SMOOTH",
"905 762 OFFCURVE",
"616 468 OFFCURVE",
"490 301 CURVE",
"486 305 LINE",
"528 402 OFFCURVE",
"687 761 OFFCURVE",
"814 761 CURVE SMOOTH",
"832 761 OFFCURVE",
"844 751 OFFCURVE",
"857 751 CURVE SMOOTH",
"865 751 OFFCURVE",
"876 756 OFFCURVE",
"876 766 CURVE SMOOTH",
"876 780 OFFCURVE",
"851 782 OFFCURVE",
"842 782 CURVE SMOOTH",
"807 782 OFFCURVE",
"771 783 OFFCURVE",
"735 783 CURVE SMOOTH",
"704 783 OFFCURVE",
"672 783 OFFCURVE",
"640 781 CURVE SMOOTH",
"550 778 OFFCURVE",
"461 769 OFFCURVE",
"373 747 CURVE SMOOTH",
"202 704 OFFCURVE",
"3 592 OFFCURVE",
"3 390 CURVE SMOOTH",
"3 232 OFFCURVE",
"130 115 OFFCURVE",
"274 73 CURVE",
"184 -61 OFFCURVE",
"58 -207 OFFCURVE",
"-118 -207 CURVE SMOOTH",
"-195 -207 OFFCURVE",
"-288 -177 OFFCURVE",
"-288 -84 CURVE SMOOTH",
"-288 -78 OFFCURVE",
"-287 -71 OFFCURVE",
"-287 -65 CURVE SMOOTH",
"-287 -61 OFFCURVE",
"-288 -58 OFFCURVE",
"-293 -58 CURVE SMOOTH",
"-301 -58 OFFCURVE",
"-302 -75 OFFCURVE",
"-302 -86 CURVE SMOOTH",
"-302 -96 LINE SMOOTH",
"-302 -194 OFFCURVE",
"-213 -220 OFFCURVE",
"-131 -220 CURVE SMOOTH"
);
},
{
closed = 1;
nodes = (
"413 68 OFFCURVE",
"385 71 OFFCURVE",
"358 76 CURVE",
"396 130 OFFCURVE",
"430 188 OFFCURVE",
"470 241 CURVE",
"504 190 OFFCURVE",
"532 135 OFFCURVE",
"565 82 CURVE",
"524 73 OFFCURVE",
"482 68 OFFCURVE",
"441 68 CURVE SMOOTH"
);
},
{
closed = 1;
nodes = (
"161 141 OFFCURVE",
"61 254 OFFCURVE",
"61 394 CURVE SMOOTH",
"61 583 OFFCURVE",
"234 691 OFFCURVE",
"397 734 CURVE SMOOTH",
"477 755 OFFCURVE",
"558 763 OFFCURVE",
"640 766 CURVE SMOOTH",
"667 768 OFFCURVE",
"695 769 OFFCURVE",
"722 768 CURVE SMOOTH",
"774 767 LINE",
"643 718 OFFCURVE",
"502 471 OFFCURVE",
"437 354 CURVE",
"401 386 OFFCURVE",
"352 418 OFFCURVE",
"302 418 CURVE SMOOTH",
"293 418 OFFCURVE",
"250 413 OFFCURVE",
"250 400 CURVE SMOOTH",
"250 397 OFFCURVE",
"252 396 OFFCURVE",
"254 396 CURVE SMOOTH",
"262 396 OFFCURVE",
"271 400 OFFCURVE",
"279 400 CURVE SMOOTH",
"331 400 OFFCURVE",
"383 351 OFFCURVE",
"416 315 CURVE",
"375 240 OFFCURVE",
"334 165 OFFCURVE",
"288 94 CURVE"
);
}
);
width = 983;
}
);
leftKerningGroup = K;
note = K;
rightKerningGroup = K;
unicode = 004B;
},
{
color = 9;
glyphname = L;
lastChange = "2021-11-23 21:06:07 +0000";
layers = (
{
anchors = (
{
name = bottom;
position = "{606, -174}";
},
{
name = center;
position = "{404, 400}";
},
{
name = top;
position = "{992, 808}";
},
{
name = topright;
position = "{1106, 800}";
}
);
background = {
paths = (
{
closed = 1;
nodes = (
"990 -290 OFFCURVE",
"1170 -195 OFFCURVE",
"1098 -16 CURVE SMOOTH",
"1094 -7 OFFCURVE",
"1080 -12 OFFCURVE",
"1084 -22 CURVE SMOOTH",
"1147 -179 OFFCURVE",
"936 -201 OFFCURVE",
"735 -129 CURVE SMOOTH",
"680 -110 OFFCURVE",
"627 -86 OFFCURVE",
"574 -62 CURVE",
"727 28 OFFCURVE",
"813 192 OFFCURVE",
"792 381 CURVE",
"936 451 OFFCURVE",
"1054 567 OFFCURVE",
"1054 724 CURVE SMOOTH",
"1054 808 OFFCURVE",
"986 833 OFFCURVE",
"926 816 CURVE SMOOTH",
"859 797 OFFCURVE",
"784 728 OFFCURVE",
"705 616 CURVE",
"620 730 OFFCURVE",
"478 796 OFFCURVE",
"345 796 CURVE SMOOTH",
"-47 796 OFFCURVE",
"-58 301 OFFCURVE",
"464 301 CURVE SMOOTH",
"482 301 OFFCURVE",
"501 302 OFFCURVE",
"520 304 CURVE",
"475 221 OFFCURVE",
"420 126 OFFCURVE",
"357 44 CURVE",
"299 71 OFFCURVE",
"242 95 OFFCURVE",
"183 114 CURVE SMOOTH",
"-56 192 OFFCURVE",
"-77 -62 OFFCURVE",
"176 -122 CURVE",
"154 -134 OFFCURVE",
"132 -143 OFFCURVE",
"110 -150 CURVE SMOOTH",
"-6 -186 OFFCURVE",
"-170 -156 OFFCURVE",
"-153 -22 CURVE SMOOTH",
"-152 -13 OFFCURVE",
"-164 -13 OFFCURVE",
"-166 -21 CURVE SMOOTH",
"-191 -171 OFFCURVE",
"-43 -190 OFFCURVE",
"82 -170 CURVE SMOOTH",
"128 -162 OFFCURVE",
"172 -148 OFFCURVE",
"213 -129 CURVE",
"236 -132 OFFCURVE",
"262 -134 OFFCURVE",
"290 -134 CURVE SMOOTH",
"373 -134 OFFCURVE",
"449 -119 OFFCURVE",
"516 -91 CURVE",
"577 -129 OFFCURVE",
"640 -165 OFFCURVE",
"707 -189 CURVE SMOOTH"
);
},
{
closed = 1;
nodes = (
"-24 -61 OFFCURVE",
"-12 162 OFFCURVE",
"179 100 CURVE SMOOTH",
"234 82 OFFCURVE",
"287 55 OFFCURVE",
"340 23 CURVE",
"296 -30 OFFCURVE",
"248 -77 OFFCURVE",
"195 -110 CURVE"
);
},
{
closed = 1;
nodes = (
"268 -119 OFFCURVE",
"252 -118 OFFCURVE",
"237 -117 CURVE",
"291 -88 OFFCURVE",
"341 -50 OFFCURVE",
"386 -6 CURVE",
"496 -78 LINE",
"434 -105 OFFCURVE",
"363 -119 OFFCURVE",
"285 -119 CURVE SMOOTH"
);
},
{
closed = 1;
nodes = (
"504 -28 OFFCURVE",
"457 -4 OFFCURVE",
"410 19 CURVE",
"490 104 OFFCURVE",
"556 209 OFFCURVE",
"606 318 CURVE",
"660 329 OFFCURVE",
"715 346 OFFCURVE",
"767 370 CURVE",
"781 192 OFFCURVE",
"697 35 OFFCURVE",
"551 -50 CURVE"
);
},
{
closed = 1;
nodes = (
"-7 316 OFFCURVE",
"13 781 OFFCURVE",
"345 781 CURVE SMOOTH",
"477 781 OFFCURVE",
"613 713 OFFCURVE",
"692 596 CURVE",
"654 540 OFFCURVE",
"614 475 OFFCURVE",
"574 402 CURVE SMOOTH",
"529 320 LINE",
"507 318 OFFCURVE",
"485 316 OFFCURVE",
"464 316 CURVE SMOOTH"
);
},
{
closed = 1;
nodes = (
"623 355 LINE SMOOTH",
"654 425 OFFCURVE",
"686 491 OFFCURVE",
"719 550 CURVE",
"726 535 OFFCURVE",
"733 519 OFFCURVE",
"739 503 CURVE SMOOTH",
"753 463 OFFCURVE",
"762 423 OFFCURVE",
"766 385 CURVE",
"717 363 OFFCURVE",
"665 346 OFFCURVE",
"614 334 CURVE"
);
},
{
closed = 1;
nodes = (
"785 433 OFFCURVE",
"776 470 OFFCURVE",
"763 507 CURVE SMOOTH",
"755 531 OFFCURVE",
"745 554 OFFCURVE",
"732 575 CURVE",
"797 687 OFFCURVE",
"863 772 OFFCURVE",
"922 799 CURVE SMOOTH",
"976 823 OFFCURVE",
"1039 798 OFFCURVE",
"1039 724 CURVE SMOOTH",
"1039 580 OFFCURVE",
"929 467 OFFCURVE",
"790 397 CURVE"
);
}
);
};
layerId = "32B14CDE-4F96-422E-BD5E-1145416534B1";
paths = (
{
closed = 1;
nodes = (
"1039 -230 OFFCURVE",
"1114 -177 OFFCURVE",
"1114 -90 CURVE SMOOTH",
"1114 -68 OFFCURVE",
"1109 -43 OFFCURVE",
"1098 -16 CURVE",
"1096 -13 OFFCURVE",
"1094 -11 OFFCURVE",
"1091 -11 CURVE SMOOTH",
"1087 -11 OFFCURVE",
"1083 -14 OFFCURVE",
"1083 -19 CURVE SMOOTH",
"1083 -20 OFFCURVE",
"1084 -21 OFFCURVE",
"1084 -22 CURVE",
"1092 -41 OFFCURVE",
"1095 -58 OFFCURVE",
"1095 -74 CURVE SMOOTH",
"1095 -139 OFFCURVE",
"1030 -168 OFFCURVE",
"940 -168 CURVE SMOOTH",
"879 -168 OFFCURVE",
"806 -155 OFFCURVE",
"735 -129 CURVE SMOOTH",
"680 -110 OFFCURVE",
"627 -86 OFFCURVE",
"574 -62 CURVE",
"712 19 OFFCURVE",
"795 160 OFFCURVE",
"795 325 CURVE SMOOTH",
"795 343 OFFCURVE",
"794 362 OFFCURVE",
"792 381 CURVE",
"936 451 OFFCURVE",
"1054 567 OFFCURVE",
"1054 724 CURVE SMOOTH",
"1054 792 OFFCURVE",
"1010 821 OFFCURVE",
"961 821 CURVE SMOOTH",
"950 821 OFFCURVE",
"938 819 OFFCURVE",
"926 816 CURVE SMOOTH",
"859 797 OFFCURVE",
"784 728 OFFCURVE",
"705 616 CURVE",
"620 730 OFFCURVE",
"478 796 OFFCURVE",
"345 796 CURVE SMOOTH",
"161 796 OFFCURVE",
"61 687 OFFCURVE",
"61 571 CURVE SMOOTH",
"61 440 OFFCURVE",
"188 301 OFFCURVE",
"464 301 CURVE SMOOTH",
"482 301 OFFCURVE",
"501 302 OFFCURVE",
"520 304 CURVE",
"475 221 OFFCURVE",
"420 126 OFFCURVE",
"357 44 CURVE",
"299 71 OFFCURVE",
"242 95 OFFCURVE",
"183 114 CURVE SMOOTH",
"152 124 OFFCURVE",
"124 129 OFFCURVE",
"101 129 CURVE SMOOTH",
"31 129 OFFCURVE",
"-5 90 OFFCURVE",
"-5 42 CURVE SMOOTH",
"-5 -18 OFFCURVE",
"53 -93 OFFCURVE",
"176 -122 CURVE",
"154 -134 OFFCURVE",
"132 -143 OFFCURVE",
"110 -150 CURVE SMOOTH",
"81 -159 OFFCURVE",
"48 -164 OFFCURVE",
"16 -164 CURVE SMOOTH",
"-71 -164 OFFCURVE",
"-154 -127 OFFCURVE",
"-154 -41 CURVE SMOOTH",
"-154 -34 OFFCURVE",
"-153 -27 OFFCURVE",
"-153 -20 CURVE SMOOTH",
"-153 -17 OFFCURVE",
"-156 -15 OFFCURVE",
"-159 -15 CURVE SMOOTH",
"-162 -15 OFFCURVE",
"-165 -17 OFFCURVE",
"-166 -21 CURVE SMOOTH",
"-168 -32 OFFCURVE",
"-169 -43 OFFCURVE",
"-169 -53 CURVE SMOOTH",
"-169 -147 OFFCURVE",
"-87 -177 OFFCURVE",
"3 -177 CURVE SMOOTH",
"29 -177 OFFCURVE",
"56 -174 OFFCURVE",
"82 -170 CURVE SMOOTH",
"128 -162 OFFCURVE",
"172 -148 OFFCURVE",
"213 -129 CURVE",
"236 -132 OFFCURVE",
"262 -134 OFFCURVE",
"290 -134 CURVE SMOOTH",
"373 -134 OFFCURVE",
"449 -119 OFFCURVE",
"516 -91 CURVE",
"577 -129 OFFCURVE",
"640 -165 OFFCURVE",
"707 -189 CURVE SMOOTH",
"786 -217 OFFCURVE",
"858 -230 OFFCURVE",
"917 -230 CURVE SMOOTH"
);
},
{
closed = 1;
nodes = (
"85 -85 OFFCURVE",
"33 -17 OFFCURVE",
"33 37 CURVE SMOOTH",
"33 78 OFFCURVE",
"62 111 OFFCURVE",
"118 111 CURVE SMOOTH",
"136 111 OFFCURVE",
"156 107 OFFCURVE",
"179 100 CURVE SMOOTH",
"234 82 OFFCURVE",
"287 55 OFFCURVE",
"340 23 CURVE",
"296 -30 OFFCURVE",
"248 -77 OFFCURVE",
"195 -110 CURVE"
);
},
{
closed = 1;
nodes = (
"268 -119 OFFCURVE",
"252 -118 OFFCURVE",
"237 -117 CURVE",
"291 -88 OFFCURVE",
"341 -50 OFFCURVE",
"386 -6 CURVE",
"496 -78 LINE",
"434 -105 OFFCURVE",
"363 -119 OFFCURVE",
"285 -119 CURVE SMOOTH"
);
},
{
closed = 1;
nodes = (
"504 -28 OFFCURVE",
"457 -4 OFFCURVE",
"410 19 CURVE",
"490 104 OFFCURVE",
"556 209 OFFCURVE",
"606 318 CURVE",
"660 329 OFFCURVE",
"715 346 OFFCURVE",
"767 370 CURVE",
"768 357 OFFCURVE",
"769 344 OFFCURVE",
"769 332 CURVE SMOOTH",
"769 170 OFFCURVE",
"686 29 OFFCURVE",
"551 -50 CURVE"
);
},
{
closed = 1;
nodes = (
"214 316 OFFCURVE",
"102 447 OFFCURVE",
"102 570 CURVE SMOOTH",
"102 679 OFFCURVE",
"189 781 OFFCURVE",
"345 781 CURVE SMOOTH",
"477 781 OFFCURVE",
"613 713 OFFCURVE",
"692 596 CURVE",
"654 540 OFFCURVE",
"614 475 OFFCURVE",
"574 402 CURVE SMOOTH",
"529 320 LINE",
"507 318 OFFCURVE",
"485 316 OFFCURVE",
"464 316 CURVE SMOOTH"
);
},
{
closed = 1;
nodes = (
"623 355 LINE SMOOTH",
"653 425 OFFCURVE",
"686 491 OFFCURVE",
"719 550 CURVE",
"726 535 OFFCURVE",
"733 519 OFFCURVE",
"739 503 CURVE SMOOTH",
"753 463 OFFCURVE",
"762 423 OFFCURVE",
"766 385 CURVE",
"717 363 OFFCURVE",
"665 346 OFFCURVE",
"614 334 CURVE"
);
},
{
closed = 1;
nodes = (
"785 433 OFFCURVE",
"776 470 OFFCURVE",
"763 507 CURVE SMOOTH",
"755 531 OFFCURVE",
"745 554 OFFCURVE",
"732 575 CURVE",
"797 687 OFFCURVE",
"863 772 OFFCURVE",
"922 799 CURVE SMOOTH",
"935 805 OFFCURVE",
"949 808 OFFCURVE",
"962 808 CURVE SMOOTH",
"1003 808 OFFCURVE",
"1039 780 OFFCURVE",
"1039 724 CURVE SMOOTH",
"1039 580 OFFCURVE",
"929 467 OFFCURVE",
"790 397 CURVE"
);
}
);
width = 808;
}
);
leftKerningGroup = L;
note = L;
rightKerningGroup = L;
unicode = 004C;
},
{
glyphname = Lslash;
lastChange = "2021-11-23 21:06:45 +0000";
layers = (
{
anchors = (
{
name = bottom;
position = "{606, -148}";
},
{
name = center;
position = "{404, 400}";
},
{
name = top;
position = "{992, 808}";
},
{
name = topright;
position = "{1106, 800}";
}
);
background = {
components = (
{
name = L;
},
{
name = hyphen;
transform = "{1.21241, 0.25771, -0.2016, 0.94844, 258, -92}";
}
);
};
layerId = "32B14CDE-4F96-422E-BD5E-1145416534B1";
paths = (
{
closed = 1;
nodes = (
"1039 -230 OFFCURVE",
"1114 -177 OFFCURVE",
"1114 -90 CURVE SMOOTH",
"1114 -68 OFFCURVE",
"1109 -43 OFFCURVE",
"1098 -16 CURVE",
"1096 -13 OFFCURVE",
"1094 -11 OFFCURVE",
"1091 -11 CURVE SMOOTH",
"1087 -11 OFFCURVE",
"1083 -14 OFFCURVE",
"1083 -19 CURVE SMOOTH",
"1083 -20 OFFCURVE",
"1084 -21 OFFCURVE",
"1084 -22 CURVE",
"1092 -41 OFFCURVE",
"1095 -58 OFFCURVE",
"1095 -74 CURVE SMOOTH",
"1095 -139 OFFCURVE",
"1030 -168 OFFCURVE",
"940 -168 CURVE SMOOTH",
"879 -168 OFFCURVE",
"806 -155 OFFCURVE",
"735 -129 CURVE SMOOTH",
"680 -110 OFFCURVE",
"627 -86 OFFCURVE",
"574 -62 CURVE",
"712 19 OFFCURVE",
"795 160 OFFCURVE",
"795 325 CURVE SMOOTH",
"795 343 OFFCURVE",
"794 362 OFFCURVE",
"792 381 CURVE",
"936 451 OFFCURVE",
"1054 567 OFFCURVE",
"1054 724 CURVE SMOOTH",
"1054 792 OFFCURVE",
"1010 821 OFFCURVE",
"961 821 CURVE SMOOTH",
"950 821 OFFCURVE",
"938 819 OFFCURVE",
"926 816 CURVE SMOOTH",
"859 797 OFFCURVE",
"784 728 OFFCURVE",
"705 616 CURVE",
"620 730 OFFCURVE",
"478 796 OFFCURVE",
"345 796 CURVE SMOOTH",
"161 796 OFFCURVE",
"61 687 OFFCURVE",
"61 571 CURVE SMOOTH",
"61 440 OFFCURVE",
"188 301 OFFCURVE",
"464 301 CURVE SMOOTH",
"482 301 OFFCURVE",
"501 302 OFFCURVE",
"520 304 CURVE",
"475 221 OFFCURVE",
"420 126 OFFCURVE",
"357 44 CURVE",
"299 71 OFFCURVE",
"242 95 OFFCURVE",
"183 114 CURVE SMOOTH",
"152 124 OFFCURVE",
"124 129 OFFCURVE",
"101 129 CURVE SMOOTH",
"31 129 OFFCURVE",
"-5 90 OFFCURVE",
"-5 42 CURVE SMOOTH",
"-5 -18 OFFCURVE",
"53 -93 OFFCURVE",
"176 -122 CURVE",
"154 -134 OFFCURVE",
"132 -143 OFFCURVE",
"110 -150 CURVE SMOOTH",
"81 -159 OFFCURVE",
"48 -164 OFFCURVE",
"16 -164 CURVE SMOOTH",
"-71 -164 OFFCURVE",
"-154 -127 OFFCURVE",
"-154 -41 CURVE SMOOTH",
"-154 -34 OFFCURVE",
"-153 -27 OFFCURVE",
"-153 -20 CURVE SMOOTH",
"-153 -17 OFFCURVE",
"-156 -15 OFFCURVE",
"-159 -15 CURVE SMOOTH",
"-162 -15 OFFCURVE",
"-165 -17 OFFCURVE",
"-166 -21 CURVE SMOOTH",
"-168 -32 OFFCURVE",
"-169 -43 OFFCURVE",
"-169 -53 CURVE SMOOTH",
"-169 -147 OFFCURVE",
"-87 -177 OFFCURVE",
"3 -177 CURVE SMOOTH",
"29 -177 OFFCURVE",
"56 -174 OFFCURVE",
"82 -170 CURVE SMOOTH",
"128 -162 OFFCURVE",
"172 -148 OFFCURVE",
"213 -129 CURVE",
"236 -132 OFFCURVE",
"262 -134 OFFCURVE",
"290 -134 CURVE SMOOTH",
"373 -134 OFFCURVE",
"449 -119 OFFCURVE",
"516 -91 CURVE",
"577 -129 OFFCURVE",
"640 -165 OFFCURVE",
"707 -189 CURVE SMOOTH",
"786 -217 OFFCURVE",
"858 -230 OFFCURVE",
"917 -230 CURVE SMOOTH"
);
},
{
closed = 1;
nodes = (
"85 -85 OFFCURVE",
"33 -17 OFFCURVE",
"33 37 CURVE SMOOTH",
"33 78 OFFCURVE",
"62 111 OFFCURVE",
"118 111 CURVE SMOOTH",
"136 111 OFFCURVE",
"156 107 OFFCURVE",
"179 100 CURVE SMOOTH",
"234 82 OFFCURVE",
"287 55 OFFCURVE",
"340 23 CURVE",
"296 -30 OFFCURVE",
"248 -77 OFFCURVE",
"195 -110 CURVE"
);
},
{
closed = 1;
nodes = (
"268 -119 OFFCURVE",
"252 -118 OFFCURVE",
"237 -117 CURVE",
"291 -88 OFFCURVE",
"341 -50 OFFCURVE",
"386 -6 CURVE",
"496 -78 LINE",
"434 -105 OFFCURVE",
"363 -119 OFFCURVE",
"285 -119 CURVE SMOOTH"
);
},
{
closed = 1;
nodes = (
"618 180 LINE",
"613 205 LINE",
"335 146 LINE",
"340 121 LINE"
);
},
{
closed = 1;
nodes = (
"504 -28 OFFCURVE",
"457 -4 OFFCURVE",
"410 19 CURVE",
"490 104 OFFCURVE",
"556 209 OFFCURVE",
"606 318 CURVE",
"660 329 OFFCURVE",
"715 346 OFFCURVE",
"767 370 CURVE",
"768 357 OFFCURVE",
"769 344 OFFCURVE",
"769 332 CURVE SMOOTH",
"769 170 OFFCURVE",
"686 29 OFFCURVE",
"551 -50 CURVE"
);
},
{
closed = 1;
nodes = (
"214 316 OFFCURVE",
"102 447 OFFCURVE",
"102 570 CURVE SMOOTH",
"102 679 OFFCURVE",
"189 781 OFFCURVE",
"345 781 CURVE SMOOTH",
"477 781 OFFCURVE",
"613 713 OFFCURVE",
"692 596 CURVE",
"654 540 OFFCURVE",
"614 475 OFFCURVE",
"574 402 CURVE SMOOTH",
"529 320 LINE",
"507 318 OFFCURVE",
"485 316 OFFCURVE",
"464 316 CURVE SMOOTH"
);
},
{
closed = 1;
nodes = (
"623 355 LINE SMOOTH",
"653 425 OFFCURVE",
"686 491 OFFCURVE",
"719 550 CURVE",
"726 535 OFFCURVE",
"733 519 OFFCURVE",
"739 503 CURVE SMOOTH",
"753 463 OFFCURVE",
"762 423 OFFCURVE",
"766 385 CURVE",
"717 363 OFFCURVE",
"665 346 OFFCURVE",
"614 334 CURVE"
);
},
{
closed = 1;
nodes = (
"785 433 OFFCURVE",
"776 470 OFFCURVE",
"763 507 CURVE SMOOTH",
"755 531 OFFCURVE",
"745 554 OFFCURVE",
"732 575 CURVE",
"797 687 OFFCURVE",
"863 772 OFFCURVE",
"922 799 CURVE SMOOTH",
"935 805 OFFCURVE",
"949 808 OFFCURVE",
"962 808 CURVE SMOOTH",
"1003 808 OFFCURVE",
"1039 780 OFFCURVE",
"1039 724 CURVE SMOOTH",
"1039 580 OFFCURVE",
"929 467 OFFCURVE",
"790 397 CURVE"
);
}
);
width = 808;
}
);
leftKerningGroup = L;
rightKerningGroup = L;
unicode = 0141;
},
{
color = 9;
glyphname = M;
lastChange = "2021-11-19 15:58:07 +0000";
layers = (
{
background = {
paths = (
{
closed = 1;
nodes = (
"1701 745 OFFCURVE",
"1410 1026 OFFCURVE",
"1156 739 CURVE SMOOTH",
"1029 595 OFFCURVE",
"921 372 OFFCURVE",
"824 216 CURVE",
"807 213 OFFCURVE",
"789 211 OFFCURVE",
"772 210 CURVE",
"800 311 OFFCURVE",
"795 422 OFFCURVE",
"799 516 CURVE",
"827 488 OFFCURVE",
"843 454 OFFCURVE",
"841 415 CURVE SMOOTH",
"841 405 OFFCURVE",
"856 404 OFFCURVE",
"856 414 CURVE SMOOTH",
"859 461 OFFCURVE",
"836 501 OFFCURVE",
"799 532 CURVE",
"802 586 OFFCURVE",
"810 634 OFFCURVE",
"829 670 CURVE SMOOTH",
"858 720 OFFCURVE",
"883 756 OFFCURVE",
"931 757 CURVE SMOOTH",
"939 757 OFFCURVE",
"941 764 OFFCURVE",
"938 768 CURVE",
"938 771 OFFCURVE",
"938 773 OFFCURVE",
"935 774 CURVE SMOOTH",
"914 780 OFFCURVE",
"893 779 OFFCURVE",
"871 773 CURVE",
"834 773 OFFCURVE",
"791 773 OFFCURVE",
"763 772 CURVE SMOOTH",
"291 751 OFFCURVE",
"99 558 OFFCURVE",
"28 356 CURVE SMOOTH",
"-38 164 OFFCURVE",
"52 -34 OFFCURVE",
"236 -79 CURVE",
"183 -131 OFFCURVE",
"125 -172 OFFCURVE",
"61 -192 CURVE SMOOTH",
"-55 -228 OFFCURVE",
"-219 -197 OFFCURVE",
"-202 -64 CURVE",
"-200 -55 OFFCURVE",
"-213 -54 OFFCURVE",
"-215 -63 CURVE SMOOTH",
"-240 -213 OFFCURVE",
"-91 -232 OFFCURVE",
"33 -211 CURVE SMOOTH",
"131 -195 OFFCURVE",
"217 -150 OFFCURVE",
"293 -87 CURVE",
"387 -92 OFFCURVE",
"482 -49 OFFCURVE",
"508 43 CURVE SMOOTH",
"510 52 OFFCURVE",
"497 56 OFFCURVE",
"494 47 CURVE SMOOTH",
"472 -32 OFFCURVE",
"393 -72 OFFCURVE",
"309 -73 CURVE",
"397 5 OFFCURVE",
"470 107 OFFCURVE",
"528 216 CURVE",
"574 203 OFFCURVE",
"624 193 OFFCURVE",
"674 193 CURVE SMOOTH",
"700 193 LINE",
"680 114 OFFCURVE",
"648 45 OFFCURVE",
"592 6 CURVE SMOOTH",
"585 1 OFFCURVE",
"587 -7 OFFCURVE",
"596 -7 CURVE SMOOTH",
"670 -12 OFFCURVE",
"764 84 OFFCURVE",
"852 206 CURVE",
"898 214 OFFCURVE",
"945 225 OFFCURVE",
"990 240 CURVE",
"939 118 OFFCURVE",
"905 -54 OFFCURVE",
"1036 -54 CURVE SMOOTH",
"1134 -54 OFFCURVE",
"1218 69 OFFCURVE",
"1277 189 CURVE SMOOTH",
"1281 197 OFFCURVE",
"1270 201 OFFCURVE",
"1266 192 CURVE SMOOTH",
"1207 68 OFFCURVE",
"1115 -30 OFFCURVE",
"1053 -30 CURVE SMOOTH",
"969 -30 OFFCURVE",
"994 100 OFFCURVE",
"1087 278 CURVE",
"1154 307 OFFCURVE",
"1215 344 OFFCURVE",
"1266 386 CURVE SMOOTH"
);
},
{
closed = 1;
nodes = (
"971 372 OFFCURVE",
"1089 585 OFFCURVE",
"1214 711 CURVE SMOOTH",
"1496 992 OFFCURVE",
"1597 679 OFFCURVE",
"1233 388 CURVE SMOOTH",
"1192 355 OFFCURVE",
"1146 326 OFFCURVE",
"1097 301 CURVE",
"1164 463 OFFCURVE",
"1261 635 OFFCURVE",
"1328 721 CURVE",
"1337 729 OFFCURVE",
"1326 746 OFFCURVE",
"1315 731 CURVE SMOOTH",
"1248 634 OFFCURVE",
"1086 442 OFFCURVE",
"999 259 CURVE",
"955 244 OFFCURVE",
"910 231 OFFCURVE",
"864 222 CURVE",
"864 223 LINE"
);
},
{
closed = 1;
nodes = (
"70 -29 OFFCURVE",
"-12 160 OFFCURVE",
"54 348 CURVE SMOOTH",
"162 657 OFFCURVE",
"523 767 OFFCURVE",
"832 756 CURVE",
"781 727 OFFCURVE",
"727 671 OFFCURVE",
"670 593 CURVE",
"520 628 OFFCURVE",
"333 582 OFFCURVE",
"322 414 CURVE SMOOTH",
"316 335 OFFCURVE",
"375 277 OFFCURVE",
"459 240 CURVE",
"402 137 OFFCURVE",
"332 21 OFFCURVE",
"248 -67 CURVE"
);
},
{
closed = 1;
nodes = (
"842 733 OFFCURVE",
"804 682 OFFCURVE",
"784 647 CURVE SMOOTH",
"770 623 OFFCURVE",
"761 594 OFFCURVE",
"754 563 CURVE",
"741 570 OFFCURVE",
"727 576 OFFCURVE",
"712 581 CURVE",
"765 665 OFFCURVE",
"819 728 OFFCURVE",
"867 754 CURVE",
"886 752 LINE"
);
},
{
closed = 1;
nodes = (
"402 293 OFFCURVE",
"361 346 OFFCURVE",
"365 414 CURVE SMOOTH",
"376 565 OFFCURVE",
"532 609 OFFCURVE",
"662 582 CURVE",
"618 520 OFFCURVE",
"572 445 OFFCURVE",
"525 360 CURVE SMOOTH",
"469 258 LINE"
);
},
{
closed = 1;
nodes = (
"624 208 OFFCURVE",
"577 219 OFFCURVE",
"536 231 CURVE",
"574 313 LINE SMOOTH",
"618 407 OFFCURVE",
"661 497 OFFCURVE",
"706 571 CURVE",
"722 565 OFFCURVE",
"737 558 OFFCURVE",
"751 551 CURVE",
"742 496 LINE SMOOTH",
"729 417 OFFCURVE",
"726 307 OFFCURVE",
"703 208 CURVE",
"674 208 LINE SMOOTH"
);
},
{
closed = 1;
nodes = (
"719 85 OFFCURVE",
"749 138 OFFCURVE",
"767 195 CURVE",
"783 196 OFFCURVE",
"799 198 OFFCURVE",
"815 200 CURVE",
"763 118 OFFCURVE",
"715 56 OFFCURVE",
"669 40 CURVE"
);
}
);
};
layerId = "32B14CDE-4F96-422E-BD5E-1145416534B1";
paths = (
{
closed = 1;
nodes = (
"-21 -218 OFFCURVE",
"7 -215 OFFCURVE",
"33 -211 CURVE SMOOTH",
"131 -195 OFFCURVE",
"217 -150 OFFCURVE",
"293 -87 CURVE",
"387 -92 OFFCURVE",
"482 -49 OFFCURVE",
"508 43 CURVE SMOOTH",
"509 48 OFFCURVE",
"505 52 OFFCURVE",
"501 52 CURVE SMOOTH",
"498 52 OFFCURVE",
"495 51 OFFCURVE",
"494 47 CURVE SMOOTH",
"472 -32 OFFCURVE",
"393 -72 OFFCURVE",
"309 -73 CURVE",
"397 5 OFFCURVE",
"470 107 OFFCURVE",
"528 216 CURVE",
"574 203 OFFCURVE",
"624 193 OFFCURVE",
"674 193 CURVE SMOOTH",
"700 193 LINE",
"680 114 OFFCURVE",
"648 45 OFFCURVE",
"592 6 CURVE SMOOTH",
"589 4 OFFCURVE",
"588 1 OFFCURVE",
"588 -1 CURVE SMOOTH",
"588 -4 OFFCURVE",
"591 -7 OFFCURVE",
"596 -7 CURVE SMOOTH",
"670 -12 OFFCURVE",
"764 84 OFFCURVE",
"852 206 CURVE",
"898 214 OFFCURVE",
"945 225 OFFCURVE",
"990 240 CURVE",
"965 181 OFFCURVE",
"945 110 OFFCURVE",
"945 53 CURVE SMOOTH",
"945 -8 OFFCURVE",
"968 -54 OFFCURVE",
"1036 -54 CURVE SMOOTH",
"1134 -54 OFFCURVE",
"1218 69 OFFCURVE",
"1277 189 CURVE SMOOTH",
"1279 194 OFFCURVE",
"1276 197 OFFCURVE",
"1273 197 CURVE SMOOTH",
"1270 197 OFFCURVE",
"1268 196 OFFCURVE",
"1266 192 CURVE SMOOTH",
"1207 68 OFFCURVE",
"1115 -30 OFFCURVE",
"1053 -30 CURVE SMOOTH",
"1018 -30 OFFCURVE",
"1002 -7 OFFCURVE",
"1002 32 CURVE SMOOTH",
"1002 87 OFFCURVE",
"1033 174 OFFCURVE",
"1087 278 CURVE",
"1154 307 OFFCURVE",
"1215 344 OFFCURVE",
"1266 386 CURVE SMOOTH",
"1428 520 OFFCURVE",
"1489 642 OFFCURVE",
"1489 729 CURVE SMOOTH",
"1489 808 OFFCURVE",
"1438 857 OFFCURVE",
"1367 857 CURVE SMOOTH",
"1306 857 OFFCURVE",
"1229 822 OFFCURVE",
"1156 739 CURVE SMOOTH",
"1029 595 OFFCURVE",
"921 372 OFFCURVE",
"824 216 CURVE",
"807 213 OFFCURVE",
"789 211 OFFCURVE",
"772 210 CURVE",
"800 311 OFFCURVE",
"795 422 OFFCURVE",
"799 516 CURVE",
"827 488 OFFCURVE",
"843 454 OFFCURVE",
"841 415 CURVE SMOOTH",
"841 410 OFFCURVE",
"845 407 OFFCURVE",
"849 407 CURVE SMOOTH",
"853 407 OFFCURVE",
"856 409 OFFCURVE",
"856 414 CURVE SMOOTH",
"859 461 OFFCURVE",
"836 501 OFFCURVE",
"799 532 CURVE",
"802 586 OFFCURVE",
"810 634 OFFCURVE",
"829 670 CURVE SMOOTH",
"858 720 OFFCURVE",
"883 756 OFFCURVE",
"931 757 CURVE SMOOTH",
"937 757 OFFCURVE",
"939 761 OFFCURVE",
"939 764 CURVE SMOOTH",
"939 765 OFFCURVE",
"939 767 OFFCURVE",
"938 768 CURVE",
"938 771 OFFCURVE",
"938 773 OFFCURVE",
"935 774 CURVE SMOOTH",
"925 777 OFFCURVE",
"916 778 OFFCURVE",
"906 778 CURVE SMOOTH",
"895 778 OFFCURVE",
"883 776 OFFCURVE",
"871 773 CURVE",
"834 773 OFFCURVE",
"791 773 OFFCURVE",
"763 772 CURVE SMOOTH",
"291 751 OFFCURVE",
"99 558 OFFCURVE",
"28 356 CURVE SMOOTH",
"13 314 OFFCURVE",
"6 271 OFFCURVE",
"6 229 CURVE SMOOTH",
"6 84 OFFCURVE",
"93 -44 OFFCURVE",
"236 -79 CURVE",
"183 -131 OFFCURVE",
"125 -172 OFFCURVE",
"61 -192 CURVE SMOOTH",
"32 -201 OFFCURVE",
"0 -206 OFFCURVE",
"-32 -206 CURVE SMOOTH",
"-120 -206 OFFCURVE",
"-203 -169 OFFCURVE",
"-203 -83 CURVE SMOOTH",
"-203 -76 OFFCURVE",
"-202 -69 OFFCURVE",
"-202 -62 CURVE SMOOTH",
"-202 -59 OFFCURVE",
"-205 -57 OFFCURVE",
"-208 -57 CURVE SMOOTH",
"-211 -57 OFFCURVE",
"-214 -59 OFFCURVE",
"-215 -63 CURVE SMOOTH",
"-217 -74 OFFCURVE",
"-218 -85 OFFCURVE",
"-218 -95 CURVE SMOOTH",
"-218 -188 OFFCURVE",
"-137 -218 OFFCURVE",
"-47 -218 CURVE SMOOTH"
);
},
{
closed = 1;
nodes = (
"111 -38 OFFCURVE",
"31 80 OFFCURVE",
"31 219 CURVE SMOOTH",
"31 261 OFFCURVE",
"39 304 OFFCURVE",
"54 348 CURVE SMOOTH",
"157 643 OFFCURVE",
"491 757 OFFCURVE",
"790 757 CURVE SMOOTH",
"804 757 OFFCURVE",
"818 756 OFFCURVE",
"832 756 CURVE",
"781 727 OFFCURVE",
"727 671 OFFCURVE",
"670 593 CURVE",
"639 600 OFFCURVE",
"607 604 OFFCURVE",
"575 604 CURVE SMOOTH",
"451 604 OFFCURVE",
"331 547 OFFCURVE",
"322 414 CURVE SMOOTH",
"316 335 OFFCURVE",
"375 277 OFFCURVE",
"459 240 CURVE",
"402 137 OFFCURVE",
"332 21 OFFCURVE",
"248 -67 CURVE"
);
},
{
closed = 1;
nodes = (
"719 85 OFFCURVE",
"749 138 OFFCURVE",
"767 195 CURVE",
"783 196 OFFCURVE",
"799 198 OFFCURVE",
"815 200 CURVE",
"763 118 OFFCURVE",
"715 56 OFFCURVE",
"669 40 CURVE"
);
},
{
closed = 1;
nodes = (
"402 293 OFFCURVE",
"361 346 OFFCURVE",
"365 414 CURVE SMOOTH",
"374 538 OFFCURVE",
"480 589 OFFCURVE",
"590 589 CURVE SMOOTH",
"614 589 OFFCURVE",
"638 587 OFFCURVE",
"662 582 CURVE",
"618 520 OFFCURVE",
"572 445 OFFCURVE",
"525 360 CURVE SMOOTH",
"469 258 LINE"
);
},
{
closed = 1;
nodes = (
"624 208 OFFCURVE",
"577 219 OFFCURVE",
"536 231 CURVE",
"574 313 LINE SMOOTH",
"618 407 OFFCURVE",
"661 497 OFFCURVE",
"706 571 CURVE",
"722 565 OFFCURVE",
"737 558 OFFCURVE",
"751 551 CURVE",
"742 496 LINE SMOOTH",
"729 417 OFFCURVE",
"726 307 OFFCURVE",
"703 208 CURVE",
"674 208 LINE SMOOTH"
);
},
{
closed = 1;
nodes = (
"741 570 OFFCURVE",
"727 576 OFFCURVE",
"712 581 CURVE",
"765 665 OFFCURVE",
"819 728 OFFCURVE",
"867 754 CURVE",
"886 752 LINE",
"842 733 OFFCURVE",
"804 682 OFFCURVE",
"784 647 CURVE SMOOTH",
"770 623 OFFCURVE",
"761 594 OFFCURVE",
"754 563 CURVE"
);
},
{
closed = 1;
nodes = (
"864 223 LINE",
"971 372 OFFCURVE",
"1089 585 OFFCURVE",
"1214 711 CURVE SMOOTH",
"1292 789 OFFCURVE",
"1356 821 OFFCURVE",
"1401 821 CURVE SMOOTH",
"1444 821 OFFCURVE",
"1468 790 OFFCURVE",
"1468 741 CURVE SMOOTH",
"1468 657 OFFCURVE",
"1398 520 OFFCURVE",
"1233 388 CURVE SMOOTH",
"1192 355 OFFCURVE",
"1146 326 OFFCURVE",
"1097 301 CURVE",
"1164 463 OFFCURVE",
"1261 635 OFFCURVE",
"1328 721 CURVE SMOOTH",
"1330 723 OFFCURVE",
"1331 726 OFFCURVE",
"1331 729 CURVE SMOOTH",
"1331 733 OFFCURVE",
"1328 737 OFFCURVE",
"1324 737 CURVE SMOOTH",
"1321 737 OFFCURVE",
"1318 735 OFFCURVE",
"1315 731 CURVE SMOOTH",
"1248 634 OFFCURVE",
"1086 442 OFFCURVE",
"999 259 CURVE",
"955 244 OFFCURVE",
"910 231 OFFCURVE",
"864 222 CURVE"
);
}
);
width = 1207;
}
);
note = M;
unicode = 004D;
},
{
color = 9;
glyphname = N;
lastChange = "2021-11-23 21:06:52 +0000";
layers = (
{
anchors = (
{
name = bottom;
position = "{326, -200}";
},
{
name = top;
position = "{979, 722}";
}
);
background = {
paths = (
{
closed = 1;
nodes = (
"18 -266 OFFCURVE",
"99 -226 OFFCURVE",
"171 -170 CURVE",
"199 -181 OFFCURVE",
"231 -188 OFFCURVE",
"265 -190 CURVE SMOOTH",
"541 -207 OFFCURVE",
"589 86 OFFCURVE",
"455 213 CURVE",
"469 244 LINE SMOOTH",
"570 477 OFFCURVE",
"693 673 OFFCURVE",
"789 696 CURVE",
"821 696 LINE SMOOTH",
"823 696 OFFCURVE",
"824 695 OFFCURVE",
"826 695 CURVE SMOOTH",
"827 695 OFFCURVE",
"829 695 OFFCURVE",
"830 696 CURVE",
"836 696 LINE",
"794 674 OFFCURVE",
"757 632 OFFCURVE",
"737 597 CURVE SMOOTH",
"715 559 OFFCURVE",
"704 506 OFFCURVE",
"696 447 CURVE SMOOTH",
"678 305 OFFCURVE",
"689 58 OFFCURVE",
"570 -29 CURVE",
"565 -28 OFFCURVE",
"561 -31 OFFCURVE",
"561 -35 CURVE",
"560 -35 LINE",
"558 -36 OFFCURVE",
"559 -37 OFFCURVE",
"561 -38 CURVE",
"561 -41 OFFCURVE",
"563 -43 OFFCURVE",
"566 -43 CURVE",
"723 -81 OFFCURVE",
"819 93 OFFCURVE",
"861 207 CURVE SMOOTH",
"894 294 OFFCURVE",
"934 397 OFFCURVE",
"979 478 CURVE SMOOTH",
"1048 604 OFFCURVE",
"1147 706 OFFCURVE",
"1223 752 CURVE SMOOTH",
"1445 884 OFFCURVE",
"1619 732 OFFCURVE",
"1337 552 CURVE SMOOTH",
"1324 544 OFFCURVE",
"1331 528 OFFCURVE",
"1350 541 CURVE SMOOTH",
"1652 752 OFFCURVE",
"1405 931 OFFCURVE",
"1181 798 CURVE SMOOTH",
"952 661 OFFCURVE",
"910 440 OFFCURVE",
"826 215 CURVE SMOOTH",
"789 115 OFFCURVE",
"724 -44 OFFCURVE",
"595 -33 CURVE",
"604 -29 OFFCURVE",
"614 -22 OFFCURVE",
"625 -13 CURVE SMOOTH",
"700 47 OFFCURVE",
"736 150 OFFCURVE",
"751 289 CURVE SMOOTH",
"761 381 OFFCURVE",
"739 539 OFFCURVE",
"783 617 CURVE SMOOTH",
"811 666 OFFCURVE",
"836 701 OFFCURVE",
"884 698 CURVE SMOOTH",
"895 697 OFFCURVE",
"891 720 OFFCURVE",
"880 719 CURVE SMOOTH",
"844 718 OFFCURVE",
"757 711 OFFCURVE",
"712 706 CURVE SMOOTH",
"242 648 OFFCURVE",
"65 440 OFFCURVE",
"10 231 CURVE SMOOTH",
"-30 75 OFFCURVE",
"17 -77 OFFCURVE",
"130 -148 CURVE",
"78 -200 OFFCURVE",
"19 -241 OFFCURVE",
"-45 -261 CURVE SMOOTH",
"-161 -297 OFFCURVE",
"-325 -266 OFFCURVE",
"-307 -133 CURVE SMOOTH",
"-306 -124 OFFCURVE",
"-319 -123 OFFCURVE",
"-320 -132 CURVE SMOOTH",
"-345 -282 OFFCURVE",
"-197 -301 OFFCURVE",
"-72 -280 CURVE SMOOTH"
);
},
{
closed = 1;
nodes = (
"235 -178 OFFCURVE",
"207 -171 OFFCURVE",
"181 -161 CURVE",
"294 -70 OFFCURVE",
"382 61 OFFCURVE",
"448 198 CURVE",
"563 75 OFFCURVE",
"508 -194 OFFCURVE",
"266 -180 CURVE SMOOTH"
);
},
{
closed = 1;
nodes = (
"36 -71 OFFCURVE",
"-3 75 OFFCURVE",
"37 226 CURVE SMOOTH",
"116 528 OFFCURVE",
"439 669 OFFCURVE",
"737 693 CURVE",
"642 645 OFFCURVE",
"535 499 OFFCURVE",
"419 291 CURVE SMOOTH",
"397 251 LINE",
"370 263 OFFCURVE",
"339 270 OFFCURVE",
"304 270 CURVE SMOOTH",
"229 270 OFFCURVE",
"153 197 OFFCURVE",
"153 114 CURVE SMOOTH",
"153 76 OFFCURVE",
"182 11 OFFCURVE",
"225 12 CURVE SMOOTH",
"235 12 OFFCURVE",
"234 27 OFFCURVE",
"224 27 CURVE SMOOTH",
"196 26 OFFCURVE",
"168 76 OFFCURVE",
"168 114 CURVE SMOOTH",
"168 189 OFFCURVE",
"238 256 OFFCURVE",
"304 256 CURVE SMOOTH",
"337 256 OFFCURVE",
"366 250 OFFCURVE",
"390 238 CURVE",
"326 121 OFFCURVE",
"244 -31 OFFCURVE",
"139 -139 CURVE"
);
}
);
};
layerId = "32B14CDE-4F96-422E-BD5E-1145416534B1";
paths = (
{
closed = 1;
nodes = (
"-126 -287 OFFCURVE",
"-98 -284 OFFCURVE",
"-72 -280 CURVE SMOOTH",
"18 -266 OFFCURVE",
"99 -226 OFFCURVE",
"171 -170 CURVE",
"205 -183 OFFCURVE",
"245 -191 OFFCURVE",
"288 -191 CURVE SMOOTH",
"451 -191 OFFCURVE",
"527 -77 OFFCURVE",
"527 38 CURVE SMOOTH",
"527 103 OFFCURVE",
"502 168 OFFCURVE",
"455 213 CURVE",
"469 244 LINE SMOOTH",
"573 475 OFFCURVE",
"693 673 OFFCURVE",
"789 696 CURVE",
"821 696 LINE SMOOTH",
"823 696 OFFCURVE",
"824 695 OFFCURVE",
"826 695 CURVE SMOOTH",
"827 695 OFFCURVE",
"829 695 OFFCURVE",
"830 696 CURVE",
"836 696 LINE",
"794 674 OFFCURVE",
"757 632 OFFCURVE",
"737 597 CURVE SMOOTH",
"715 559 OFFCURVE",
"704 506 OFFCURVE",
"696 447 CURVE SMOOTH",
"678 305 OFFCURVE",
"689 58 OFFCURVE",
"570 -29 CURVE",
"565 -28 OFFCURVE",
"561 -31 OFFCURVE",
"561 -35 CURVE",
"560 -35 LINE",
"558 -36 OFFCURVE",
"559 -37 OFFCURVE",
"561 -38 CURVE",
"561 -41 OFFCURVE",
"563 -43 OFFCURVE",
"566 -43 CURVE",
"581 -47 OFFCURVE",
"595 -48 OFFCURVE",
"609 -48 CURVE SMOOTH",
"741 -48 OFFCURVE",
"823 104 OFFCURVE",
"861 207 CURVE SMOOTH",
"894 294 OFFCURVE",
"934 397 OFFCURVE",
"979 478 CURVE SMOOTH",
"1048 604 OFFCURVE",
"1147 706 OFFCURVE",
"1223 752 CURVE SMOOTH",
"1282 787 OFFCURVE",
"1337 802 OFFCURVE",
"1381 802 CURVE SMOOTH",
"1443 802 OFFCURVE",
"1483 773 OFFCURVE",
"1483 728 CURVE SMOOTH",
"1483 682 OFFCURVE",
"1442 619 OFFCURVE",
"1337 552 CURVE SMOOTH",
"1333 549 OFFCURVE",
"1331 545 OFFCURVE",
"1331 542 CURVE SMOOTH",
"1331 539 OFFCURVE",
"1333 536 OFFCURVE",
"1337 536 CURVE SMOOTH",
"1341 536 OFFCURVE",
"1345 537 OFFCURVE",
"1350 541 CURVE SMOOTH",
"1451 611 OFFCURVE",
"1490 678 OFFCURVE",
"1490 731 CURVE SMOOTH",
"1490 799 OFFCURVE",
"1425 844 OFFCURVE",
"1338 844 CURVE SMOOTH",
"1289 844 OFFCURVE",
"1234 830 OFFCURVE",
"1181 798 CURVE SMOOTH",
"952 661 OFFCURVE",
"910 440 OFFCURVE",
"826 215 CURVE SMOOTH",
"789 115 OFFCURVE",
"724 -44 OFFCURVE",
"595 -33 CURVE",
"604 -29 OFFCURVE",
"614 -22 OFFCURVE",
"625 -13 CURVE SMOOTH",
"700 47 OFFCURVE",
"736 150 OFFCURVE",
"751 289 CURVE SMOOTH",
"754 313 OFFCURVE",
"754 342 OFFCURVE",
"754 373 CURVE SMOOTH",
"754 420 LINE SMOOTH",
"754 493 OFFCURVE",
"756 570 OFFCURVE",
"783 617 CURVE SMOOTH",
"811 666 OFFCURVE",
"836 701 OFFCURVE",
"884 698 CURVE SMOOTH",
"889 698 OFFCURVE",
"891 701 OFFCURVE",
"891 706 CURVE SMOOTH",
"891 712 OFFCURVE",
"887 719 OFFCURVE",
"881 719 CURVE SMOOTH",
"880 719 LINE SMOOTH",
"844 718 OFFCURVE",
"757 711 OFFCURVE",
"712 706 CURVE SMOOTH",
"242 648 OFFCURVE",
"65 440 OFFCURVE",
"10 231 CURVE SMOOTH",
"1 194 OFFCURVE",
"-4 157 OFFCURVE",
"-4 122 CURVE SMOOTH",
"-4 8 OFFCURVE",
"44 -94 OFFCURVE",
"130 -148 CURVE",
"78 -200 OFFCURVE",
"19 -241 OFFCURVE",
"-45 -261 CURVE SMOOTH",
"-74 -270 OFFCURVE",
"-106 -275 OFFCURVE",
"-138 -275 CURVE SMOOTH",
"-225 -275 OFFCURVE",
"-308 -238 OFFCURVE",
"-308 -153 CURVE SMOOTH",
"-308 -145 OFFCURVE",
"-307 -139 OFFCURVE",
"-307 -131 CURVE SMOOTH",
"-307 -128 OFFCURVE",
"-310 -126 OFFCURVE",
"-313 -126 CURVE SMOOTH",
"-316 -126 OFFCURVE",
"-320 -128 OFFCURVE",
"-320 -132 CURVE",
"-322 -143 OFFCURVE",
"-323 -154 OFFCURVE",
"-323 -164 CURVE SMOOTH",
"-323 -257 OFFCURVE",
"-242 -287 OFFCURVE",
"-153 -287 CURVE SMOOTH"
);
},
{
closed = 1;
nodes = (
"245 -180 OFFCURVE",
"212 -173 OFFCURVE",
"181 -161 CURVE",
"294 -70 OFFCURVE",
"382 61 OFFCURVE",
"448 198 CURVE",
"486 157 OFFCURVE",
"506 100 OFFCURVE",
"506 43 CURVE SMOOTH",
"506 -69 OFFCURVE",
"433 -180 OFFCURVE",
"283 -180 CURVE SMOOTH"
);
},
{
closed = 1;
nodes = (
"63 -89 OFFCURVE",
"22 4 OFFCURVE",
"22 111 CURVE SMOOTH",
"22 148 OFFCURVE",
"27 187 OFFCURVE",
"37 226 CURVE SMOOTH",
"116 528 OFFCURVE",
"439 669 OFFCURVE",
"737 693 CURVE",
"642 645 OFFCURVE",
"534 500 OFFCURVE",
"419 291 CURVE SMOOTH",
"397 251 LINE",
"370 263 OFFCURVE",
"339 270 OFFCURVE",
"304 270 CURVE SMOOTH",
"229 270 OFFCURVE",
"153 197 OFFCURVE",
"153 114 CURVE SMOOTH",
"153 76 OFFCURVE",
"182 12 OFFCURVE",
"224 12 CURVE SMOOTH",
"230 12 OFFCURVE",
"232 15 OFFCURVE",
"232 19 CURVE SMOOTH",
"232 23 OFFCURVE",
"229 27 OFFCURVE",
"223 27 CURVE SMOOTH",
"195 27 OFFCURVE",
"168 76 OFFCURVE",
"168 114 CURVE SMOOTH",
"168 189 OFFCURVE",
"238 256 OFFCURVE",
"304 256 CURVE SMOOTH",
"337 256 OFFCURVE",
"366 250 OFFCURVE",
"390 238 CURVE",
"326 121 OFFCURVE",
"244 -31 OFFCURVE",
"139 -139 CURVE"
);
}
);
width = 853;
}
);
leftKerningGroup = N;
note = N;
rightKerningGroup = N;
unicode = 004E;
},
{
glyphname = NJ;
lastChange = "2021-11-23 21:06:56 +0000";
layers = (
{
background = {
paths = (
{
closed = 1;
nodes = (
"1100 -349 OFFCURVE",
"1212 -271 OFFCURVE",
"1312 -167 CURVE",
"1465 -198 OFFCURVE",
"1662 -143 OFFCURVE",
"1662 15 CURVE SMOOTH",
"1662 52 OFFCURVE",
"1650 85 OFFCURVE",
"1625 114 CURVE",
"1852 199 OFFCURVE",
"1873 410 OFFCURVE",
"1717 503 CURVE",
"1760 583 OFFCURVE",
"1813 669 OFFCURVE",
"1867 728 CURVE",
"1898 727 OFFCURVE",
"1931 729 OFFCURVE",
"1960 734 CURVE SMOOTH",
"1988 739 OFFCURVE",
"2047 795 OFFCURVE",
"2017 810 CURVE",
"2015 812 LINE",
"2014 812 OFFCURVE",
"2012 813 OFFCURVE",
"2011 813 CURVE SMOOTH",
"1958 825 OFFCURVE",
"1900 801 OFFCURVE",
"1839 747 CURVE",
"1822 749 LINE SMOOTH",
"1608 787 OFFCURVE",
"1420 863 OFFCURVE",
"1208 764 CURVE SMOOTH",
"967 650 OFFCURVE",
"931 336 OFFCURVE",
"1112 175 CURVE",
"1050 156 OFFCURVE",
"990 129 OFFCURVE",
"934 97 CURVE SMOOTH",
"813 27 OFFCURVE",
"695 -84 OFFCURVE",
"695 -203 CURVE SMOOTH",
"695 -375 OFFCURVE",
"840 -392 OFFCURVE",
"983 -368 CURVE SMOOTH"
);
},
{
closed = 1;
nodes = (
"716 -435 OFFCURVE",
"588 -132 OFFCURVE",
"940 73 CURVE SMOOTH",
"1000 108 OFFCURVE",
"1065 138 OFFCURVE",
"1131 160 CURVE",
"1198 108 OFFCURVE",
"1291 76 OFFCURVE",
"1410 78 CURVE SMOOTH",
"1411 78 LINE",
"1365 4 OFFCURVE",
"1314 -72 OFFCURVE",
"1260 -139 CURVE",
"1201 -118 OFFCURVE",
"1158 -80 OFFCURVE",
"1151 -27 CURVE SMOOTH",
"1149 -16 OFFCURVE",
"1135 -18 OFFCURVE",
"1137 -29 CURVE SMOOTH",
"1144 -85 OFFCURVE",
"1190 -125 OFFCURVE",
"1251 -150 CURVE",
"1172 -245 OFFCURVE",
"1088 -320 OFFCURVE",
"1005 -346 CURVE SMOOTH"
);
},
{
closed = 1;
nodes = (
"1391 -83 OFFCURVE",
"1452 0 OFFCURVE",
"1505 85 CURVE",
"1542 90 OFFCURVE",
"1575 97 OFFCURVE",
"1606 107 CURVE",
"1630 80 OFFCURVE",
"1641 48 OFFCURVE",
"1641 15 CURVE SMOOTH",
"1641 -122 OFFCURVE",
"1465 -176 OFFCURVE",
"1324 -155 CURVE"
);
},
{
closed = 1;
nodes = (
"1298 92 OFFCURVE",
"1212 121 OFFCURVE",
"1151 166 CURVE",
"1207 182 OFFCURVE",
"1264 192 OFFCURVE",
"1321 192 CURVE SMOOTH",
"1379 192 OFFCURVE",
"1429 187 OFFCURVE",
"1470 177 CURVE",
"1455 150 OFFCURVE",
"1438 122 OFFCURVE",
"1421 94 CURVE",
"1410 94 LINE SMOOTH"
);
},
{
closed = 1;
nodes = (
"1526 120 OFFCURVE",
"1536 136 OFFCURVE",
"1545 152 CURVE",
"1562 144 OFFCURVE",
"1577 134 OFFCURVE",
"1589 123 CURVE",
"1567 115 OFFCURVE",
"1543 109 OFFCURVE",
"1516 104 CURVE"
);
},
{
closed = 1;
nodes = (
"964 329 OFFCURVE",
"1017 624 OFFCURVE",
"1247 732 CURVE SMOOTH",
"1454 829 OFFCURVE",
"1610 769 OFFCURVE",
"1819 733 CURVE SMOOTH",
"1823 732 LINE",
"1772 683 OFFCURVE",
"1718 614 OFFCURVE",
"1664 527 CURVE",
"1627 540 OFFCURVE",
"1582 548 OFFCURVE",
"1532 548 CURVE SMOOTH",
"1423 548 OFFCURVE",
"1332 497 OFFCURVE",
"1294 432 CURVE SMOOTH",
"1254 366 OFFCURVE",
"1271 286 OFFCURVE",
"1372 235 CURVE SMOOTH",
"1382 230 OFFCURVE",
"1389 239 OFFCURVE",
"1380 244 CURVE SMOOTH",
"1286 292 OFFCURVE",
"1274 367 OFFCURVE",
"1308 424 CURVE SMOOTH",
"1343 483 OFFCURVE",
"1427 531 OFFCURVE",
"1532 531 CURVE SMOOTH",
"1579 531 OFFCURVE",
"1620 524 OFFCURVE",
"1654 510 CURVE",
"1628 468 OFFCURVE",
"1602 422 OFFCURVE",
"1576 372 CURVE SMOOTH",
"1551 325 OFFCURVE",
"1518 262 OFFCURVE",
"1479 192 CURVE",
"1434 203 OFFCURVE",
"1382 208 OFFCURVE",
"1321 208 CURVE SMOOTH",
"1258 208 OFFCURVE",
"1194 199 OFFCURVE",
"1132 181 CURVE"
);
},
{
closed = 1;
nodes = (
"1594 144 OFFCURVE",
"1575 157 OFFCURVE",
"1553 167 CURVE",
"1580 217 OFFCURVE",
"1604 266 OFFCURVE",
"1624 312 CURVE SMOOTH",
"1639 346 OFFCURVE",
"1668 410 OFFCURVE",
"1705 481 CURVE",
"1824 392 OFFCURVE",
"1800 209 OFFCURVE",
"1609 131 CURVE"
);
},
{
closed = 1;
nodes = (
"1926 788 OFFCURVE",
"1971 813 OFFCURVE",
"2011 801 CURVE",
"2028 793 OFFCURVE",
"2017 775 OFFCURVE",
"2007 768 CURVE SMOOTH",
"1981 749 OFFCURVE",
"1928 744 OFFCURVE",
"1882 744 CURVE"
);
},
{
closed = 1;
nodes = (
"18 -266 OFFCURVE",
"99 -226 OFFCURVE",
"171 -170 CURVE",
"199 -181 OFFCURVE",
"231 -188 OFFCURVE",
"265 -190 CURVE SMOOTH",
"541 -207 OFFCURVE",
"589 86 OFFCURVE",
"455 213 CURVE",
"469 244 LINE SMOOTH",
"573 475 OFFCURVE",
"693 673 OFFCURVE",
"789 696 CURVE",
"821 696 LINE SMOOTH",
"823 696 OFFCURVE",
"824 695 OFFCURVE",
"826 695 CURVE SMOOTH",
"827 695 OFFCURVE",
"829 695 OFFCURVE",
"830 696 CURVE",
"836 696 LINE",
"794 674 OFFCURVE",
"757 632 OFFCURVE",
"737 597 CURVE SMOOTH",
"715 559 OFFCURVE",
"704 506 OFFCURVE",
"696 447 CURVE SMOOTH",
"678 305 OFFCURVE",
"689 58 OFFCURVE",
"570 -29 CURVE",
"565 -28 OFFCURVE",
"561 -31 OFFCURVE",
"561 -35 CURVE",
"560 -35 LINE",
"558 -36 OFFCURVE",
"559 -37 OFFCURVE",
"561 -38 CURVE",
"561 -41 OFFCURVE",
"563 -43 OFFCURVE",
"566 -43 CURVE",
"723 -81 OFFCURVE",
"819 93 OFFCURVE",
"861 207 CURVE SMOOTH",
"894 294 OFFCURVE",
"934 397 OFFCURVE",
"979 478 CURVE SMOOTH",
"1048 604 OFFCURVE",
"1217 789 OFFCURVE",
"1366 794 CURVE SMOOTH",
"1378 794 OFFCURVE",
"1408 809 OFFCURVE",
"1366 809 CURVE SMOOTH",
"1084 809 OFFCURVE",
"910 440 OFFCURVE",
"826 215 CURVE SMOOTH",
"789 115 OFFCURVE",
"724 -44 OFFCURVE",
"595 -33 CURVE",
"604 -29 OFFCURVE",
"614 -22 OFFCURVE",
"625 -13 CURVE SMOOTH",
"700 47 OFFCURVE",
"736 150 OFFCURVE",
"751 289 CURVE SMOOTH",
"761 381 OFFCURVE",
"739 539 OFFCURVE",
"783 617 CURVE SMOOTH",
"811 666 OFFCURVE",
"836 701 OFFCURVE",
"884 698 CURVE SMOOTH",
"895 697 OFFCURVE",
"891 720 OFFCURVE",
"880 719 CURVE SMOOTH",
"844 718 OFFCURVE",
"757 711 OFFCURVE",
"712 706 CURVE SMOOTH",
"242 648 OFFCURVE",
"65 440 OFFCURVE",
"10 231 CURVE SMOOTH",
"-30 75 OFFCURVE",
"17 -77 OFFCURVE",
"130 -148 CURVE",
"78 -200 OFFCURVE",
"19 -241 OFFCURVE",
"-45 -261 CURVE SMOOTH",
"-161 -297 OFFCURVE",
"-325 -266 OFFCURVE",
"-307 -133 CURVE SMOOTH",
"-306 -124 OFFCURVE",
"-319 -123 OFFCURVE",
"-320 -132 CURVE SMOOTH",
"-345 -282 OFFCURVE",
"-197 -301 OFFCURVE",
"-72 -280 CURVE SMOOTH"
);
},
{
closed = 1;
nodes = (
"36 -71 OFFCURVE",
"-3 75 OFFCURVE",
"37 226 CURVE SMOOTH",
"116 528 OFFCURVE",
"439 669 OFFCURVE",
"737 693 CURVE",
"642 645 OFFCURVE",
"535 499 OFFCURVE",
"419 291 CURVE SMOOTH",
"397 251 LINE",
"370 263 OFFCURVE",
"339 270 OFFCURVE",
"304 270 CURVE SMOOTH",
"229 270 OFFCURVE",
"153 197 OFFCURVE",
"153 114 CURVE SMOOTH",
"153 76 OFFCURVE",
"182 11 OFFCURVE",
"225 12 CURVE SMOOTH",
"235 12 OFFCURVE",
"234 27 OFFCURVE",
"224 27 CURVE SMOOTH",
"196 26 OFFCURVE",
"168 76 OFFCURVE",
"168 114 CURVE SMOOTH",
"168 189 OFFCURVE",
"238 256 OFFCURVE",
"304 256 CURVE SMOOTH",
"337 256 OFFCURVE",
"366 250 OFFCURVE",
"390 238 CURVE",
"326 121 OFFCURVE",
"244 -31 OFFCURVE",
"139 -139 CURVE"
);
},
{
closed = 1;
nodes = (
"235 -178 OFFCURVE",
"207 -171 OFFCURVE",
"181 -161 CURVE",
"294 -70 OFFCURVE",
"382 61 OFFCURVE",
"448 198 CURVE",
"563 75 OFFCURVE",
"508 -194 OFFCURVE",
"266 -180 CURVE SMOOTH"
);
}
);
};
layerId = "32B14CDE-4F96-422E-BD5E-1145416534B1";
paths = (
{
closed = 1;
nodes = (
"-126 -287 OFFCURVE",
"-98 -284 OFFCURVE",
"-72 -280 CURVE SMOOTH",
"18 -266 OFFCURVE",
"99 -226 OFFCURVE",
"171 -170 CURVE",
"205 -183 OFFCURVE",
"245 -191 OFFCURVE",
"288 -191 CURVE SMOOTH",
"451 -191 OFFCURVE",
"527 -77 OFFCURVE",
"527 38 CURVE SMOOTH",
"527 103 OFFCURVE",
"502 168 OFFCURVE",
"455 213 CURVE",
"469 244 LINE SMOOTH",
"573 475 OFFCURVE",
"693 673 OFFCURVE",
"789 696 CURVE",
"821 696 LINE SMOOTH",
"823 696 OFFCURVE",
"824 695 OFFCURVE",
"826 695 CURVE SMOOTH",
"827 695 OFFCURVE",
"829 695 OFFCURVE",
"830 696 CURVE",
"836 696 LINE",
"794 674 OFFCURVE",
"757 632 OFFCURVE",
"737 597 CURVE SMOOTH",
"715 559 OFFCURVE",
"704 506 OFFCURVE",
"696 447 CURVE SMOOTH",
"678 305 OFFCURVE",
"689 58 OFFCURVE",
"570 -29 CURVE",
"565 -28 OFFCURVE",
"561 -31 OFFCURVE",
"561 -35 CURVE",
"560 -35 LINE",
"558 -36 OFFCURVE",
"559 -37 OFFCURVE",
"561 -38 CURVE",
"561 -41 OFFCURVE",
"563 -43 OFFCURVE",
"566 -43 CURVE",
"581 -47 OFFCURVE",
"595 -48 OFFCURVE",
"609 -48 CURVE SMOOTH",
"741 -48 OFFCURVE",
"823 104 OFFCURVE",
"861 207 CURVE SMOOTH",
"894 294 OFFCURVE",
"934 397 OFFCURVE",
"979 478 CURVE SMOOTH",
"1048 604 OFFCURVE",
"1217 789 OFFCURVE",
"1366 794 CURVE SMOOTH",
"1373 794 OFFCURVE",
"1388 800 OFFCURVE",
"1388 804 CURVE SMOOTH",
"1388 807 OFFCURVE",
"1382 809 OFFCURVE",
"1366 809 CURVE SMOOTH",
"1084 809 OFFCURVE",
"910 440 OFFCURVE",
"826 215 CURVE SMOOTH",
"789 115 OFFCURVE",
"724 -44 OFFCURVE",
"595 -33 CURVE",
"604 -29 OFFCURVE",
"614 -22 OFFCURVE",
"625 -13 CURVE SMOOTH",
"700 47 OFFCURVE",
"736 150 OFFCURVE",
"751 289 CURVE SMOOTH",
"754 313 OFFCURVE",
"754 342 OFFCURVE",
"754 373 CURVE SMOOTH",
"754 420 LINE SMOOTH",
"754 493 OFFCURVE",
"756 570 OFFCURVE",
"783 617 CURVE SMOOTH",
"811 666 OFFCURVE",
"836 701 OFFCURVE",
"884 698 CURVE SMOOTH",
"889 698 OFFCURVE",
"891 701 OFFCURVE",
"891 706 CURVE SMOOTH",
"891 712 OFFCURVE",
"887 719 OFFCURVE",
"881 719 CURVE SMOOTH",
"880 719 LINE SMOOTH",
"844 718 OFFCURVE",
"757 711 OFFCURVE",
"712 706 CURVE SMOOTH",
"242 648 OFFCURVE",
"65 440 OFFCURVE",
"10 231 CURVE SMOOTH",
"1 194 OFFCURVE",
"-4 157 OFFCURVE",
"-4 122 CURVE SMOOTH",
"-4 8 OFFCURVE",
"44 -94 OFFCURVE",
"130 -148 CURVE",
"78 -200 OFFCURVE",
"19 -241 OFFCURVE",
"-45 -261 CURVE SMOOTH",
"-74 -270 OFFCURVE",
"-106 -275 OFFCURVE",
"-138 -275 CURVE SMOOTH",
"-225 -275 OFFCURVE",
"-308 -238 OFFCURVE",
"-308 -153 CURVE SMOOTH",
"-308 -145 OFFCURVE",
"-307 -139 OFFCURVE",
"-307 -131 CURVE SMOOTH",
"-307 -128 OFFCURVE",
"-310 -126 OFFCURVE",
"-313 -126 CURVE SMOOTH",
"-316 -126 OFFCURVE",
"-320 -128 OFFCURVE",
"-320 -132 CURVE",
"-322 -143 OFFCURVE",
"-323 -154 OFFCURVE",
"-323 -164 CURVE SMOOTH",
"-323 -257 OFFCURVE",
"-242 -287 OFFCURVE",
"-153 -287 CURVE SMOOTH"
);
},
{
closed = 1;
nodes = (
"245 -180 OFFCURVE",
"212 -173 OFFCURVE",
"181 -161 CURVE",
"294 -70 OFFCURVE",
"382 61 OFFCURVE",
"448 198 CURVE",
"486 157 OFFCURVE",
"506 100 OFFCURVE",
"506 43 CURVE SMOOTH",
"506 -69 OFFCURVE",
"433 -180 OFFCURVE",
"283 -180 CURVE SMOOTH"
);
},
{
closed = 1;
nodes = (
"63 -89 OFFCURVE",
"22 4 OFFCURVE",
"22 111 CURVE SMOOTH",
"22 148 OFFCURVE",
"27 187 OFFCURVE",
"37 226 CURVE SMOOTH",
"116 528 OFFCURVE",
"439 669 OFFCURVE",
"737 693 CURVE",
"642 645 OFFCURVE",
"535 499 OFFCURVE",
"419 291 CURVE SMOOTH",
"397 251 LINE",
"370 263 OFFCURVE",
"339 270 OFFCURVE",
"304 270 CURVE SMOOTH",
"229 270 OFFCURVE",
"153 197 OFFCURVE",
"153 114 CURVE SMOOTH",
"153 76 OFFCURVE",
"182 12 OFFCURVE",
"224 12 CURVE SMOOTH",
"230 12 OFFCURVE",
"232 15 OFFCURVE",
"232 19 CURVE SMOOTH",
"232 23 OFFCURVE",
"229 27 OFFCURVE",
"223 27 CURVE SMOOTH",
"195 27 OFFCURVE",
"168 76 OFFCURVE",
"168 114 CURVE SMOOTH",
"168 189 OFFCURVE",
"238 256 OFFCURVE",
"304 256 CURVE SMOOTH",
"337 256 OFFCURVE",
"366 250 OFFCURVE",
"390 238 CURVE",
"326 121 OFFCURVE",
"244 -31 OFFCURVE",
"139 -139 CURVE"
);
},
{
closed = 1;
nodes = (
"797 -362 OFFCURVE",
"727 -295 OFFCURVE",
"727 -205 CURVE SMOOTH",
"727 -120 OFFCURVE",
"790 -15 OFFCURVE",
"940 73 CURVE SMOOTH",
"1000 108 OFFCURVE",
"1065 138 OFFCURVE",
"1131 160 CURVE",
"1198 108 OFFCURVE",
"1291 76 OFFCURVE",
"1410 78 CURVE SMOOTH",
"1411 78 LINE",
"1365 4 OFFCURVE",
"1314 -72 OFFCURVE",
"1260 -139 CURVE",
"1201 -118 OFFCURVE",
"1158 -80 OFFCURVE",
"1151 -27 CURVE SMOOTH",
"1150 -22 OFFCURVE",
"1147 -20 OFFCURVE",
"1144 -20 CURVE SMOOTH",
"1140 -20 OFFCURVE",
"1137 -22 OFFCURVE",
"1137 -27 CURVE SMOOTH",
"1137 -29 LINE SMOOTH",
"1144 -85 OFFCURVE",
"1190 -125 OFFCURVE",
"1251 -150 CURVE",
"1172 -245 OFFCURVE",
"1088 -320 OFFCURVE",
"1005 -346 CURVE SMOOTH",
"970 -357 OFFCURVE",
"937 -362 OFFCURVE",
"907 -362 CURVE SMOOTH"
);
},
{
closed = 1;
nodes = (
"1298 92 OFFCURVE",
"1212 121 OFFCURVE",
"1151 166 CURVE",
"1207 182 OFFCURVE",
"1264 192 OFFCURVE",
"1321 192 CURVE SMOOTH",
"1379 192 OFFCURVE",
"1429 187 OFFCURVE",
"1470 177 CURVE",
"1455 150 OFFCURVE",
"1438 122 OFFCURVE",
"1421 94 CURVE",
"1410 94 LINE SMOOTH"
);
},
{
closed = 1;
nodes = (
"1364 -159 OFFCURVE",
"1344 -158 OFFCURVE",
"1324 -155 CURVE",
"1391 -83 OFFCURVE",
"1452 0 OFFCURVE",
"1505 85 CURVE",
"1542 90 OFFCURVE",
"1575 97 OFFCURVE",
"1606 107 CURVE",
"1630 80 OFFCURVE",
"1641 48 OFFCURVE",
"1641 15 CURVE SMOOTH",
"1641 -103 OFFCURVE",
"1511 -159 OFFCURVE",
"1384 -159 CURVE SMOOTH"
);
},
{
closed = 1;
nodes = (
"919 -377 OFFCURVE",
"951 -373 OFFCURVE",
"983 -368 CURVE SMOOTH",
"1100 -349 OFFCURVE",
"1212 -271 OFFCURVE",
"1312 -167 CURVE",
"1339 -172 OFFCURVE",
"1368 -175 OFFCURVE",
"1396 -175 CURVE SMOOTH",
"1529 -175 OFFCURVE",
"1662 -115 OFFCURVE",
"1662 15 CURVE SMOOTH",
"1662 52 OFFCURVE",
"1650 85 OFFCURVE",
"1625 114 CURVE",
"1755 163 OFFCURVE",
"1818 253 OFFCURVE",
"1818 339 CURVE SMOOTH",
"1818 402 OFFCURVE",
"1783 463 OFFCURVE",
"1717 503 CURVE",
"1760 583 OFFCURVE",
"1813 669 OFFCURVE",
"1867 728 CURVE",
"1898 727 OFFCURVE",
"1931 729 OFFCURVE",
"1960 734 CURVE SMOOTH",
"1983 738 OFFCURVE",
"2025 775 OFFCURVE",
"2025 797 CURVE SMOOTH",
"2025 803 OFFCURVE",
"2023 807 OFFCURVE",
"2017 810 CURVE",
"2015 812 LINE",
"2011 813 LINE SMOOTH",
"2002 815 OFFCURVE",
"1993 816 OFFCURVE",
"1984 816 CURVE SMOOTH",
"1938 816 OFFCURVE",
"1890 792 OFFCURVE",
"1839 747 CURVE",
"1822 749 LINE SMOOTH",
"1686 773 OFFCURVE",
"1560 813 OFFCURVE",
"1432 813 CURVE SMOOTH",
"1359 813 OFFCURVE",
"1285 800 OFFCURVE",
"1208 764 CURVE SMOOTH",
"1069 698 OFFCURVE",
"998 565 OFFCURVE",
"998 434 CURVE SMOOTH",
"998 338 OFFCURVE",
"1036 243 OFFCURVE",
"1112 175 CURVE",
"1050 156 OFFCURVE",
"990 129 OFFCURVE",
"934 97 CURVE SMOOTH",
"813 27 OFFCURVE",
"695 -84 OFFCURVE",
"695 -203 CURVE SMOOTH",
"695 -337 OFFCURVE",
"782 -377 OFFCURVE",
"889 -377 CURVE SMOOTH"
);
},
{
closed = 1;
nodes = (
"1526 120 OFFCURVE",
"1536 136 OFFCURVE",
"1545 152 CURVE",
"1562 144 OFFCURVE",
"1577 134 OFFCURVE",
"1589 123 CURVE",
"1567 115 OFFCURVE",
"1543 109 OFFCURVE",
"1516 104 CURVE"
);
},
{
closed = 1;
nodes = (
"1066 240 OFFCURVE",
"1034 321 OFFCURVE",
"1034 405 CURVE SMOOTH",
"1034 533 OFFCURVE",
"1108 667 OFFCURVE",
"1247 732 CURVE SMOOTH",
"1330 771 OFFCURVE",
"1405 785 OFFCURVE",
"1479 785 CURVE SMOOTH",
"1588 785 OFFCURVE",
"1694 755 OFFCURVE",
"1819 733 CURVE SMOOTH",
"1823 732 LINE",
"1772 683 OFFCURVE",
"1718 614 OFFCURVE",
"1664 527 CURVE",
"1627 540 OFFCURVE",
"1582 548 OFFCURVE",
"1532 548 CURVE SMOOTH",
"1423 548 OFFCURVE",
"1332 497 OFFCURVE",
"1294 432 CURVE SMOOTH",
"1281 411 OFFCURVE",
"1274 388 OFFCURVE",
"1274 365 CURVE SMOOTH",
"1274 317 OFFCURVE",
"1304 269 OFFCURVE",
"1372 235 CURVE SMOOTH",
"1379 232 OFFCURVE",
"1384 235 OFFCURVE",
"1384 238 CURVE SMOOTH",
"1384 240 OFFCURVE",
"1383 242 OFFCURVE",
"1380 244 CURVE SMOOTH",
"1317 276 OFFCURVE",
"1291 321 OFFCURVE",
"1291 364 CURVE SMOOTH",
"1291 385 OFFCURVE",
"1297 405 OFFCURVE",
"1308 424 CURVE SMOOTH",
"1343 483 OFFCURVE",
"1427 531 OFFCURVE",
"1532 531 CURVE SMOOTH",
"1579 531 OFFCURVE",
"1620 524 OFFCURVE",
"1654 510 CURVE",
"1628 468 OFFCURVE",
"1602 422 OFFCURVE",
"1576 372 CURVE SMOOTH",
"1551 325 OFFCURVE",
"1518 262 OFFCURVE",
"1479 192 CURVE",
"1434 203 OFFCURVE",
"1382 208 OFFCURVE",
"1321 208 CURVE SMOOTH",
"1258 208 OFFCURVE",
"1194 199 OFFCURVE",
"1132 181 CURVE"
);
},
{
closed = 1;
nodes = (
"1594 144 OFFCURVE",
"1575 157 OFFCURVE",
"1553 167 CURVE",
"1580 217 OFFCURVE",
"1604 266 OFFCURVE",
"1624 312 CURVE SMOOTH",
"1639 346 OFFCURVE",
"1668 410 OFFCURVE",
"1705 481 CURVE",
"1753 445 OFFCURVE",
"1778 394 OFFCURVE",
"1778 341 CURVE SMOOTH",
"1778 262 OFFCURVE",
"1723 178 OFFCURVE",
"1609 131 CURVE"
);
},
{
closed = 1;
nodes = (
"1919 781 OFFCURVE",
"1956 804 OFFCURVE",
"1990 804 CURVE SMOOTH",
"1997 804 OFFCURVE",
"2004 803 OFFCURVE",
"2011 801 CURVE SMOOTH",
"2017 798 OFFCURVE",
"2020 794 OFFCURVE",
"2020 789 CURVE SMOOTH",
"2020 781 OFFCURVE",
"2013 772 OFFCURVE",
"2007 768 CURVE SMOOTH",
"1981 749 OFFCURVE",
"1928 744 OFFCURVE",
"1882 744 CURVE"
);
}
);
width = 1779;
}
);
leftKerningGroup = N;
rightKerningGroup = J;
unicode = 01CA;
},
{
glyphname = Eng;
lastChange = "2021-11-18 13:23:07 +0000";
layers = (
{
background = {
paths = (
{
closed = 1;
nodes = (
"365 -386 OFFCURVE",
"448 -199 OFFCURVE",
"536 35 CURVE SMOOTH",
"645 322 OFFCURVE",
"751 626 OFFCURVE",
"944 626 CURVE",
"956 625 OFFCURVE",
"959 632 OFFCURVE",
"941 636 CURVE SMOOTH",
"713 691 OFFCURVE",
"668 442 OFFCURVE",
"524 74 CURVE",
"524 223 OFFCURVE",
"541 533 OFFCURVE",
"624 563 CURVE SMOOTH",
"639 569 OFFCURVE",
"657 570 OFFCURVE",
"654 588 CURVE",
"654 594 OFFCURVE",
"648 598 OFFCURVE",
"642 598 CURVE",
"632 571 OFFCURVE",
"478 573 OFFCURVE",
"339 593 CURVE SMOOTH",
"124 621 OFFCURVE",
"18 606 OFFCURVE",
"-11 528 CURVE SMOOTH",
"-22 502 OFFCURVE",
"-5 451 OFFCURVE",
"42 420 CURVE SMOOTH",
"53 413 OFFCURVE",
"78 403 OFFCURVE",
"85 413 CURVE",
"80 413 OFFCURVE",
"68 420 OFFCURVE",
"59 427 CURVE SMOOTH",
"39 445 OFFCURVE",
"27 474 OFFCURVE",
"38 504 CURVE SMOOTH",
"67 582 OFFCURVE",
"211 590 OFFCURVE",
"345 573 CURVE SMOOTH",
"407 566 OFFCURVE",
"495 563 OFFCURVE",
"552 564 CURVE",
"422 537 OFFCURVE",
"346 363 OFFCURVE",
"287 249 CURVE SMOOTH",
"222 123 OFFCURVE",
"139 -34 OFFCURVE",
"18 -34 CURVE SMOOTH",
"-43 -34 OFFCURVE",
"-99 20 OFFCURVE",
"-82 66 CURVE",
"-105 59 OFFCURVE",
"-110 38 OFFCURVE",
"-109 20 CURVE SMOOTH",
"-106 -14 OFFCURVE",
"-68 -50 OFFCURVE",
"18 -50 CURVE SMOOTH",
"174 -50 OFFCURVE",
"250 103 OFFCURVE",
"308 236 CURVE SMOOTH",
"387 417 OFFCURVE",
"484 564 OFFCURVE",
"581 564 CURVE",
"471 473 OFFCURVE",
"467 226 OFFCURVE",
"499 0 CURVE",
"431 -182 OFFCURVE",
"351 -355 OFFCURVE",
"190 -358 CURVE SMOOTH",
"135 -359 OFFCURVE",
"86 -332 OFFCURVE",
"60 -268 CURVE SMOOTH",
"37 -209 OFFCURVE",
"38 -138 OFFCURVE",
"71 -104 CURVE",
"59 -89 OFFCURVE",
"11 -132 OFFCURVE",
"13 -218 CURVE SMOOTH",
"16 -313 OFFCURVE",
"64 -368 OFFCURVE",
"154 -374 CURVE SMOOTH"
);
}
);
};
layerId = "32B14CDE-4F96-422E-BD5E-1145416534B1";
paths = (
{
closed = 1;
nodes = (
"370 -375 OFFCURVE",
"451 -192 OFFCURVE",
"536 35 CURVE SMOOTH",
"645 322 OFFCURVE",
"751 626 OFFCURVE",
"944 626 CURVE SMOOTH",
"950 626 OFFCURVE",
"954 627 OFFCURVE",
"954 629 CURVE SMOOTH",
"954 631 OFFCURVE",
"950 634 OFFCURVE",
"941 636 CURVE SMOOTH",
"920 641 OFFCURVE",
"900 644 OFFCURVE",
"882 644 CURVE SMOOTH",
"704 644 OFFCURVE",
"655 408 OFFCURVE",
"524 74 CURVE",
"524 223 OFFCURVE",
"541 533 OFFCURVE",
"624 563 CURVE SMOOTH",
"639 569 OFFCURVE",
"657 570 OFFCURVE",
"654 588 CURVE",
"654 594 OFFCURVE",
"648 598 OFFCURVE",
"642 598 CURVE",
"637 584 OFFCURVE",
"593 578 OFFCURVE",
"533 578 CURVE SMOOTH",
"477 578 OFFCURVE",
"406 583 OFFCURVE",
"339 593 CURVE SMOOTH",
"274 602 OFFCURVE",
"218 606 OFFCURVE",
"172 606 CURVE SMOOTH",
"67 606 OFFCURVE",
"9 582 OFFCURVE",
"-11 528 CURVE SMOOTH",
"-13 523 OFFCURVE",
"-14 517 OFFCURVE",
"-14 510 CURVE SMOOTH",
"-14 483 OFFCURVE",
"4 445 OFFCURVE",
"42 420 CURVE SMOOTH",
"50 415 OFFCURVE",
"64 409 OFFCURVE",
"75 409 CURVE SMOOTH",
"79 409 OFFCURVE",
"83 410 OFFCURVE",
"85 413 CURVE",
"80 413 OFFCURVE",
"68 420 OFFCURVE",
"59 427 CURVE SMOOTH",
"44 440 OFFCURVE",
"34 460 OFFCURVE",
"34 481 CURVE SMOOTH",
"34 488 OFFCURVE",
"35 496 OFFCURVE",
"38 504 CURVE SMOOTH",
"59 561 OFFCURVE",
"141 580 OFFCURVE",
"236 580 CURVE SMOOTH",
"271 580 OFFCURVE",
"308 578 OFFCURVE",
"345 573 CURVE SMOOTH",
"407 566 OFFCURVE",
"495 563 OFFCURVE",
"552 564 CURVE",
"422 537 OFFCURVE",
"346 363 OFFCURVE",
"287 249 CURVE SMOOTH",
"222 123 OFFCURVE",
"139 -34 OFFCURVE",
"18 -34 CURVE SMOOTH",
"-35 -34 OFFCURVE",
"-85 7 OFFCURVE",
"-85 49 CURVE SMOOTH",
"-85 55 OFFCURVE",
"-84 60 OFFCURVE",
"-82 66 CURVE",
"-103 60 OFFCURVE",
"-109 41 OFFCURVE",
"-109 24 CURVE SMOOTH",
"-109 -11 OFFCURVE",
"-72 -50 OFFCURVE",
"18 -50 CURVE SMOOTH",
"174 -50 OFFCURVE",
"250 103 OFFCURVE",
"308 236 CURVE SMOOTH",
"387 417 OFFCURVE",
"484 564 OFFCURVE",
"581 564 CURVE",
"508 504 OFFCURVE",
"482 374 OFFCURVE",
"482 228 CURVE SMOOTH",
"482 154 OFFCURVE",
"488 76 OFFCURVE",
"499 0 CURVE",
"430 -183 OFFCURVE",
"350 -358 OFFCURVE",
"187 -358 CURVE SMOOTH",
"133 -358 OFFCURVE",
"86 -331 OFFCURVE",
"60 -268 CURVE SMOOTH",
"50 -242 OFFCURVE",
"44 -213 OFFCURVE",
"44 -186 CURVE SMOOTH",
"44 -153 OFFCURVE",
"53 -123 OFFCURVE",
"71 -104 CURVE",
"59 -89 OFFCURVE",
"13 -130 OFFCURVE",
"13 -213 CURVE SMOOTH",
"13 -318 OFFCURVE",
"69 -375 OFFCURVE",
"173 -375 CURVE SMOOTH"
);
}
);
width = 654;
}
);
unicode = 014A;
},
{
color = 9;
glyphname = O;
lastChange = "2021-11-23 21:07:50 +0000";
layers = (
{
anchors = (
{
name = bottom;
position = "{406, -74}";
},
{
name = center;
position = "{463, 400}";
},
{
name = ogonek;
position = "{473, -57}";
},
{
name = top;
position = "{813, 838}";
},
{
name = topleft;
position = "{20, 800}";
},
{
name = topright;
position = "{849, 800}";
}
);
background = {
paths = (
{
closed = 1;
nodes = (
"803 -60 OFFCURVE",
"1114 461 OFFCURVE",
"894 658 CURVE",
"934 788 OFFCURVE",
"820 900 OFFCURVE",
"599 800 CURVE SMOOTH",
"541 775 OFFCURVE",
"488 737 OFFCURVE",
"441 692 CURVE",
"427 697 OFFCURVE",
"412 701 OFFCURVE",
"398 704 CURVE SMOOTH",
"50 785 OFFCURVE",
"-101 588 OFFCURVE",
"45 464 CURVE SMOOTH",
"50 459 OFFCURVE",
"56 455 OFFCURVE",
"61 451 CURVE",
"60 449 LINE SMOOTH",
"12 339 OFFCURVE",
"46 182 OFFCURVE",
"217 111 CURVE",
"240 -2 OFFCURVE",
"320 -81 OFFCURVE",
"473 -74 CURVE SMOOTH"
);
},
{
closed = 1;
nodes = (
"77 217 OFFCURVE",
"44 340 OFFCURVE",
"76 433 CURVE SMOOTH",
"78 439 LINE",
"127 406 OFFCURVE",
"183 385 OFFCURVE",
"242 374 CURVE",
"217 296 OFFCURVE",
"205 219 OFFCURVE",
"211 151 CURVE"
);
},
{
closed = 1;
nodes = (
"193 407 OFFCURVE",
"139 428 OFFCURVE",
"92 462 CURVE SMOOTH",
"89 464 LINE",
"120 524 OFFCURVE",
"179 563 OFFCURVE",
"248 559 CURVE SMOOTH",
"259 559 OFFCURVE",
"263 569 OFFCURVE",
"252 571 CURVE",
"177 578 OFFCURVE",
"111 538 OFFCURVE",
"73 476 CURVE",
"-71 597 OFFCURVE",
"119 743 OFFCURVE",
"397 678 CURVE SMOOTH",
"421 672 LINE",
"345 593 OFFCURVE",
"286 495 OFFCURVE",
"250 395 CURVE"
);
},
{
closed = 1;
nodes = (
"309 117 LINE",
"292 189 OFFCURVE",
"296 277 OFFCURVE",
"316 366 CURVE",
"461 360 OFFCURVE",
"616 407 OFFCURVE",
"734 480 CURVE",
"746 460 LINE SMOOTH",
"870 255 OFFCURVE",
"610 64 OFFCURVE",
"332 113 CURVE SMOOTH"
);
},
{
closed = 1;
nodes = (
"405 -54 OFFCURVE",
"347 1 OFFCURVE",
"319 82 CURVE",
"594 35 OFFCURVE",
"887 239 OFFCURVE",
"770 454 CURVE SMOOTH",
"763 466 OFFCURVE",
"756 478 OFFCURVE",
"748 489 CURVE",
"771 505 OFFCURVE",
"793 521 OFFCURVE",
"812 538 CURVE SMOOTH",
"847 569 OFFCURVE",
"871 602 OFFCURVE",
"885 635 CURVE",
"1031 437 OFFCURVE",
"761 -47 OFFCURVE",
"496 -52 CURVE SMOOTH"
);
},
{
closed = 1;
nodes = (
"347 484 OFFCURVE",
"395 582 OFFCURVE",
"462 660 CURVE",
"563 627 OFFCURVE",
"663 571 OFFCURVE",
"723 494 CURVE",
"612 423 OFFCURVE",
"463 378 OFFCURVE",
"321 386 CURVE"
);
},
{
closed = 1;
nodes = (
"676 580 OFFCURVE",
"579 642 OFFCURVE",
"480 679 CURVE",
"519 720 OFFCURVE",
"563 755 OFFCURVE",
"614 779 CURVE SMOOTH",
"811 873 OFFCURVE",
"902 784 OFFCURVE",
"876 673 CURVE",
"860 684 OFFCURVE",
"843 694 OFFCURVE",
"823 703 CURVE SMOOTH",
"813 707 OFFCURVE",
"805 697 OFFCURVE",
"815 692 CURVE SMOOTH",
"836 682 OFFCURVE",
"855 669 OFFCURVE",
"870 654 CURVE",
"857 618 OFFCURVE",
"832 582 OFFCURVE",
"796 548 CURVE SMOOTH",
"778 532 OFFCURVE",
"759 517 OFFCURVE",
"738 503 CURVE"
);
}
);
};
layerId = "32B14CDE-4F96-422E-BD5E-1145416534B1";
paths = (
{
closed = 1;
nodes = (
"726 -63 OFFCURVE",
"968 245 OFFCURVE",
"968 478 CURVE SMOOTH",
"968 548 OFFCURVE",
"945 612 OFFCURVE",
"894 658 CURVE",
"899 675 OFFCURVE",
"902 692 OFFCURVE",
"902 708 CURVE SMOOTH",
"902 781 OFFCURVE",
"849 838 OFFCURVE",
"753 838 CURVE SMOOTH",
"710 838 OFFCURVE",
"658 827 OFFCURVE",
"599 800 CURVE SMOOTH",
"541 775 OFFCURVE",
"488 737 OFFCURVE",
"441 692 CURVE",
"427 697 OFFCURVE",
"412 701 OFFCURVE",
"398 704 CURVE SMOOTH",
"341 717 OFFCURVE",
"290 723 OFFCURVE",
"244 723 CURVE SMOOTH",
"81 723 OFFCURVE",
"-10 649 OFFCURVE",
"-10 568 CURVE SMOOTH",
"-10 533 OFFCURVE",
"7 496 OFFCURVE",
"45 464 CURVE SMOOTH",
"50 459 OFFCURVE",
"56 455 OFFCURVE",
"61 451 CURVE",
"60 449 LINE SMOOTH",
"45 420 OFFCURVE",
"40 387 OFFCURVE",
"40 353 CURVE SMOOTH",
"40 261 OFFCURVE",
"92 163 OFFCURVE",
"217 111 CURVE",
"240 -2 OFFCURVE",
"320 -81 OFFCURVE",
"473 -74 CURVE SMOOTH"
);
},
{
closed = 1;
nodes = (
"108 202 OFFCURVE",
"65 286 OFFCURVE",
"65 365 CURVE SMOOTH",
"65 388 OFFCURVE",
"69 411 OFFCURVE",
"76 433 CURVE SMOOTH",
"78 439 LINE",
"127 406 OFFCURVE",
"183 385 OFFCURVE",
"242 374 CURVE",
"221 309 OFFCURVE",
"209 245 OFFCURVE",
"209 187 CURVE SMOOTH",
"209 174 OFFCURVE",
"210 163 OFFCURVE",
"211 151 CURVE"
);
},
{
closed = 1;
nodes = (
"193 407 OFFCURVE",
"140 430 OFFCURVE",
"92 462 CURVE SMOOTH",
"89 464 LINE",
"120 524 OFFCURVE",
"179 563 OFFCURVE",
"248 559 CURVE SMOOTH",
"254 559 OFFCURVE",
"259 562 OFFCURVE",
"259 566 CURVE SMOOTH",
"259 568 OFFCURVE",
"257 570 OFFCURVE",
"252 571 CURVE SMOOTH",
"177 578 OFFCURVE",
"111 538 OFFCURVE",
"73 476 CURVE",
"39 504 OFFCURVE",
"24 534 OFFCURVE",
"24 563 CURVE SMOOTH",
"24 634 OFFCURVE",
"121 694 OFFCURVE",
"264 694 CURVE SMOOTH",
"305 694 OFFCURVE",
"350 690 OFFCURVE",
"397 678 CURVE SMOOTH",
"421 672 LINE",
"345 593 OFFCURVE",
"286 495 OFFCURVE",
"250 395 CURVE"
);
},
{
closed = 1;
nodes = (
"392 105 OFFCURVE",
"362 108 OFFCURVE",
"332 113 CURVE SMOOTH",
"309 117 LINE",
"302 148 OFFCURVE",
"298 181 OFFCURVE",
"298 217 CURVE SMOOTH",
"298 264 OFFCURVE",
"305 315 OFFCURVE",
"316 366 CURVE",
"461 360 OFFCURVE",
"616 407 OFFCURVE",
"734 480 CURVE",
"746 460 LINE SMOOTH",
"768 424 OFFCURVE",
"778 388 OFFCURVE",
"778 354 CURVE SMOOTH",
"778 216 OFFCURVE",
"614 105 OFFCURVE",
"421 105 CURVE SMOOTH"
);
},
{
closed = 1;
nodes = (
"403 -52 OFFCURVE",
"347 2 OFFCURVE",
"319 82 CURVE",
"346 77 OFFCURVE",
"373 75 OFFCURVE",
"400 75 CURVE SMOOTH",
"605 75 OFFCURVE",
"796 202 OFFCURVE",
"796 356 CURVE SMOOTH",
"796 388 OFFCURVE",
"788 421 OFFCURVE",
"770 454 CURVE SMOOTH",
"763 466 OFFCURVE",
"756 478 OFFCURVE",
"748 489 CURVE",
"771 505 OFFCURVE",
"793 521 OFFCURVE",
"812 538 CURVE SMOOTH",
"847 569 OFFCURVE",
"871 602 OFFCURVE",
"885 635 CURVE",
"913 596 OFFCURVE",
"926 547 OFFCURVE",
"926 493 CURVE SMOOTH",
"926 265 OFFCURVE",
"706 -52 OFFCURVE",
"491 -52 CURVE SMOOTH"
);
},
{
closed = 1;
nodes = (
"343 385 OFFCURVE",
"332 385 OFFCURVE",
"321 386 CURVE",
"347 484 OFFCURVE",
"395 582 OFFCURVE",
"462 660 CURVE",
"563 627 OFFCURVE",
"663 571 OFFCURVE",
"723 494 CURVE",
"621 428 OFFCURVE",
"486 385 OFFCURVE",
"354 385 CURVE SMOOTH"
);
},
{
closed = 1;
nodes = (
"676 580 OFFCURVE",
"579 642 OFFCURVE",
"480 679 CURVE",
"519 720 OFFCURVE",
"563 755 OFFCURVE",
"614 779 CURVE SMOOTH",
"672 807 OFFCURVE",
"721 819 OFFCURVE",
"761 819 CURVE SMOOTH",
"839 819 OFFCURVE",
"880 771 OFFCURVE",
"880 709 CURVE SMOOTH",
"880 698 OFFCURVE",
"879 685 OFFCURVE",
"876 673 CURVE",
"860 684 OFFCURVE",
"843 694 OFFCURVE",
"823 703 CURVE SMOOTH",
"816 706 OFFCURVE",
"810 702 OFFCURVE",
"810 698 CURVE SMOOTH",
"810 696 OFFCURVE",
"812 694 OFFCURVE",
"815 692 CURVE SMOOTH",
"836 682 OFFCURVE",
"855 669 OFFCURVE",
"870 654 CURVE",
"857 618 OFFCURVE",
"832 582 OFFCURVE",
"796 548 CURVE SMOOTH",
"778 532 OFFCURVE",
"759 517 OFFCURVE",
"738 503 CURVE"
);
}
);
width = 925;
}
);
leftKerningGroup = O;
note = O;
rightKerningGroup = O;
unicode = 004F;
},
{
glyphname = Oslash;
lastChange = "2021-11-23 21:08:49 +0000";
layers = (
{
anchors = (
{
name = bottom;
position = "{406, -74}";
},
{
name = center;
position = "{463, 400}";
},
{
name = ogonek;
position = "{473, -57}";
},
{
name = top;
position = "{753, 838}";
},
{
name = topleft;
position = "{20, 800}";
},
{
name = topright;
position = "{849, 800}";
}
);
background = {
paths = (
{
closed = 1;
nodes = (
"82 -86 LINE",
"159 13 LINE",
"205 -31 OFFCURVE",
"269 -48 OFFCURVE",
"332 -48 CURVE SMOOTH",
"455 -48 OFFCURVE",
"564 28 OFFCURVE",
"625 132 CURVE SMOOTH",
"653 179 OFFCURVE",
"666 236 OFFCURVE",
"666 291 CURVE SMOOTH",
"666 335 OFFCURVE",
"657 382 OFFCURVE",
"635 421 CURVE",
"659 435 OFFCURVE",
"683 459 OFFCURVE",
"683 489 CURVE SMOOTH",
"683 536 OFFCURVE",
"634 567 OFFCURVE",
"594 580 CURVE",
"667 675 LINE",
"635 675 LINE",
"567 588 LINE",
"540 594 OFFCURVE",
"513 596 OFFCURVE",
"485 596 CURVE SMOOTH",
"368 596 OFFCURVE",
"256 565 OFFCURVE",
"178 474 CURVE",
"148 497 OFFCURVE",
"119 530 OFFCURVE",
"119 569 CURVE SMOOTH",
"119 624 OFFCURVE",
"165 643 OFFCURVE",
"213 643 CURVE SMOOTH",
"248 643 OFFCURVE",
"279 632 OFFCURVE",
"309 616 CURVE",
"310 615 OFFCURVE",
"314 613 OFFCURVE",
"315 613 CURVE SMOOTH",
"316 613 OFFCURVE",
"317 614 OFFCURVE",
"317 615 CURVE SMOOTH",
"317 616 OFFCURVE",
"315 622 OFFCURVE",
"313 623 CURVE SMOOTH",
"279 643 OFFCURVE",
"239 657 OFFCURVE",
"199 657 CURVE SMOOTH",
"146 657 OFFCURVE",
"100 638 OFFCURVE",
"100 578 CURVE SMOOTH",
"100 531 OFFCURVE",
"134 492 OFFCURVE",
"170 465 CURVE",
"115 396 OFFCURVE",
"84 300 OFFCURVE",
"84 212 CURVE SMOOTH",
"84 148 OFFCURVE",
"100 82 OFFCURVE",
"141 32 CURVE",
"50 -86 LINE"
);
},
{
closed = 1;
nodes = (
"154 113 OFFCURVE",
"147 157 OFFCURVE",
"147 200 CURVE SMOOTH",
"147 282 OFFCURVE",
"173 367 OFFCURVE",
"220 434 CURVE",
"279 404 OFFCURVE",
"344 388 OFFCURVE",
"410 383 CURVE",
"173 74 LINE"
);
},
{
closed = 1;
nodes = (
"285 -33 OFFCURVE",
"223 -3 OFFCURVE",
"187 51 CURVE",
"441 381 LINE",
"498 380 OFFCURVE",
"562 386 OFFCURVE",
"614 409 CURVE",
"625 378 OFFCURVE",
"629 343 OFFCURVE",
"629 309 CURVE SMOOTH",
"629 262 OFFCURVE",
"620 205 OFFCURVE",
"599 162 CURVE SMOOTH",
"553 73 OFFCURVE",
"457 -33 OFFCURVE",
"349 -33 CURVE SMOOTH"
);
},
{
closed = 1;
nodes = (
"352 396 OFFCURVE",
"286 412 OFFCURVE",
"227 443 CURVE",
"290 529 OFFCURVE",
"387 584 OFFCURVE",
"495 584 CURVE SMOOTH",
"517 584 OFFCURVE",
"539 582 OFFCURVE",
"561 579 CURVE",
"419 394 LINE"
);
},
{
closed = 1;
nodes = (
"515 478 LINE",
"521 479 OFFCURVE",
"528 480 OFFCURVE",
"534 480 CURVE SMOOTH",
"567 480 OFFCURVE",
"591 458 OFFCURVE",
"605 429 CURVE",
"560 406 OFFCURVE",
"502 397 OFFCURVE",
"451 395 CURVE"
);
},
{
closed = 1;
nodes = (
"599 472 OFFCURVE",
"566 491 OFFCURVE",
"526 492 CURVE",
"588 573 LINE",
"627 562 OFFCURVE",
"659 537 OFFCURVE",
"659 493 CURVE SMOOTH",
"659 470 OFFCURVE",
"641 452 OFFCURVE",
"623 440 CURVE"
);
}
);
};
layerId = "32B14CDE-4F96-422E-BD5E-1145416534B1";
paths = (
{
closed = 1;
nodes = (
"726 -63 OFFCURVE",
"968 245 OFFCURVE",
"968 478 CURVE SMOOTH",
"968 548 OFFCURVE",
"945 612 OFFCURVE",
"894 658 CURVE",
"899 675 OFFCURVE",
"902 692 OFFCURVE",
"902 708 CURVE SMOOTH",
"902 781 OFFCURVE",
"849 838 OFFCURVE",
"753 838 CURVE SMOOTH",
"710 838 OFFCURVE",
"658 827 OFFCURVE",
"599 800 CURVE SMOOTH",
"541 775 OFFCURVE",
"488 737 OFFCURVE",
"441 692 CURVE",
"427 697 OFFCURVE",
"412 701 OFFCURVE",
"398 704 CURVE SMOOTH",
"341 717 OFFCURVE",
"290 723 OFFCURVE",
"244 723 CURVE SMOOTH",
"81 723 OFFCURVE",
"-10 649 OFFCURVE",
"-10 568 CURVE SMOOTH",
"-10 533 OFFCURVE",
"7 496 OFFCURVE",
"45 464 CURVE SMOOTH",
"50 459 OFFCURVE",
"56 455 OFFCURVE",
"61 451 CURVE",
"60 449 LINE SMOOTH",
"45 420 OFFCURVE",
"40 387 OFFCURVE",
"40 353 CURVE SMOOTH",
"40 261 OFFCURVE",
"92 163 OFFCURVE",
"217 111 CURVE",
"240 -2 OFFCURVE",
"320 -81 OFFCURVE",
"473 -74 CURVE SMOOTH"
);
},
{
closed = 1;
nodes = (
"108 202 OFFCURVE",
"65 286 OFFCURVE",
"65 365 CURVE SMOOTH",
"65 388 OFFCURVE",
"69 411 OFFCURVE",
"76 433 CURVE SMOOTH",
"78 439 LINE",
"127 406 OFFCURVE",
"183 385 OFFCURVE",
"242 374 CURVE",
"221 309 OFFCURVE",
"209 245 OFFCURVE",
"209 187 CURVE SMOOTH",
"209 174 OFFCURVE",
"210 163 OFFCURVE",
"211 151 CURVE"
);
},
{
closed = 1;
nodes = (
"193 407 OFFCURVE",
"140 430 OFFCURVE",
"92 462 CURVE SMOOTH",
"89 464 LINE",
"120 524 OFFCURVE",
"179 563 OFFCURVE",
"248 559 CURVE SMOOTH",
"254 559 OFFCURVE",
"259 562 OFFCURVE",
"259 566 CURVE SMOOTH",
"259 568 OFFCURVE",
"257 570 OFFCURVE",
"252 571 CURVE SMOOTH",
"177 578 OFFCURVE",
"111 538 OFFCURVE",
"73 476 CURVE",
"39 504 OFFCURVE",
"24 534 OFFCURVE",
"24 563 CURVE SMOOTH",
"24 634 OFFCURVE",
"121 694 OFFCURVE",
"264 694 CURVE SMOOTH",
"305 694 OFFCURVE",
"350 690 OFFCURVE",
"397 678 CURVE SMOOTH",
"421 672 LINE",
"345 593 OFFCURVE",
"286 495 OFFCURVE",
"250 395 CURVE"
);
},
{
closed = 1;
nodes = (
"392 105 OFFCURVE",
"362 108 OFFCURVE",
"332 113 CURVE SMOOTH",
"309 117 LINE",
"302 148 OFFCURVE",
"298 181 OFFCURVE",
"298 217 CURVE SMOOTH",
"298 264 OFFCURVE",
"305 315 OFFCURVE",
"316 366 CURVE",
"461 360 OFFCURVE",
"616 407 OFFCURVE",
"734 480 CURVE",
"746 460 LINE SMOOTH",
"768 424 OFFCURVE",
"778 388 OFFCURVE",
"778 354 CURVE SMOOTH",
"778 216 OFFCURVE",
"614 105 OFFCURVE",
"421 105 CURVE SMOOTH"
);
},
{
closed = 1;
nodes = (
"403 -52 OFFCURVE",
"347 2 OFFCURVE",
"319 82 CURVE",
"346 77 OFFCURVE",
"373 75 OFFCURVE",
"400 75 CURVE SMOOTH",
"605 75 OFFCURVE",
"796 202 OFFCURVE",
"796 356 CURVE SMOOTH",
"796 388 OFFCURVE",
"788 421 OFFCURVE",
"770 454 CURVE SMOOTH",
"763 466 OFFCURVE",
"756 478 OFFCURVE",
"748 489 CURVE",
"771 505 OFFCURVE",
"793 521 OFFCURVE",
"812 538 CURVE SMOOTH",
"847 569 OFFCURVE",
"871 602 OFFCURVE",
"885 635 CURVE",
"913 596 OFFCURVE",
"926 547 OFFCURVE",
"926 493 CURVE SMOOTH",
"926 265 OFFCURVE",
"706 -52 OFFCURVE",
"491 -52 CURVE SMOOTH"
);
},
{
closed = 1;
nodes = (
"956 882 LINE",
"927 882 LINE",
"197 -107 LINE",
"226 -107 LINE"
);
},
{
closed = 1;
nodes = (
"343 385 OFFCURVE",
"332 385 OFFCURVE",
"321 386 CURVE",
"347 484 OFFCURVE",
"395 582 OFFCURVE",
"462 660 CURVE",
"563 627 OFFCURVE",
"663 571 OFFCURVE",
"723 494 CURVE",
"621 428 OFFCURVE",
"486 385 OFFCURVE",
"354 385 CURVE SMOOTH"
);
},
{
closed = 1;
nodes = (
"676 580 OFFCURVE",
"579 642 OFFCURVE",
"480 679 CURVE",
"519 720 OFFCURVE",
"563 755 OFFCURVE",
"614 779 CURVE SMOOTH",
"672 807 OFFCURVE",
"721 819 OFFCURVE",
"761 819 CURVE SMOOTH",
"839 819 OFFCURVE",
"880 771 OFFCURVE",
"880 709 CURVE SMOOTH",
"880 698 OFFCURVE",
"879 685 OFFCURVE",
"876 673 CURVE",
"860 684 OFFCURVE",
"843 694 OFFCURVE",
"823 703 CURVE SMOOTH",
"816 706 OFFCURVE",
"810 702 OFFCURVE",
"810 698 CURVE SMOOTH",
"810 696 OFFCURVE",
"812 694 OFFCURVE",
"815 692 CURVE SMOOTH",
"836 682 OFFCURVE",
"855 669 OFFCURVE",
"870 654 CURVE",
"857 618 OFFCURVE",
"832 582 OFFCURVE",
"796 548 CURVE SMOOTH",
"778 532 OFFCURVE",
"759 517 OFFCURVE",
"738 503 CURVE"
);
}
);
width = 925;
}
);
leftKerningGroup = O;
leftMetricsKey = O;
note = Oslash;
rightKerningGroup = O;
rightMetricsKey = O;
unicode = 00D8;
},
{
glyphname = OE;
lastChange = "2021-11-23 21:08:54 +0000";
layers = (
{
anchors = (
{
name = bottom;
position = "{1079, -114}";
},
{
name = center;
position = "{463, 400}";
},
{
name = ogonek;
position = "{1513, -12}";
},
{
name = top;
position = "{1506, 800}";
},
{
name = topleft;
position = "{945, 800}";
},
{
name = topright;
position = "{849, 800}";
}
);
background = {
anchors = (
{
name = bottom;
position = "{406, -74}";
},
{
name = center;
position = "{463, 400}";
},
{
name = ogonek;
position = "{473, -57}";
},
{
name = top;
position = "{813, 838}";
},
{
name = topleft;
position = "{20, 800}";
},
{
name = topright;
position = "{849, 800}";
}
);
paths = (
{
closed = 1;
nodes = (
"658 -5 OFFCURVE",
"574 -52 OFFCURVE",
"491 -52 CURVE SMOOTH",
"403 -52 OFFCURVE",
"347 2 OFFCURVE",
"319 82 CURVE",
"346 77 OFFCURVE",
"373 75 OFFCURVE",
"400 75 CURVE SMOOTH",
"605 75 OFFCURVE",
"796 202 OFFCURVE",
"796 356 CURVE SMOOTH",
"796 388 OFFCURVE",
"788 421 OFFCURVE",
"770 454 CURVE SMOOTH",
"763 466 OFFCURVE",
"756 478 OFFCURVE",
"748 489 CURVE",
"771 505 OFFCURVE",
"793 521 OFFCURVE",
"812 538 CURVE SMOOTH",
"847 569 OFFCURVE",
"871 602 OFFCURVE",
"885 635 CURVE",
"913 596 OFFCURVE",
"926 547 OFFCURVE",
"926 493 CURVE SMOOTH",
"926 460 OFFCURVE",
"921 426 OFFCURVE",
"913 391 CURVE",
"962 410 LINE",
"966 433 OFFCURVE",
"968 456 OFFCURVE",
"968 478 CURVE SMOOTH",
"968 548 OFFCURVE",
"945 612 OFFCURVE",
"894 658 CURVE",
"899 675 OFFCURVE",
"902 692 OFFCURVE",
"902 708 CURVE SMOOTH",
"902 781 OFFCURVE",
"849 838 OFFCURVE",
"753 838 CURVE SMOOTH",
"710 838 OFFCURVE",
"658 827 OFFCURVE",
"599 800 CURVE SMOOTH",
"541 775 OFFCURVE",
"488 737 OFFCURVE",
"441 692 CURVE",
"427 697 OFFCURVE",
"412 701 OFFCURVE",
"398 704 CURVE SMOOTH",
"341 717 OFFCURVE",
"290 723 OFFCURVE",
"244 723 CURVE SMOOTH",
"81 723 OFFCURVE",
"-10 649 OFFCURVE",
"-10 568 CURVE SMOOTH",
"-10 533 OFFCURVE",
"7 496 OFFCURVE",
"45 464 CURVE SMOOTH",
"50 459 OFFCURVE",
"56 455 OFFCURVE",
"61 451 CURVE",
"60 449 LINE SMOOTH",
"45 420 OFFCURVE",
"40 387 OFFCURVE",
"40 353 CURVE SMOOTH",
"40 261 OFFCURVE",
"92 163 OFFCURVE",
"217 111 CURVE",
"240 -2 OFFCURVE",
"320 -81 OFFCURVE",
"473 -74 CURVE SMOOTH",
"568 -70 OFFCURVE",
"661 -24 OFFCURVE",
"741 44 CURVE",
"729 66 LINE"
);
},
{
closed = 1;
nodes = (
"108 202 OFFCURVE",
"65 286 OFFCURVE",
"65 365 CURVE SMOOTH",
"65 388 OFFCURVE",
"69 411 OFFCURVE",
"76 433 CURVE SMOOTH",
"78 439 LINE",
"127 406 OFFCURVE",
"183 385 OFFCURVE",
"242 374 CURVE",
"221 309 OFFCURVE",
"209 245 OFFCURVE",
"209 187 CURVE SMOOTH",
"209 174 OFFCURVE",
"210 163 OFFCURVE",
"211 151 CURVE"
);
},
{
closed = 1;
nodes = (
"193 407 OFFCURVE",
"140 430 OFFCURVE",
"92 462 CURVE SMOOTH",
"89 464 LINE",
"120 524 OFFCURVE",
"179 563 OFFCURVE",
"248 559 CURVE SMOOTH",
"254 559 OFFCURVE",
"259 562 OFFCURVE",
"259 566 CURVE SMOOTH",
"259 568 OFFCURVE",
"257 570 OFFCURVE",
"252 571 CURVE SMOOTH",
"177 578 OFFCURVE",
"111 538 OFFCURVE",
"73 476 CURVE",
"39 504 OFFCURVE",
"24 534 OFFCURVE",
"24 563 CURVE SMOOTH",
"24 634 OFFCURVE",
"121 694 OFFCURVE",
"264 694 CURVE SMOOTH",
"305 694 OFFCURVE",
"350 690 OFFCURVE",
"397 678 CURVE SMOOTH",
"421 672 LINE",
"345 593 OFFCURVE",
"286 495 OFFCURVE",
"250 395 CURVE"
);
},
{
closed = 1;
nodes = (
"392 105 OFFCURVE",
"362 108 OFFCURVE",
"332 113 CURVE SMOOTH",
"309 117 LINE",
"302 148 OFFCURVE",
"298 181 OFFCURVE",
"298 217 CURVE SMOOTH",
"298 264 OFFCURVE",
"305 315 OFFCURVE",
"316 366 CURVE",
"461 360 OFFCURVE",
"616 407 OFFCURVE",
"734 480 CURVE",
"746 460 LINE SMOOTH",
"768 424 OFFCURVE",
"778 388 OFFCURVE",
"778 354 CURVE SMOOTH",
"778 216 OFFCURVE",
"614 105 OFFCURVE",
"421 105 CURVE SMOOTH"
);
},
{
closed = 1;
nodes = (
"343 385 OFFCURVE",
"332 385 OFFCURVE",
"321 386 CURVE",
"347 484 OFFCURVE",
"395 582 OFFCURVE",
"462 660 CURVE",
"563 627 OFFCURVE",
"663 571 OFFCURVE",
"723 494 CURVE",
"621 428 OFFCURVE",
"486 385 OFFCURVE",
"354 385 CURVE SMOOTH"
);
},
{
closed = 1;
nodes = (
"676 580 OFFCURVE",
"579 642 OFFCURVE",
"480 679 CURVE",
"519 720 OFFCURVE",
"563 755 OFFCURVE",
"614 779 CURVE SMOOTH",
"672 807 OFFCURVE",
"721 819 OFFCURVE",
"761 819 CURVE SMOOTH",
"839 819 OFFCURVE",
"880 771 OFFCURVE",
"880 709 CURVE SMOOTH",
"880 698 OFFCURVE",
"879 685 OFFCURVE",
"876 673 CURVE",
"860 684 OFFCURVE",
"843 694 OFFCURVE",
"823 703 CURVE SMOOTH",
"816 706 OFFCURVE",
"810 702 OFFCURVE",
"810 698 CURVE SMOOTH",
"810 696 OFFCURVE",
"812 694 OFFCURVE",
"815 692 CURVE SMOOTH",
"836 682 OFFCURVE",
"855 669 OFFCURVE",
"870 654 CURVE",
"857 618 OFFCURVE",
"832 582 OFFCURVE",
"796 548 CURVE SMOOTH",
"778 532 OFFCURVE",
"759 517 OFFCURVE",
"738 503 CURVE"
);
},
{
closed = 1;
nodes = (
"853 140 OFFCURVE",
"939 280 OFFCURVE",
"962 410 CURVE",
"913 391 LINE",
"886 276 OFFCURVE",
"816 153 OFFCURVE",
"729 66 CURVE",
"741 44 LINE"
);
}
);
};
layerId = "32B14CDE-4F96-422E-BD5E-1145416534B1";
paths = (
{
closed = 1;
nodes = (
"1304 804 OFFCURVE",
"1198 779 OFFCURVE",
"1107 734 CURVE",
"1026 795 OFFCURVE",
"953 819 OFFCURVE",
"896 819 CURVE SMOOTH",
"878 819 OFFCURVE",
"862 817 OFFCURVE",
"848 813 CURVE",
"824 829 OFFCURVE",
"792 838 OFFCURVE",
"753 838 CURVE SMOOTH",
"710 838 OFFCURVE",
"658 827 OFFCURVE",
"599 800 CURVE SMOOTH",
"541 775 OFFCURVE",
"488 737 OFFCURVE",
"441 692 CURVE",
"427 697 OFFCURVE",
"412 701 OFFCURVE",
"398 704 CURVE SMOOTH",
"341 717 OFFCURVE",
"290 723 OFFCURVE",
"244 723 CURVE SMOOTH",
"81 723 OFFCURVE",
"-10 649 OFFCURVE",
"-10 568 CURVE SMOOTH",
"-10 533 OFFCURVE",
"7 496 OFFCURVE",
"45 464 CURVE SMOOTH",
"50 459 OFFCURVE",
"56 455 OFFCURVE",
"61 451 CURVE",
"60 449 LINE SMOOTH",
"45 420 OFFCURVE",
"40 387 OFFCURVE",
"40 353 CURVE SMOOTH",
"40 261 OFFCURVE",
"92 163 OFFCURVE",
"217 111 CURVE",
"240 -2 OFFCURVE",
"320 -81 OFFCURVE",
"473 -74 CURVE SMOOTH",
"551 -71 OFFCURVE",
"628 -39 OFFCURVE",
"697 10 CURVE",
"736 -66 OFFCURVE",
"827 -128 OFFCURVE",
"943 -130 CURVE SMOOTH",
"966 -131 OFFCURVE",
"989 -130 OFFCURVE",
"1012 -127 CURVE",
"1010 -139 OFFCURVE",
"1009 -151 OFFCURVE",
"1009 -162 CURVE SMOOTH",
"1009 -248 OFFCURVE",
"1059 -303 OFFCURVE",
"1126 -303 CURVE SMOOTH",
"1161 -303 OFFCURVE",
"1200 -289 OFFCURVE",
"1240 -258 CURVE SMOOTH",
"1246 -253 OFFCURVE",
"1242 -244 OFFCURVE",
"1236 -244 CURVE SMOOTH",
"1234 -244 OFFCURVE",
"1233 -245 OFFCURVE",
"1231 -246 CURVE",
"1195 -273 OFFCURVE",
"1158 -286 OFFCURVE",
"1126 -286 CURVE SMOOTH",
"1068 -286 OFFCURVE",
"1024 -245 OFFCURVE",
"1024 -168 CURVE SMOOTH",
"1024 -161 OFFCURVE",
"1024 -154 OFFCURVE",
"1025 -147 CURVE SMOOTH",
"1028 -124 LINE",
"1132 -107 OFFCURVE",
"1229 -56 OFFCURVE",
"1305 17 CURVE SMOOTH",
"1347 58 OFFCURVE",
"1402 127 OFFCURVE",
"1429 195 CURVE SMOOTH",
"1442 228 OFFCURVE",
"1447 254 OFFCURVE",
"1447 275 CURVE SMOOTH",
"1447 320 OFFCURVE",
"1422 338 OFFCURVE",
"1386 338 CURVE SMOOTH",
"1367 338 OFFCURVE",
"1345 332 OFFCURVE",
"1322 323 CURVE",
"1323 333 OFFCURVE",
"1323 343 OFFCURVE",
"1323 353 CURVE SMOOTH",
"1323 408 OFFCURVE",
"1310 463 OFFCURVE",
"1288 514 CURVE",
"1394 531 OFFCURVE",
"1505 570 OFFCURVE",
"1554 650 CURVE SMOOTH",
"1564 667 OFFCURVE",
"1569 683 OFFCURVE",
"1569 699 CURVE SMOOTH",
"1569 757 OFFCURVE",
"1503 804 OFFCURVE",
"1397 804 CURVE SMOOTH"
);
},
{
closed = 1;
nodes = (
"672 807 OFFCURVE",
"721 819 OFFCURVE",
"761 819 CURVE SMOOTH",
"787 819 OFFCURVE",
"808 814 OFFCURVE",
"826 805 CURVE",
"783 785 OFFCURVE",
"758 748 OFFCURVE",
"758 706 CURVE SMOOTH",
"758 667 OFFCURVE",
"780 622 OFFCURVE",
"831 586 CURVE",
"821 573 OFFCURVE",
"809 560 OFFCURVE",
"796 548 CURVE SMOOTH",
"778 532 OFFCURVE",
"759 517 OFFCURVE",
"738 503 CURVE",
"676 580 OFFCURVE",
"579 642 OFFCURVE",
"480 679 CURVE",
"519 720 OFFCURVE",
"563 755 OFFCURVE",
"614 779 CURVE SMOOTH"
);
},
{
closed = 1;
nodes = (
"1257 581 OFFCURVE",
"1224 628 OFFCURVE",
"1186 665 CURVE SMOOTH",
"1169 683 OFFCURVE",
"1151 699 OFFCURVE",
"1134 713 CURVE",
"1213 762 OFFCURVE",
"1312 789 OFFCURVE",
"1402 789 CURVE SMOOTH",
"1476 789 OFFCURVE",
"1511 756 OFFCURVE",
"1511 713 CURVE SMOOTH",
"1511 648 OFFCURVE",
"1431 561 OFFCURVE",
"1281 531 CURVE"
);
},
{
closed = 1;
nodes = (
"880 616 OFFCURVE",
"902 665 OFFCURVE",
"902 708 CURVE SMOOTH",
"902 737 OFFCURVE",
"894 763 OFFCURVE",
"878 784 CURVE",
"890 787 OFFCURVE",
"902 788 OFFCURVE",
"916 788 CURVE SMOOTH",
"965 788 OFFCURVE",
"1026 771 OFFCURVE",
"1091 726 CURVE",
"1029 692 OFFCURVE",
"976 648 OFFCURVE",
"942 595 CURVE",
"920 556 LINE",
"895 564 OFFCURVE",
"874 575 OFFCURVE",
"856 586 CURVE"
);
},
{
closed = 1;
nodes = (
"872 760 OFFCURVE",
"880 736 OFFCURVE",
"880 709 CURVE SMOOTH",
"880 672 OFFCURVE",
"867 636 OFFCURVE",
"840 597 CURVE",
"803 626 OFFCURVE",
"786 659 OFFCURVE",
"786 689 CURVE SMOOTH",
"786 728 OFFCURVE",
"813 763 OFFCURVE",
"858 779 CURVE"
);
},
{
closed = 1;
nodes = (
"1138 687 OFFCURVE",
"1157 673 OFFCURVE",
"1176 655 CURVE SMOOTH",
"1211 619 OFFCURVE",
"1242 576 OFFCURVE",
"1266 528 CURVE",
"1235 523 OFFCURVE",
"1202 520 OFFCURVE",
"1167 520 CURVE SMOOTH",
"1097 520 OFFCURVE",
"1039 526 OFFCURVE",
"990 536 CURVE",
"1009 606 OFFCURVE",
"1058 663 OFFCURVE",
"1120 705 CURVE",
"1122 703 LINE SMOOTH"
);
},
{
closed = 1;
nodes = (
"193 407 OFFCURVE",
"140 430 OFFCURVE",
"92 462 CURVE SMOOTH",
"89 464 LINE",
"120 524 OFFCURVE",
"179 563 OFFCURVE",
"248 559 CURVE SMOOTH",
"254 559 OFFCURVE",
"259 562 OFFCURVE",
"259 566 CURVE SMOOTH",
"259 568 OFFCURVE",
"257 570 OFFCURVE",
"252 571 CURVE SMOOTH",
"177 578 OFFCURVE",
"111 538 OFFCURVE",
"73 476 CURVE",
"39 504 OFFCURVE",
"24 534 OFFCURVE",
"24 563 CURVE SMOOTH",
"24 634 OFFCURVE",
"121 694 OFFCURVE",
"264 694 CURVE SMOOTH",
"305 694 OFFCURVE",
"350 690 OFFCURVE",
"397 678 CURVE SMOOTH",
"421 672 LINE",
"345 593 OFFCURVE",
"286 495 OFFCURVE",
"250 395 CURVE"
);
},
{
closed = 1;
nodes = (
"563 627 OFFCURVE",
"663 571 OFFCURVE",
"723 494 CURVE",
"621 428 OFFCURVE",
"486 385 OFFCURVE",
"354 385 CURVE SMOOTH",
"343 385 OFFCURVE",
"332 385 OFFCURVE",
"321 386 CURVE",
"347 484 OFFCURVE",
"395 582 OFFCURVE",
"462 660 CURVE"
);
},
{
closed = 1;
nodes = (
"907 519 OFFCURVE",
"905 502 OFFCURVE",
"905 487 CURVE SMOOTH",
"905 459 OFFCURVE",
"911 444 OFFCURVE",
"930 412 CURVE",
"870 378 OFFCURVE",
"828 351 OFFCURVE",
"792 319 CURVE",
"795 331 OFFCURVE",
"796 344 OFFCURVE",
"796 356 CURVE SMOOTH",
"796 388 OFFCURVE",
"788 421 OFFCURVE",
"770 454 CURVE SMOOTH",
"763 466 OFFCURVE",
"756 478 OFFCURVE",
"748 489 CURVE",
"771 505 OFFCURVE",
"793 521 OFFCURVE",
"812 538 CURVE SMOOTH",
"825 550 OFFCURVE",
"837 562 OFFCURVE",
"848 575 CURVE",
"867 563 OFFCURVE",
"890 551 OFFCURVE",
"916 542 CURVE",
"914 537 LINE SMOOTH"
);
},
{
closed = 1;
nodes = (
"1309 338 OFFCURVE",
"1308 327 OFFCURVE",
"1307 315 CURVE",
"1295 309 OFFCURVE",
"1283 302 OFFCURVE",
"1271 294 CURVE SMOOTH",
"1195 242 OFFCURVE",
"1122 154 OFFCURVE",
"1073 56 CURVE",
"1063 55 OFFCURVE",
"1053 54 OFFCURVE",
"1043 54 CURVE SMOOTH",
"974 54 OFFCURVE",
"921 90 OFFCURVE",
"921 143 CURVE SMOOTH",
"921 155 OFFCURVE",
"923 168 OFFCURVE",
"929 182 CURVE SMOOTH",
"932 188 OFFCURVE",
"927 192 OFFCURVE",
"922 192 CURVE SMOOTH",
"919 192 OFFCURVE",
"916 191 OFFCURVE",
"915 188 CURVE SMOOTH",
"908 172 OFFCURVE",
"905 157 OFFCURVE",
"905 143 CURVE SMOOTH",
"905 80 OFFCURVE",
"966 39 OFFCURVE",
"1044 39 CURVE SMOOTH",
"1051 39 OFFCURVE",
"1058 39 OFFCURVE",
"1065 40 CURVE",
"1042 -8 OFFCURVE",
"1024 -58 OFFCURVE",
"1016 -107 CURVE",
"1003 -108 OFFCURVE",
"991 -109 OFFCURVE",
"979 -109 CURVE SMOOTH",
"844 -109 OFFCURVE",
"769 1 OFFCURVE",
"769 123 CURVE SMOOTH",
"769 227 OFFCURVE",
"824 339 OFFCURVE",
"944 397 CURVE",
"973 369 OFFCURVE",
"1017 351 OFFCURVE",
"1067 346 CURVE SMOOTH",
"1077 345 OFFCURVE",
"1088 344 OFFCURVE",
"1097 344 CURVE SMOOTH",
"1171 344 OFFCURVE",
"1217 379 OFFCURVE",
"1217 409 CURVE SMOOTH",
"1217 431 OFFCURVE",
"1190 451 OFFCURVE",
"1129 451 CURVE SMOOTH",
"1085 451 OFFCURVE",
"1038 444 OFFCURVE",
"991 429 CURVE",
"983 446 OFFCURVE",
"980 467 OFFCURVE",
"982 492 CURVE SMOOTH",
"983 502 OFFCURVE",
"985 512 OFFCURVE",
"987 522 CURVE",
"1037 511 OFFCURVE",
"1097 505 OFFCURVE",
"1167 505 CURVE SMOOTH",
"1199 505 OFFCURVE",
"1235 507 OFFCURVE",
"1273 512 CURVE",
"1295 461 OFFCURVE",
"1309 405 OFFCURVE",
"1309 350 CURVE SMOOTH"
);
},
{
closed = 1;
nodes = (
"298 264 OFFCURVE",
"305 315 OFFCURVE",
"316 366 CURVE",
"461 360 OFFCURVE",
"616 407 OFFCURVE",
"734 480 CURVE",
"746 460 LINE SMOOTH",
"768 424 OFFCURVE",
"778 388 OFFCURVE",
"778 354 CURVE SMOOTH",
"778 334 OFFCURVE",
"775 315 OFFCURVE",
"768 296 CURVE",
"740 268 OFFCURVE",
"717 235 OFFCURVE",
"701 200 CURVE",
"635 142 OFFCURVE",
"533 105 OFFCURVE",
"421 105 CURVE SMOOTH",
"392 105 OFFCURVE",
"362 108 OFFCURVE",
"332 113 CURVE SMOOTH",
"309 117 LINE",
"302 148 OFFCURVE",
"298 181 OFFCURVE",
"298 217 CURVE SMOOTH"
);
},
{
closed = 1;
nodes = (
"209 174 OFFCURVE",
"210 163 OFFCURVE",
"211 151 CURVE",
"108 202 OFFCURVE",
"65 286 OFFCURVE",
"65 365 CURVE SMOOTH",
"65 388 OFFCURVE",
"69 411 OFFCURVE",
"76 433 CURVE SMOOTH",
"78 439 LINE",
"127 406 OFFCURVE",
"183 385 OFFCURVE",
"242 374 CURVE",
"221 309 OFFCURVE",
"209 245 OFFCURVE",
"209 187 CURVE SMOOTH"
);
},
{
closed = 1;
nodes = (
"1036 430 OFFCURVE",
"1080 436 OFFCURVE",
"1131 436 CURVE SMOOTH",
"1153 436 OFFCURVE",
"1202 432 OFFCURVE",
"1202 409 CURVE SMOOTH",
"1202 381 OFFCURVE",
"1159 362 OFFCURVE",
"1112 362 CURVE SMOOTH",
"1069 362 OFFCURVE",
"1021 378 OFFCURVE",
"997 417 CURVE"
);
},
{
closed = 1;
nodes = (
"1396 323 OFFCURVE",
"1409 311 OFFCURVE",
"1409 283 CURVE SMOOTH",
"1409 263 OFFCURVE",
"1402 235 OFFCURVE",
"1387 197 CURVE SMOOTH",
"1330 56 OFFCURVE",
"1184 -78 OFFCURVE",
"1031 -104 CURVE",
"1041 -58 OFFCURVE",
"1059 -7 OFFCURVE",
"1084 43 CURVE",
"1152 55 OFFCURVE",
"1227 99 OFFCURVE",
"1279 187 CURVE SMOOTH",
"1302 225 OFFCURVE",
"1315 265 OFFCURVE",
"1321 307 CURVE",
"1341 317 OFFCURVE",
"1360 323 OFFCURVE",
"1375 323 CURVE SMOOTH"
);
},
{
closed = 1;
nodes = (
"1139 149 OFFCURVE",
"1203 237 OFFCURVE",
"1281 284 CURVE SMOOTH",
"1304 298 LINE",
"1298 262 OFFCURVE",
"1286 228 OFFCURVE",
"1267 195 CURVE SMOOTH",
"1220 116 OFFCURVE",
"1154 75 OFFCURVE",
"1092 60 CURVE"
);
},
{
closed = 1;
nodes = (
"403 -52 OFFCURVE",
"347 2 OFFCURVE",
"319 82 CURVE",
"346 77 OFFCURVE",
"373 75 OFFCURVE",
"400 75 CURVE SMOOTH",
"509 75 OFFCURVE",
"614 111 OFFCURVE",
"688 167 CURVE",
"682 147 OFFCURVE",
"678 127 OFFCURVE",
"676 105 CURVE SMOOTH",
"674 80 OFFCURVE",
"678 54 OFFCURVE",
"688 29 CURVE",
"627 -21 OFFCURVE",
"559 -52 OFFCURVE",
"491 -52 CURVE SMOOTH"
);
}
);
width = 1478;
}
);
leftKerningGroup = O;
note = OE;
rightKerningGroup = E;
unicode = 0152;
},
